<?xml version="1.0" encoding="utf-8"?>
<!-- Generator: Adobe Illustrator 16.0.3, SVG Export Plug-In . SVG Version: 6.00 Build 0)  -->
<!DOCTYPE svg PUBLIC "-//W3C//DTD SVG 1.1//EN" "http://www.w3.org/Graphics/SVG/1.1/DTD/svg11.dtd">
<svg version="1.1"
	 id="svg8943" xmlns:cc="http://web.resource.org/cc/" xmlns:dc="http://purl.org/dc/elements/1.1/" xmlns:inkscape="http://www.inkscape.org/namespaces/inkscape" xmlns:svg="http://www.w3.org/2000/svg" xmlns:rdf="http://www.w3.org/1999/02/22-rdf-syntax-ns#" xmlns:sodipodi="http://sodipodi.sourceforge.net/DTD/sodipodi-0.dtd" sodipodi:docname="Senyal de la Generalitat de Catalunya.svg"
	 xmlns="http://www.w3.org/2000/svg" xmlns:xlink="http://www.w3.org/1999/xlink" x="0px" y="0px" width="595.281px"
	 height="841.891px" viewBox="0 0 595.281 841.891" enable-background="new 0 0 595.281 841.891" xml:space="preserve">
<sodipodi:namedview  id="base" bordercolor="#666666" inkscape:cy="103.45624" pagecolor="#ffffff" inkscape:cx="90.063873" inkscape:zoom="1" borderopacity="1.0" inkscape:window-y="-4" inkscape:window-x="-4" inkscape:window-width="1024" inkscape:window-height="710" inkscape:pageshadow="2" inkscape:pageopacity="0.0" inkscape:document-units="px" inkscape:current-layer="layer1">
	</sodipodi:namedview>
<g id="layer1" transform="translate(-263.3116,-222.4164)" inkscape:label="Capa 1" inkscape:groupmode="layer">
	<path id="path3103" fill="#E6AD1A" d="M316.082,509.642c-3.891-1.667,26.679-63.363,26.679-63.363s19.454-21.677,22.232-44.465
		c2.224-22.789,22.233-14.729,22.233-14.729c-6.392-18.897,8.059-21.121,8.059-21.121c8.615,2.224,32.516-10.838,32.516-10.838
		c18.342-20.01,71.145-36.962,71.145-36.962v-2.779h-88.375c-27.235,4.446-22.232,9.171-34.738,14.729
		c-11.95,5.837-8.615-17.786-10.838-12.506c-3.891,9.172-17.786,14.174-19.454,11.395c-33.071-20.565-33.071-6.947-30.292,2.224
		c14.729,26.679,6.948,33.071-1.667,34.738c6.392,3.891,12.506,8.615,10.839,18.897c-2.779,2.779-8.06,14.174-10.839,28.069
		c-0.556,28.068-1.111,95.878,0.556,96.99C316.082,510.753,316.082,509.642,316.082,509.642"/>
	<path id="path3105" fill="#E3E4E5" d="M318.305,324.276l29.181,26.68c-2.224,4.446-8.06,3.335-13.062,0.556
		C328.588,348.455,314.415,327.89,318.305,324.276"/>
	<path id="path3107" fill="#E3E4E5" d="M358.324,345.398c0,0-4.447-1.111-3.891,0c1.112,0.556,0-9.727-4.446-13.062
		c3.891,0.556,10.283-2.779,11.394-2.779C357.768,335.115,358.324,345.398,358.324,345.398"/>
	<path id="path3109" fill="#E3E4E5" d="M351.377,369.576c-11.395,26.123-28.625,82.538-33.071,106.717
		c0-53.081-10.838-86.152,31.404-110.052C351.377,365.407,351.377,367.63,351.377,369.576"/>
	<path id="path3111" fill="#E3E4E5" d="M348.597,357.348c0-4.446,3.891-8.06,8.615-8.06c3.891,0,8.06,3.335,8.06,8.06
		c0,3.891-3.891,8.06-8.06,8.06C352.488,365.407,348.597,361.517,348.597,357.348"/>
	<path id="path3113" fill="#E3E4E5" d="M369.718,350.678c26.679-10.282,83.373-26.123,107.273-30.848
		c-53.081-1.111-86.152-12.506-110.608,29.181C365.55,351.234,368.051,351.234,369.718,350.678"/>
	<path id="path3115" fill="#E3E4E5" d="M362.771,367.074c6.392,3.891,16.396,14.729,14.729,14.729
		c-5.836-0.556-10.282,3.335-11.394,5.836C366.94,380.97,363.326,371.799,362.771,367.074"/>
	<path id="path3117" fill="#E3E4E5" d="M344.707,358.737c0,0-2.223,3.891-1.667,3.335c1.112-1.111-11.95-1.667-16.396,1.667
		c1.667-3.891,2.223-10.838,2.779-12.506C333.868,356.236,344.707,358.737,344.707,358.737"/>
	<path id="path3119" fill="#E6AD1A" d="M387.227,819.233c-9.727,15.284,4.446,21.121,4.446,21.121
		c8.615-1.668,35.851,11.394,35.851,11.394c30.848,23.9,66.142,34.183,66.142,34.183l-0.556,3.335c0,0-61.696,2.224-82.539-0.556
		c-28.625-9.171-22.233-7.503-34.739-13.062c-11.95-5.836-8.615,17.786-10.838,12.506c-3.891-9.171-18.897-12.506-20.009-9.727
		c-33.071,22.788-33.071,5.002-29.736-3.891c26.679-27.235-1.111-33.071,0.556-32.516c5.836-3.891,15.285-5.836,13.618-15.841
		c-2.779-3.335-11.394-18.897-14.173-31.959c-4.446-29.181,0-98.103,0-98.103h2.223c6.948,30.292,38.074,84.484,42.242,86.708
		c8.06,18.342,7.504,31.959,7.504,31.959C371.941,818.677,373.609,823.957,387.227,819.233"/>
	<path id="path3121" fill="#E3E4E5" d="M318.305,884.263l29.181-26.679c-2.224-6.948-6.948-3.335-11.95-0.557
		C330.255,860.362,314.415,878.705,318.305,884.263"/>
	<path id="path3123" fill="#E3E4E5" d="M356.657,862.03c0,0-2.779-0.556-2.224-1.111c-1.667,1.111-2.223,8.614-4.446,12.506
		c3.891-0.557,10.283,2.778,11.394,2.778C357.768,870.646,356.657,862.03,356.657,862.03"/>
	<path id="path3125" fill="#E3E4E5" d="M351.377,837.019c-15.285-25.567-28.069-87.264-33.071-114.499
		c-0.556,53.081-9.171,90.599,31.404,118.111C351.377,840.354,351.377,838.13,351.377,837.019"/>
	<path id="path3127" fill="#E3E4E5" d="M348.597,848.969c0-4.447,3.891-8.06,8.615-8.06c3.891,0,8.06,3.335,8.06,8.06
		c0,4.446-3.891,8.059-8.06,8.059C352.488,857.027,348.597,853.415,348.597,848.969"/>
	<path id="path3129" fill="#E3E4E5" d="M369.718,849.525c40.575-17.786,63.919,13.062,98.102,32.516
		c-34.738-9.172-83.928-24.456-99.213-30.293L369.718,849.525"/>
	<path id="path3131" fill="#E3E4E5" d="M362.771,838.686c5.836-1.667,16.396-14.729,14.729-14.729
		c-10.282-2.224-8.059-1.112-11.394-5.837C366.94,825.624,361.103,834.795,362.771,838.686"/>
	<path id="path3133" fill="#E3E4E5" d="M345.818,845.078c0,0,0.556-3.335,1.111-2.224c0.556,0.556-11.394-5.836-13.062-11.395
		c-1.112,4.446-7.504,9.171-8.615,10.283C331.367,841.465,345.818,845.078,345.818,845.078"/>
	<path id="path3135" fill="#E6AD1A" d="M806.313,506.862c-1.111-6.392-28.625-60.306-28.625-60.306s-21.676-29.181-21.121-40.575
		c0.557-31.959-21.676-17.23-21.676-17.23c8.615-16.396-8.061-22.788-8.061-22.788c-4.445,2.224-29.736-10.839-29.736-10.839
		c-18.342-20.009-71.145-36.962-71.145-36.962v-2.778h97.824c26.68,4.446,24.455,16.396,31.404,14.173
		c9.17-3.335,3.334-13.617,8.059-9.727c8.615,6.947,13.617,9.171,14.729,6.392c33.072-20.565,31.404-5.002,29.182,5.003
		c-5.002,9.171-10.283,15.284-11.395,20.564c-1.668,7.504,2.223,12.507,7.504,13.618c-6.393,3.891-15.842,9.727-2.225,19.453
		c2.779,2.779,5.836,14.174,8.615,27.235c0.557,28.068,3.336,107.272,1.668,108.385C809.37,522.148,806.313,506.862,806.313,506.862
		"/>
	<path id="path3137" fill="#E3E4E5" d="M800.755,320.386l-26.957,26.957c-2.779,4.447-5.836-5.836,4.447-16.396
		C787.694,320.942,795.475,320.942,800.755,320.386"/>
	<path id="path3139" fill="#E3E4E5" d="M760.18,345.953c0,0,4.447-0.556,3.891,0c0.557-0.556-3.336-14.173,0-16.396
		c-5.836,0.556-3.336,2.779-7.504,2.779C760.18,338.172,760.18,345.953,760.18,345.953"/>
	<path id="path3141" fill="#E3E4E5" d="M768.796,367.63c10.838,29.181,23.344,87.264,29.736,110.053
		c-18.342-43.354-52.525-62.808-34.738-110.053H768.796"/>
	<path id="path3143" fill="#E3E4E5" d="M757.958,356.236c0-3.891,3.334-8.06,8.059-8.06c4.447,0,8.059,3.891,8.059,8.06
		c0,4.446-3.334,8.06-8.059,8.06S757.958,360.961,757.958,356.236"/>
	<path id="path3145" fill="#E3E4E5" d="M755.733,350.678c-26.68-10.282-83.373-26.123-107.271-30.848
		c50.301-1.111,94.211-9.727,109.496,26.123C757.958,348.455,757.401,351.234,755.733,350.678"/>
	<path id="path3147" fill="#E3E4E5" d="M756.844,363.739c-8.059,0.557-20.564,3.335-21.121,3.335c6.393,0,5.004,11.395,6.393,13.618
		C745.452,374.023,756.29,368.187,756.844,363.739"/>
	<path id="path3149" fill="#E3E4E5" d="M777.965,357.348c0,0,2.779,3.891,1.668,2.779c2.223,1.667,9.172,1.667,14.174,2.224
		c-1.111-3.892-2.223-9.728-2.779-11.395C786.581,356.236,777.965,357.348,777.965,357.348"/>
	<path id="path3151" fill="#E6AD1A" d="M755.178,875.648c-6.949-2.779-6.393,6.392-33.627,10.283l-86.709,1.667v-2.224
		c0,0,43.91-15.841,63.92-34.738c0,0,16.396-14.173,36.406-15.285c0,0,16.396-4.446,6.947-23.899c0,0,18.898,11.394,18.898-13.618
		c0-11.394,20.564-41.687,20.564-41.687s26.123-50.856,26.68-57.526c0,0,1.668-11.95,3.334-10.283
		c1.668,1.112,1.113,74.758,0.557,102.549c-2.779,13.062-7.504,24.456-9.727,28.068c-2.779,6.948,4.445,12.506,10.838,16.396
		c-5.002,1.112-13.063,9.728-11.395,16.396c1.111,5.837,4.447,7.504,9.727,15.841c2.779,10.839,9.172,25.568-28.068,9.171
		c-3.891,0-2.779-6.947-15.84,8.06C761.848,879.817,766.573,876.203,755.178,875.648"/>
	<path id="path3153" fill="#E3E4E5" d="M807.702,881.484l-25.012-25.012c-6.391-2.779-6.947,4.447,3.336,15.285
		C792.139,878.149,800.755,882.596,807.702,881.484"/>
	<path id="path3155" fill="#E3E4E5" d="M767.684,857.584c0,0,2.779,1.111,2.223,0.556c0.557,0-3.336,14.173-3.336,17.23
		c-5.836-0.557-6.391-3.335-10.281-3.335C759.624,866.199,767.684,857.584,767.684,857.584"/>
	<path id="path3157" fill="#E3E4E5" d="M773.797,834.239c17.23-28.068,26.68-96.99,32.516-119.778
		c-30.293,62.251-53.637,78.647-36.963,119.223L773.797,834.239"/>
	<path id="path3159" fill="#E3E4E5" d="M767.684,845.634c0-4.447,3.334-8.06,8.059-8.06c3.891,0,8.059,3.335,8.059,8.06
		c0,4.446-3.891,8.059-8.059,8.059C771.018,853.415,767.684,850.08,767.684,845.634"/>
	<path id="path3161" fill="#E3E4E5" d="M764.348,839.241c-9.17-2.778-13.617-5.002-21.121-3.335c2.225,0,4.447-10.282,6.393-13.617
		C752.954,828.959,763.794,834.795,764.348,839.241"/>
	<path id="path3163" fill="#E3E4E5" d="M784.635,839.798c0,0,1.111-3.892,0.557-3.335c1.111-1.112,15.285-10.839,13.063-10.839
		c-1.668,4.446,8.059,9.727,7.502,10.839C798.532,836.463,784.635,839.798,784.635,839.798"/>
	<path id="path3165" fill="#E3E4E5" d="M663.19,878.705c41.686-7.504,106.16-32.516,101.992-33.627
		c-30.291-13.063-48.912-3.335-79.203,18.342L663.19,878.705"/>
	<path id="path3167" sodipodi:nodetypes="csszc" fill="#EAC102" d="M561.753,849.525c118.668,0,209.266-94.767,209.266-249.284
		c0-139.232-90.598-243.448-209.266-243.448c-118.666,0-209.82,104.771-209.82,243.448S443.364,849.525,561.753,849.525"/>
	<path id="path3169" fill="none" stroke="#E6AD1A" stroke-width="3.0364" d="M564.811,850.08
		c114.498,0,207.598-111.163,207.598-245.115c0-134.508-92.822-247.895-207.598-247.895c-115.055,0-211.489,113.387-211.489,247.895
		C353.044,738.917,449.478,850.08,564.811,850.08z"/>
	<path id="path3171" fill="#ED1C24" d="M439.751,377.913l-53.636,51.691v342.383l53.636,53.915V377.913z"/>
	<path id="path3173" fill="#ED1C24" d="M538.965,339.284l-53.637,14.173v499.68l53.637,14.174V339.284z"/>
	<path id="path3175" fill="#ED1C24" d="M584.542,339.284l-0.557,526.358l53.637-13.617V349.011L584.542,339.284z"/>
	<path id="path3177" fill="#ED1C24" d="M683.755,374.578l53.637,44.743v358.78L683.2,825.068V375.134"/>
	<path id="path3179" fill="none" stroke="#E6AD1A" stroke-width="7.7963" d="M563.977,871.757
		c127.281,0,230.385-120.891,230.385-269.571c0-148.682-103.104-269.571-230.385-269.571c-127.283,0-234.277,120.89-234.277,269.571
		C329.7,750.866,436.972,871.757,563.977,871.757z"/>
</g>
</svg>
