<?xml version="1.0" encoding="utf-8"?>
<!-- Generator: Adobe Illustrator 25.0.1, SVG Export Plug-In . SVG Version: 6.00 Build 0)  -->
<svg version="1.1"
	 id="svg719" xmlns:cc="http://creativecommons.org/ns#" xmlns:dc="http://purl.org/dc/elements/1.1/" xmlns:inkscape="http://www.inkscape.org/namespaces/inkscape" xmlns:rdf="http://www.w3.org/1999/02/22-rdf-syntax-ns#" xmlns:sodipodi="http://sodipodi.sourceforge.net/DTD/sodipodi-0.dtd" xmlns:svg="http://www.w3.org/2000/svg"
	 xmlns="http://www.w3.org/2000/svg" xmlns:xlink="http://www.w3.org/1999/xlink" x="0px" y="0px" viewBox="0 0 299.2 314.2"
	 style="enable-background:new 0 0 299.2 314.2;" xml:space="preserve">
<style type="text/css">
	.st0{fill:#AD1519;stroke:#000000;stroke-width:0.3114;stroke-linejoin:round;stroke-miterlimit:4.1182;}
	.st1{fill:#C8B100;stroke:#000000;stroke-width:0.3114;stroke-miterlimit:4.1182;}
	.st2{fill:#C8B100;}
	.st3{fill:#C8B100;stroke:#000000;stroke-width:0.3594;stroke-miterlimit:4.1182;}
	.st4{fill:none;stroke:#000000;stroke-width:0.3114;stroke-miterlimit:4.1182;}
	.st5{fill:#C8B100;stroke:#000000;stroke-width:0.3114;stroke-linejoin:round;stroke-miterlimit:4.1182;}
	.st6{fill:#AD1519;stroke:#000000;stroke-width:0.3114;stroke-miterlimit:4.1182;}
	.st7{fill:#058E6E;stroke:#000000;stroke-width:0.3114;stroke-miterlimit:4.1182;}
	.st8{fill:#FFFFFF;stroke:#000000;stroke-width:0.3114;stroke-miterlimit:4.1182;}
	.st9{fill:none;stroke:#000000;stroke-width:1.197741e-02;stroke-miterlimit:4.1182;}
	.st10{fill:none;stroke:#000000;stroke-width:2.395480e-02;stroke-miterlimit:4.1182;}
	.st11{fill:none;stroke:#000000;stroke-width:3.593221e-02;stroke-miterlimit:4.1182;}
	.st12{fill:none;stroke:#000000;stroke-width:4.790962e-02;stroke-miterlimit:4.1182;}
	.st13{fill:none;stroke:#000000;stroke-width:5.988703e-02;stroke-miterlimit:4.1182;}
	.st14{fill:none;stroke:#000000;stroke-width:7.186443e-02;stroke-miterlimit:4.1182;}
	.st15{fill:none;stroke:#000000;stroke-width:8.384184e-02;stroke-miterlimit:4.1182;}
	.st16{fill:none;stroke:#000000;stroke-width:9.581923e-02;stroke-miterlimit:4.1182;}
	.st17{fill:none;stroke:#000000;stroke-width:0.1078;stroke-miterlimit:4.1182;}
	.st18{fill:none;stroke:#000000;stroke-width:0.1198;stroke-miterlimit:4.1182;}
	.st19{fill:none;stroke:#000000;stroke-width:0.1318;stroke-miterlimit:4.1182;}
	.st20{fill:none;stroke:#000000;stroke-width:0.1437;stroke-miterlimit:4.1182;}
	.st21{fill:none;stroke:#000000;stroke-width:0.1557;stroke-miterlimit:4.1182;}
	.st22{fill:none;stroke:#000000;stroke-width:0.1676;stroke-miterlimit:4.1182;}
	.st23{fill:none;stroke:#000000;stroke-width:0.1796;stroke-miterlimit:4.1182;}
	.st24{fill:none;stroke:#000000;stroke-width:0.2156;stroke-miterlimit:4.1182;}
	.st25{fill:#005BBF;stroke:#000000;stroke-width:0.4671;stroke-miterlimit:4.1182;}
	.st26{fill:#CCCCCC;stroke:#000000;stroke-width:0.4671;stroke-miterlimit:4.1182;}
	.st27{fill:#C8B100;stroke:#000000;stroke-width:0.4671;stroke-linejoin:round;stroke-miterlimit:4.1182;}
	.st28{fill:#C8B100;stroke:#000000;stroke-width:0.4671;stroke-miterlimit:4.1182;}
	.st29{fill:none;stroke:#000000;stroke-width:0.4671;stroke-miterlimit:4.1182;}
	.st30{fill:#AD1519;stroke:#000000;stroke-width:0.4671;stroke-miterlimit:4.1182;}
	.st31{fill:#AD1519;stroke:#000000;stroke-width:0.4671;stroke-linejoin:round;stroke-miterlimit:4.1182;}
	.st32{fill:#AD1519;stroke:#000000;stroke-width:0.3234;stroke-miterlimit:4.1182;}
	.st33{fill:none;stroke:#000000;stroke-width:0.3114;stroke-linecap:round;stroke-miterlimit:4.1182;}
	.st34{fill:none;stroke:#000000;stroke-width:0.2515;stroke-miterlimit:4.1182;}
	.st35{fill:#FFFFFF;stroke:#000000;stroke-width:0.2515;stroke-miterlimit:4.1182;}
	.st36{fill:#005BBF;stroke:#000000;stroke-width:0.3114;stroke-miterlimit:4.1182;}
	.st37{fill:#FFFFFF;stroke:#000000;stroke-width:0.4671;stroke-miterlimit:4.1182;}
	.st38{fill:none;stroke:#000000;stroke-width:0.2755;stroke-miterlimit:4.1182;}
	.st39{fill:none;stroke:#000000;stroke-width:0.3354;stroke-miterlimit:4.1182;}
	.st40{fill:none;stroke:#000000;stroke-width:0.3953;stroke-miterlimit:4.1182;}
	.st41{fill:none;stroke:#000000;stroke-width:0.4431;stroke-miterlimit:4.1182;}
	.st42{fill:none;stroke:#000000;stroke-width:0.503;stroke-miterlimit:4.1182;}
	.st43{fill:none;stroke:#000000;stroke-width:0.551;stroke-miterlimit:4.1182;}
	.st44{fill:none;stroke:#000000;stroke-width:0.6109;stroke-miterlimit:4.1182;}
	.st45{fill:none;stroke:#000000;stroke-width:0.6708;stroke-miterlimit:4.1182;}
	.st46{fill:none;stroke:#000000;stroke-width:0.7186;stroke-miterlimit:4.1182;}
	.st47{fill:none;stroke:#000000;stroke-width:0.7546;stroke-miterlimit:4.1182;}
	.st48{fill:none;stroke:#000000;stroke-width:0.8145;stroke-miterlimit:4.1182;}
	.st49{fill:none;stroke:#000000;stroke-width:0.8744;stroke-miterlimit:4.1182;}
	.st50{fill:none;stroke:#000000;stroke-width:0.9223;stroke-miterlimit:4.1182;}
	.st51{fill:none;stroke:#000000;stroke-width:1.0899;stroke-miterlimit:4.1182;}
	.st52{fill:#058E6E;stroke:#000000;stroke-width:0.4671;stroke-miterlimit:4.1182;}
	.st53{fill:#CCCCCC;stroke:#000000;stroke-width:0.6229;stroke-miterlimit:4.1182;}
	.st54{fill:#FFD691;stroke:#000000;stroke-width:0.6229;stroke-miterlimit:4.1182;}
	.st55{fill:#058E6E;stroke:#000000;stroke-width:0.6229;stroke-miterlimit:4.1182;}
	.st56{fill:#AD1519;stroke:#000000;stroke-width:0.6229;stroke-miterlimit:4.1182;}
	.st57{fill:#C8B100;stroke:#000000;stroke-width:0.6229;stroke-miterlimit:4.1182;}
	.st58{fill:#C8B100;stroke:#C8B100;stroke-width:0.3114;stroke-miterlimit:4.1182;}
	.st59{fill:#058E6E;}
	.st60{fill:#C8B100;stroke:#000000;stroke-width:0.551;stroke-miterlimit:4.1182;}
	.st61{fill:#0039F0;}
	.st62{fill:#DB4446;stroke:#000000;stroke-width:0.4671;stroke-miterlimit:4.1182;}
	.st63{fill:#ED72AA;stroke:#000000;stroke-width:0.4671;stroke-miterlimit:4.1182;}
	.st64{stroke:#000000;stroke-width:0.3114;stroke-miterlimit:4.1182;}
	.st65{stroke:#000000;stroke-width:5.988703e-02;stroke-miterlimit:4.1182;}
	.st66{fill:#AD1519;stroke:#000000;stroke-width:0.7306;stroke-miterlimit:4.1182;}
	.st67{fill:#005BBF;stroke:#000000;stroke-width:0.7306;stroke-miterlimit:4.1182;}
	.st68{fill:#C8B100;stroke:#000000;stroke-width:0.4072;stroke-linejoin:round;stroke-miterlimit:4.1182;}
	.st69{fill:#C8B100;stroke:#000000;stroke-width:0.4072;stroke-miterlimit:4.1182;}
</style>
<sodipodi:namedview  bordercolor="#666666" borderopacity="1" fit-margin-bottom="0" fit-margin-left="0" fit-margin-right="0" fit-margin-top="0" gridtolerance="10" guidetolerance="10" id="namedview721" inkscape:current-layer="svg719" inkscape:cx="219.30104" inkscape:cy="107.55209" inkscape:pageopacity="0" inkscape:pageshadow="2" inkscape:window-height="1001" inkscape:window-maximized="1" inkscape:window-width="1920" inkscape:window-x="-9" inkscape:window-y="-9" inkscape:zoom="1.6106667" objecttolerance="10" pagecolor="#ffffff" showgrid="false">
	</sodipodi:namedview>
<g id="coa" transform="translate(-155.69896,-155.41)">
	<g id="supporters">
		<g id="crown_left">
			<path id="path6" class="st0" d="M209.5,262.1c0,0-0.6,0-0.9-0.2s-1.4-1.1-1.4-1.1l-0.8-0.6l-0.7-1c0,0-0.9-1.4-0.5-2.5
				c0.5-1,1.1-1.5,1.8-1.7c0.6-0.3,1.9-0.7,1.9-0.7s1.1-0.5,1.4-0.5c0.4-0.1,1.5-0.3,1.5-0.3s0.4-0.2,0.7-0.3
				c0.4-0.1,0.8-0.1,1.1-0.2s0.9-0.2,1.4-0.3c0.6,0,1.7,0.1,2,0.1s1.5,0.1,2,0.1s2.2-0.1,2.7-0.1c0.5,0,0.8-0.1,1.4,0
				c0.6,0.1,1.5,0.3,1.8,0.5c0.2,0.1,1.9,0.7,2.6,0.9c0.7,0.2,2.1,0.5,2.8,0.8c0.7,0.3,1.1,0.8,1.4,1.3c0.4,0.5,0.5,0.9,0.6,1.3
				c0.1,0.3,0.1,1,0,1.3c-0.1,0.3-0.6,0.9-0.6,0.9l-0.7,1.3l-0.9,0.8c0,0-0.7,0.7-1.3,0.6c-0.6,0-6.1-1-9.7-1
				C215.2,261.1,209.5,262.1,209.5,262.1L209.5,262.1z"/>
			<g id="g22">
				<ellipse id="ellipse8" class="st1" cx="218.9" cy="254.3" rx="1.7" ry="3"/>
				<ellipse id="ellipse10" class="st1" cx="218.9" cy="254.3" rx="0.8" ry="2.8"/>
				<ellipse id="ellipse12" class="st2" cx="218.9" cy="251.2" rx="1.2" ry="1"/>
				<path id="path14" class="st3" d="M220.4,250.9v0.7h-3.1v-0.7h1.2v-1.6h-0.7v-0.7h0.7v-0.7h0.7v0.7h0.7v0.7h-0.7v1.6H220.4"/>
				<path id="path16" class="st4" d="M219.2,250.2c0.6,0.1,0.9,0.7,0.8,1.3s-0.8,0.9-1.4,0.7c-0.6-0.1-0.9-0.7-0.8-1.3
					c0.1-0.3,0.4-0.6,0.8-0.7"/>
				<path id="path18" class="st1" d="M218.9,261.9H213l-0.1-1.4l-0.2-1.5l-0.2-1.8c-1.7-2.1-3.1-3.4-3.5-3.1
					c0.1-0.3,0.2-0.7,0.6-0.8c1.4-0.8,4.4,1.1,6.6,4.5c0.2,0.3,0.4,0.6,0.6,0.9h4.8c0.1-0.3,0.4-0.6,0.6-0.9
					c2.2-3.2,5.2-5.3,6.6-4.5c0.4,0.2,0.5,0.5,0.6,0.8c-0.5-0.2-2,1-3.5,3.1l-0.2,1.8l-0.2,1.5l-0.1,1.4H218.9z"/>
				<path id="path20" class="st4" d="M209.1,254.1c1.1-0.6,3.7,1.4,5.8,4.5 M228.8,254.1c-1.1-0.6-3.7,1.4-5.8,4.5"/>
			</g>
			<g id="crown_pt1">
				<path id="path24" class="st1" d="M210.2,264.4c-0.2-0.7-0.7-1.3-0.7-1.3c2.4-0.7,5.7-1.1,9.3-1.1c3.7,0,7,0.5,9.3,1.1
					c0,0-0.2,0.5-0.6,1c-0.2,0.3-0.5,0.9-0.5,0.9c-2.1-0.7-4.8-0.9-8.3-0.9s-6.6,0.5-8.4,1C210.6,265.2,210.4,264.9,210.2,264.4
					L210.2,264.4"/>
				<path id="path26" class="st1" d="M218.9,267.4c2.9,0,6.3-0.5,7.4-0.7c0.8-0.2,1.3-0.6,1.2-1c0-0.2-0.2-0.3-0.5-0.5
					c-1.8-0.6-5-0.9-8.1-0.9c-3.2,0-6.4,0.3-8.1,0.9c-0.2,0.1-0.4,0.2-0.5,0.5c-0.1,0.5,0.4,0.8,1.2,1
					C212.6,266.9,215.9,267.4,218.9,267.4z"/>
				<path id="path28" class="st1" d="M228.4,261.9l-0.7-0.6c0,0-0.7,0.5-1.5,0.2c-0.8-0.1-1.2-1.1-1.2-1.1s-0.9,0.8-1.8,0.7
					c-0.8-0.1-1.3-0.7-1.3-0.7s-0.8,0.6-1.7,0.6c-0.7-0.1-1.4-1-1.4-1s-0.7,0.9-1.5,1c-0.7,0.1-1.4-0.7-1.4-0.7s-0.4,0.7-1.3,0.8
					c-0.9,0.1-1.8-0.7-1.8-0.7s-0.6,0.9-1.2,1c-0.7,0.2-1.5-0.3-1.5-0.3s-0.1,0.3-0.2,0.5c-0.1,0.2-0.4,0.2-0.4,0.2l0.2,0.6
					c2.4-0.7,5.5-1,9.2-1s6.8,0.5,9.2,1L228.4,261.9L228.4,261.9z"/>
				<path id="path30" class="st1" d="M218.9,258.8l0.4,0.1c-0.1,0.1-0.1,0.2-0.1,0.5c0,0.7,0.6,1.3,1.4,1.3c0.6,0,1.1-0.3,1.3-0.9
					c0,0,0.1-0.5,0.2-0.5c0,0,0,0.5,0.1,0.5c0.1,0.6,0.7,1,1.3,1c0.7,0,1.3-0.6,1.3-1.3v-0.1l0.5-0.5l0.2,0.6
					c-0.1,0.1-0.1,0.3-0.1,0.6c0,0.7,0.6,1.1,1.3,1.1c0.5,0,0.8-0.2,1.1-0.6l0.2-0.3v0.5c0,0.5,0.1,0.8,0.6,0.8c0,0,0.5,0,1.1-0.5
					c0.6-0.5,0.9-0.9,0.9-0.9v0.5c0,0-0.6,1-1.2,1.3c-0.4,0.2-0.8,0.3-1.2,0.3c-0.4-0.1-0.7-0.3-0.8-0.7c-0.2,0.1-0.6,0.2-0.9,0.2
					c-0.7,0-1.4-0.5-1.8-1c-0.4,0.3-0.8,0.6-1.4,0.6s-1.2-0.2-1.5-0.7c-0.4,0.3-0.8,0.5-1.3,0.5c-0.7,0-1.3-0.3-1.7-0.8
					c-0.4,0.5-0.9,0.8-1.7,0.8c-0.5,0-0.9-0.2-1.3-0.5c-0.4,0.5-0.9,0.7-1.5,0.7s-1.1-0.2-1.4-0.6c-0.2,0.6-0.9,1-1.8,1
					c-0.4,0-0.7-0.1-0.9-0.2c-0.1,0.3-0.5,0.7-0.8,0.7c-0.4,0.1-0.8-0.1-1.2-0.3c-0.6-0.3-1.3-1.3-1.3-1.3l0.1-0.5
					c0,0,0.4,0.5,0.9,0.9s1.1,0.5,1.1,0.5c0.5-0.1,0.6-0.5,0.6-0.8v-0.3l0.2,0.3c0.2,0.3,0.6,0.6,1.1,0.6c0.7,0,1.3-0.6,1.3-1.1
					c0-0.2,0-0.3-0.1-0.6l0.2-0.6l0.5,0.5v0.1c0,0.7,0.6,1.3,1.3,1.3s1.3-0.5,1.3-1v-0.5c0.1,0,0.1,0.5,0.2,0.5
					c0.1,0.5,0.7,0.9,1.3,0.9c0.7,0,1.3-0.6,1.3-1.3c0-0.1,0-0.3-0.1-0.5L218.9,258.8L218.9,258.8z"/>
				<path id="path32" class="st5" d="M218.9,262.1c-3.7,0-7,0.5-9.3,1.1c-0.1,0-0.4-0.1-0.4-0.2s0.1-0.3,0.2-0.3
					c2.4-0.7,5.8-1.1,9.6-1.1s7.2,0.5,9.6,1.1c0.1,0,0.2,0.2,0.2,0.3c0,0.1-0.2,0.2-0.4,0.2C225.8,262.6,222.5,262.1,218.9,262.1z"
					/>
				<path id="path34" class="st1" d="M206.5,260.6c0,0-0.5-0.6-0.8-0.9c-0.2-0.2-0.8-0.3-0.8-0.3c0-0.1,0.4-0.3,0.7-0.3
					c0.2,0,0.5,0.1,0.6,0.2V259c0,0,0.2,0.1,0.5,0.3c0.1,0.3,0.1,0.8,0.1,0.8S206.6,260.5,206.5,260.6L206.5,260.6z"/>
				<path id="path36" class="st1" d="M208.7,259.7l-0.1,0.8l-1.7,0.2l-0.2-0.1v-0.2l1.3-1L208.7,259.7"/>
				<path id="path38" class="st1" d="M206.5,260.3c0.1-0.1,0.5-0.1,0.6,0.1c0.2,0.2,0.2,0.5,0.1,0.6c-0.1,0.1-0.5,0.1-0.6-0.1
					C206.3,260.8,206.3,260.5,206.5,260.3z"/>
				<path id="path40" class="st1" d="M209.5,260.5c-0.1-0.2,0-0.5,0.1-0.5s0.4,0.1,0.5,0.3c0.1,0.2,0,0.5-0.1,0.5
					C209.9,260.9,209.7,260.8,209.5,260.5z"/>
				<path id="path42" class="st1" d="M210.4,259.5l0.6,0.6l1.5-0.8l0.1-0.2l-0.2-0.2l-1.7-0.1L210.4,259.5"/>
				<path id="path44" class="st1" d="M212.1,256.8l-0.8,0.8l1.1,1.4l0.2,0.1l0.2-0.2l0.4-1.6L212.1,256.8"/>
				<path id="path46" class="st1" d="M214.8,258.7l-0.4,0.7l-1.7-0.1l-0.2-0.2l0.1-0.2l1.5-0.8L214.8,258.7"/>
				<ellipse id="ellipse48" class="st1" cx="212.6" cy="259" rx="0.6" ry="0.6"/>
				<path id="path50" class="st1" d="M215.4,259.4c0-0.2,0.1-0.5,0.2-0.5c0.1,0,0.4,0.1,0.4,0.3s-0.1,0.5-0.2,0.5
					C215.7,259.8,215.6,259.6,215.4,259.4z"/>
				<path id="path52" class="st1" d="M216.6,258.6l0.5,0.7l1.7-0.5l0.1-0.2l-0.2-0.2l-1.7-0.5L216.6,258.6"/>
				<path id="path54" class="st1" d="M218.9,256l-1.1,0.6l0.8,1.6l0.2,0.1l0.2-0.1l0.8-1.6L218.9,256"/>
				<path id="path56" class="st1" d="M221.1,258.6l-0.5,0.7l-1.7-0.5l-0.1-0.2l0.1-0.2l1.7-0.5L221.1,258.6"/>
				<ellipse id="ellipse58" class="st1" cx="218.9" cy="258.6" rx="0.6" ry="0.6"/>
				<path id="path60" class="st1" d="M222.3,259.4c0-0.2-0.1-0.5-0.2-0.5c-0.1,0-0.4,0.1-0.4,0.3s0.1,0.5,0.2,0.5
					C222.2,259.8,222.3,259.6,222.3,259.4z"/>
				<path id="path62" class="st1" d="M222.9,258.7l0.4,0.7l1.7-0.1l0.2-0.2l-0.1-0.2l-1.5-0.8L222.9,258.7"/>
				<path id="path64" class="st1" d="M225.7,256.8l0.8,0.8l-1.1,1.4l-0.2,0.1l-0.2-0.2l-0.4-1.6L225.7,256.8"/>
				<path id="path66" class="st1" d="M227.3,259.5l-0.6,0.6l-1.5-0.8l-0.1-0.2l0.2-0.2l1.7-0.1L227.3,259.5"/>
				<ellipse id="ellipse68" class="st1" cx="225.1" cy="259" rx="0.6" ry="0.6"/>
				<path id="path70" class="st1" d="M228.2,260.5c0.1-0.2,0-0.5-0.1-0.5s-0.4,0.1-0.5,0.3c-0.1,0.2,0,0.5,0.1,0.5
					C227.9,260.9,228.1,260.8,228.2,260.5z"/>
				<path id="path72" class="st1" d="M231.1,260.6c0,0,0.5-0.6,0.8-0.9c0.2-0.2,0.8-0.3,0.8-0.3c0-0.1-0.4-0.3-0.7-0.3
					c-0.2,0-0.5,0.1-0.6,0.2V259c0,0-0.2,0.1-0.5,0.3c-0.1,0.3,0,0.8,0,0.8S231,260.5,231.1,260.6L231.1,260.6z"/>
				<path id="path74" class="st1" d="M228.8,259.7l0.1,0.8l1.7,0.2l0.2-0.1l-0.1-0.2l-1.3-1L228.8,259.7"/>
				<path id="path76" class="st1" d="M231.1,260.3c-0.1-0.1-0.5-0.1-0.6,0.1c-0.2,0.2-0.2,0.5-0.1,0.6c0.1,0.1,0.5,0.1,0.7-0.1
					C231.2,260.8,231.2,260.5,231.1,260.3z"/>
			</g>
			<g id="crown_pt2">
				<path id="path79" class="st6" d="M209.7,264.5l0.4-0.6l0.8,0.1l-0.5,0.7L209.7,264.5"/>
				<path id="path81" class="st7" d="M213.1,264l-0.8,0.1c-0.2,0-0.5-0.1-0.5-0.3s0.1-0.3,0.4-0.5l0.8-0.1l0.8-0.1
					c0.2,0,0.5,0.1,0.5,0.3s-0.1,0.3-0.4,0.5L213.1,264"/>
				<ellipse id="ellipse83" class="st8" cx="215.9" cy="263.4" rx="0.6" ry="0.5"/>
				<path id="path85" class="st6" d="M218.9,263.6h-1.2c-0.2,0-0.4-0.1-0.4-0.3c0-0.2,0.1-0.3,0.4-0.3h2.4c0.2,0,0.4,0.1,0.4,0.3
					c0,0.2-0.2,0.3-0.4,0.3H218.9"/>
				<ellipse id="ellipse87" class="st8" cx="221.9" cy="263.4" rx="0.6" ry="0.5"/>
				<path id="path89" class="st7" d="M224.8,264l0.8,0.1c0.2,0,0.5-0.1,0.5-0.3s-0.1-0.3-0.4-0.5l-0.8-0.1L224,263
					c-0.2,0-0.5,0.1-0.5,0.3s0.1,0.3,0.4,0.5L224.8,264"/>
				<path id="path91" class="st6" d="M228.1,264.5l-0.4-0.6l-0.8,0.1l0.4,0.7L228.1,264.5"/>
				<path id="path93" class="st0" d="M218.9,266.7c-2.9,0-5.7-0.2-7.7-0.8c2-0.5,4.7-0.8,7.7-0.8s5.7,0.3,7.7,0.8
					C224.5,266.5,221.8,266.7,218.9,266.7z"/>
				<path id="path95" class="st9" d="M220.3,266.6v-1.4 M219.6,266.7v-1.5 M219,266.7v-1.5"/>
				<path id="path97" class="st10" d="M218.6,266.7v-1.5"/>
				<path id="path99" class="st11" d="M218.1,266.7v-1.5"/>
				<path id="path101" class="st12" d="M217.8,266.7v-1.5"/>
				<path id="path103" class="st12" d="M217.3,266.7v-1.5"/>
				<path id="path105" class="st13" d="M217.1,266.7v-1.5"/>
				<path id="path107" class="st14" d="M216.4,266.6v-1.4 M216.7,266.7v-1.4"/>
				<path id="path109" class="st15" d="M215.8,266.6v-1.3 M216,266.6v-1.4"/>
				<path id="path111" class="st16" d="M215,266.5v-1.1 M215.2,266.5v-1.1 M215.4,266.6v-1.3"/>
				<path id="path113" class="st17" d="M214.6,266.5v-1"/>
				<path id="path115" class="st18" d="M214.4,266.5v-1"/>
				<path id="path117" class="st19" d="M214.1,266.4v-0.9"/>
				<path id="path119" class="st20" d="M213.5,266.4v-0.7 M213.8,266.4v-0.8"/>
				<path id="path121" class="st20" d="M213.2,266.3v-0.7"/>
				<path id="path123" class="st21" d="M213,266.3v-0.6"/>
				<path id="path125" class="st22" d="M212.6,266.1v-0.5"/>
				<path id="path127" class="st23" d="M212.2,266.1v-0.3"/>
				<path id="path129" class="st24" d="M212,266v-0.1"/>
			</g>
		</g>
		<g id="pillar_left">
			<g id="g143">
				<path id="path133" class="st25" d="M237.8,390.2c-1.9,0-3.5-0.3-4.7-1c-1.2-0.6-2.8-0.9-4.7-0.9c-1.9,0-3.5,0.3-4.7,1
					c-1.2,0.6-2.9,1-4.7,1c-1.9,0-3.5-0.5-4.7-1c-1.2-0.6-2.8-0.9-4.6-0.9c-1.9,0-3.4,0.3-4.7,0.9c-1.3,0.7-2.9,1-4.8,1v2.9
					c1.9,0,3.5-0.5,4.8-1c1.2-0.6,2.8-0.9,4.7-0.9c1.8,0,3.4,0.3,4.6,0.9c1.2,0.6,2.9,1,4.7,1c1.9,0,3.5-0.3,4.7-1
					c1.2-0.6,2.9-1,4.7-1c1.8,0,3.4,0.3,4.7,1c1.3,0.7,2.8,1,4.7,1V390.2z"/>
				<path id="path135" class="st26" d="M237.8,393c-1.9,0-3.5-0.3-4.7-1c-1.2-0.6-2.8-1-4.7-1c-1.9,0-3.5,0.3-4.7,1
					c-1.2,0.6-2.9,1-4.7,1c-1.9,0-3.5-0.5-4.7-1c-1.2-0.6-2.8-0.9-4.6-0.9c-1.9,0-3.4,0.3-4.7,0.9c-1.3,0.6-2.9,1-4.8,1v2.9
					c1.9,0,3.5-0.5,4.8-1c1.2-0.6,2.8-0.9,4.7-0.9c1.8,0,3.4,0.3,4.6,0.9c1.2,0.7,2.9,1,4.7,1c1.9,0,3.5-0.5,4.7-1
					c1.2-0.6,2.9-1,4.7-1c1.8,0,3.4,0.3,4.7,1c1.3,0.6,2.8,1,4.7,1V393"/>
				<path id="path137" class="st25" d="M237.8,395.9c-1.9,0-3.5-0.3-4.7-1c-1.2-0.6-2.8-1-4.7-1c-1.9,0-3.5,0.3-4.7,1
					c-1.2,0.6-2.9,1-4.7,1c-1.9,0-3.5-0.5-4.7-1c-1.2-0.6-2.8-0.9-4.6-0.9c-1.9,0-3.4,0.3-4.7,0.9c-1.3,0.6-2.9,1-4.8,1v2.9
					c1.9,0,3.5-0.5,4.8-1c1.2-0.6,2.8-0.9,4.7-0.9c1.8,0,3.4,0.3,4.6,0.9c1.2,0.7,2.9,1,4.7,1c1.9,0,3.5-0.3,4.7-1
					c1.2-0.6,2.9-1,4.7-1c1.8,0,3.4,0.3,4.7,0.9c1.3,0.7,2.8,1,4.7,1V395.9"/>
				<path id="path139" class="st26" d="M237.8,401.6c-1.9,0-3.5-0.3-4.7-1c-1.2-0.6-2.8-0.9-4.7-0.9c-1.9,0-3.5,0.3-4.7,1
					c-1.2,0.6-2.9,1-4.7,1c-1.9,0-3.5-0.5-4.7-1c-1.2-0.6-2.8-0.9-4.6-0.9c-1.9,0-3.4,0.3-4.7,0.9c-1.3,0.6-2.9,1-4.8,1v-2.9
					c1.9,0,3.5-0.5,4.8-1c1.2-0.6,2.8-0.9,4.7-0.9c1.8,0,3.4,0.3,4.6,0.9c1.2,0.7,2.9,1,4.7,1c1.9,0,3.5-0.3,4.7-1
					c1.2-0.6,2.9-1,4.7-1c1.8,0,3.4,0.3,4.7,0.9c1.3,0.7,2.9,1,4.7,1V401.6"/>
				<path id="path141" class="st25" d="M237.8,404.4c-1.9,0-3.5-0.3-4.7-1c-1.2-0.6-2.8-1-4.7-1c-1.9,0-3.5,0.3-4.7,1
					c-1.2,0.6-2.9,1-4.7,1c-1.9,0-3.5-0.5-4.7-1c-1.2-0.6-2.8-0.9-4.6-0.9c-1.9,0-3.4,0.3-4.7,0.9c-1.3,0.6-2.9,1-4.8,1v-2.9
					c1.9,0,3.5-0.5,4.8-1c1.2-0.6,2.8-0.9,4.7-0.9c1.8,0,3.4,0.3,4.6,0.9c1.2,0.6,2.9,1,4.7,1c1.9,0,3.5-0.5,4.7-1
					c1.2-0.6,2.9-1,4.7-1c1.8,0,3.4,0.3,4.7,0.9c1.3,0.7,2.9,1,4.7,1V404.4z"/>
			</g>
			<g id="g151">
				<path id="path145" class="st27" d="M208.2,378.5c0.1,0.2,0.1,0.5,0.1,0.7c0,1.7-1.5,3.1-3.4,3.1h28c-1.9,0-3.4-1.4-3.4-3.1
					c0-0.2,0-0.5,0.1-0.7c-0.1,0.1-0.4,0.1-0.6,0.1h-20.3C208.6,378.6,208.4,378.6,208.2,378.5z"/>
				<path id="path147" class="st28" d="M208.7,376.7H229c0.7,0,1.3,0.5,1.3,0.9s-0.6,0.9-1.3,0.9h-20.3c-0.7,0-1.3-0.5-1.3-0.9
					C207.5,377.1,208,376.7,208.7,376.7z"/>
				<path id="path149" class="st28" d="M205.1,389.3h27.7v-6.9h-27.7V389.3z"/>
			</g>
			<path id="path153" class="st26" d="M209.1,375.6h19.7v-94.1h-19.7V375.6z"/>
			<path id="path155" class="st29" d="M223.1,281.6v93.9 M225.3,281.6v93.9"/>
			<g id="g165">
				<path id="path157" class="st28" d="M205.4,274.1h27v-6.9h-27V274.1z"/>
				<path id="path159" class="st27" d="M208.2,278.6c0.1-0.1,0.2-0.1,0.5-0.1H229c0.2,0,0.4,0,0.6,0.1c-0.7-0.2-1.2-0.8-1.2-1.6
					s0.6-1.4,1.3-1.6c-0.1,0-0.4,0.1-0.6,0.1h-20.3c-0.2,0-0.4,0-0.6-0.1h0.1c0.7,0.2,1.2,0.8,1.2,1.5
					C209.4,277.7,208.9,278.4,208.2,278.6L208.2,278.6z"/>
				<path id="path161" class="st28" d="M208.7,278.5H229c0.7,0,1.3,0.5,1.3,0.9c0,0.6-0.6,0.9-1.3,0.9h-20.3c-0.7,0-1.3-0.5-1.3-0.9
					C207.5,279,208,278.5,208.7,278.5z"/>
				<path id="path163" class="st28" d="M208.7,274.1H229c0.7,0,1.3,0.3,1.3,0.8c0,0.5-0.6,0.8-1.3,0.8h-20.3c-0.7,0-1.3-0.3-1.3-0.8
					C207.5,274.4,208,274.1,208.7,274.1z"/>
			</g>
		</g>
		<g id="ribbon_left">
			<path id="path168" class="st30" d="M202.8,352.3c-2.7,1.5-4.6,3.1-4.4,3.9c0.1,0.7,1.1,1.3,2.2,2.1c2,1.4,3.2,3.7,2.2,4.8
				c1.7-1.3,2.7-3.2,2.7-5.3C205.6,355.6,204.6,353.6,202.8,352.3z"/>
			<path id="path170" class="st31" d="M248.9,316.7c-4.2-1.7-11.7-3-20.1-3.3c-2.9,0-6.1,0.3-9.4,0.8c-11.8,2-20.8,6.5-20.1,10.2
				c0,0.1,0,0.2,0.1,0.3c0,0-4.4-9.8-4.5-10.1c-0.8-4.1,9.2-9.3,22.3-11.4c4.1-0.7,8.1-0.9,11.6-0.9c8.4,0,15.7,1,20.1,2.6V316.7"/>
			<path id="path172" class="st30" d="M208.9,328.6c-5.4-0.3-9.2-1.8-9.7-4c-0.4-1.7,1.5-3.8,4.8-5.5c1.4,0.1,3.2,0.3,4.8,0.3
				L208.9,328.6"/>
			<path id="path174" class="st30" d="M228.8,321.3c3.4,0.5,6,1.4,7.3,2.3l0.1,0.2c0.6,1.3-2.4,3.8-7.4,6.7V321.3"/>
			<path id="path176" class="st31" d="M196.7,346.7c-0.5-1.5,4.8-4.6,12.4-7.2c3.4-1.1,6.3-2.4,9.8-3.9c10.5-4.5,18.2-9.6,17.2-11.6
				l-0.1-0.2c0.6,0.5,1.4,9.8,1.4,9.8c0.9,1.7-6.1,6.9-15.8,11.4c-3.1,1.5-9.6,3.8-12.6,4.8c-5.5,1.8-11,5.4-10.5,6.7L196.7,346.7
				L196.7,346.7z"/>
		</g>
		<g id="crown_right">
			<path id="path179" class="st32" d="M400,259.9c0,0-0.9,0.9-1.5,1c-0.6,0.1-1.4-0.6-1.4-0.6s-0.6,0.6-1.3,0.8
				c-0.7,0.1-1.8-0.8-1.8-0.8s-0.7,0.9-1.3,1.1c-0.6,0.2-1.4-0.2-1.4-0.2s-0.2,0.5-0.8,0.7c-0.2,0.1-0.6-0.1-0.6-0.1l-0.7-0.5
				l-0.8-0.8l-0.7-0.2c0,0-0.4-1-0.4-1.3c0-0.2-0.1-0.7-0.1-0.7c-0.1-0.8,1.1-1.6,2.8-2.1c0.9-0.2,1.9-0.2,2.5,0
				c0.7-0.6,2.1-0.9,3.9-0.9c1.5,0,2.9,0.3,3.7,0.8c0.7-0.5,2.1-0.8,3.7-0.8c1.8,0,3.2,0.5,3.9,0.9c0.6-0.2,1.5-0.2,2.5,0
				c1.8,0.3,2.9,1.3,2.8,2.1c0,0-0.1,0.5-0.1,0.7c0,0.2-0.4,1.3-0.4,1.3l-0.7,0.2l-0.8,0.8l-0.7,0.5c0,0-0.4,0.1-0.6,0.1
				c-0.5-0.2-0.8-0.7-0.8-0.7s-0.7,0.5-1.4,0.2c-0.6-0.2-1.3-1.1-1.3-1.1s-0.9,0.9-1.8,0.8c-0.7-0.1-1.3-0.8-1.3-0.8
				s-0.8,0.7-1.4,0.6C401,260.9,400,259.9,400,259.9L400,259.9z"/>
			<g id="g191">
				<ellipse id="ellipse181" class="st1" cx="400" cy="255" rx="1.7" ry="2.3"/>
				<ellipse id="ellipse183" class="st1" cx="400" cy="255" rx="0.7" ry="2.2"/>
				<ellipse id="ellipse185" class="st2" cx="400" cy="252.3" rx="1.2" ry="1"/>
				<path id="path187" class="st3" d="M401.6,251.9v0.7h-3.1v-0.7h1.2v-1.5H399v-0.7h0.7V249h0.7v0.7h0.7v0.7h-0.7v1.5H401.6"/>
				<path id="path189" class="st4" d="M400.4,251.3c0.6,0.1,0.9,0.8,0.7,1.3c-0.2,0.6-0.8,0.8-1.4,0.7s-0.9-0.8-0.7-1.3
					c0.1-0.3,0.5-0.6,0.8-0.7"/>
			</g>
			<g id="g241">
				<path id="path193" class="st33" d="M387.4,259.5c-0.1-0.3-0.2-0.8-0.2-1.3c0-1.8,1.5-3.4,3.4-3.4c0.6,0,1.2,0.1,1.7,0.5"/>
				<path id="path195" class="st4" d="M393.6,257c-0.2-0.3-0.4-0.7-0.4-1c0-1.4,1.4-2.4,3.2-2.4c0.7,0,1.4,0.2,2,0.6"/>
				<path id="path197" class="st4" d="M406.5,257.1c0.2-0.3,0.4-0.7,0.4-1c0-1.4-1.4-2.4-3.2-2.4c-0.7,0-1.4,0.2-2,0.6"/>
				<path id="path199" class="st33" d="M412.7,259.5c0.1-0.3,0.2-0.8,0.2-1.3c0-1.8-1.5-3.4-3.4-3.4c-0.6,0-1.2,0.1-1.7,0.5"/>
				<ellipse id="ellipse201" class="st34" cx="386.4" cy="257.9" rx="0.6" ry="0.5"/>
				<ellipse id="ellipse203" class="st34" cx="386.6" cy="256" rx="0.6" ry="0.5"/>
				<ellipse id="ellipse205" class="st34" cx="387.8" cy="254.7" rx="0.6" ry="0.5"/>
				<ellipse id="ellipse207" class="st34" cx="389.4" cy="253.9" rx="0.6" ry="0.5"/>
				<ellipse id="ellipse209" class="st34" cx="391.2" cy="253.9" rx="0.6" ry="0.5"/>
				<ellipse id="ellipse211" class="st35" cx="392.3" cy="256" rx="0.6" ry="0.5"/>
				<ellipse id="ellipse213" class="st34" cx="392.5" cy="254.2" rx="0.6" ry="0.5"/>
				<ellipse id="ellipse215" class="st34" cx="393.9" cy="253.2" rx="0.6" ry="0.5"/>
				<ellipse id="ellipse217" class="st34" cx="395.7" cy="252.6" rx="0.6" ry="0.5"/>
				<ellipse id="ellipse219" class="st34" cx="397.4" cy="252.6" rx="0.6" ry="0.5"/>
				<ellipse id="ellipse221" class="st34" cx="402.6" cy="252.6" rx="0.6" ry="0.5"/>
				<ellipse id="ellipse223" class="st34" cx="404.3" cy="252.6" rx="0.6" ry="0.5"/>
				<ellipse id="ellipse225" class="st34" cx="406.1" cy="253.2" rx="0.6" ry="0.5"/>
				<ellipse id="ellipse227" class="st34" cx="407.5" cy="254.2" rx="0.6" ry="0.5"/>
				<ellipse id="ellipse229" class="st35" cx="407.7" cy="256" rx="0.6" ry="0.5"/>
				<ellipse id="ellipse231" class="st34" cx="408.8" cy="253.9" rx="0.6" ry="0.5"/>
				<ellipse id="ellipse233" class="st34" cx="410.5" cy="253.9" rx="0.6" ry="0.5"/>
				<ellipse id="ellipse235" class="st34" cx="412.2" cy="254.7" rx="0.6" ry="0.5"/>
				<ellipse id="ellipse237" class="st34" cx="413.5" cy="256" rx="0.6" ry="0.5"/>
				<ellipse id="ellipse239" class="st34" cx="413.6" cy="257.9" rx="0.6" ry="0.5"/>
			</g>
			<g id="use243">
				<g id="crown_pt1_1_">
					<path id="path24_1_" class="st1" d="M391.4,264.4c-0.2-0.7-0.7-1.3-0.7-1.3c2.4-0.7,5.7-1.1,9.3-1.1c3.7,0,7,0.5,9.3,1.1
						c0,0-0.2,0.5-0.6,1c-0.2,0.3-0.5,0.9-0.5,0.9c-2.1-0.7-4.8-0.9-8.3-0.9c-3.4,0-6.6,0.5-8.4,1
						C391.7,265.2,391.5,264.9,391.4,264.4L391.4,264.4"/>
					<path id="path26_1_" class="st1" d="M400,267.4c2.9,0,6.3-0.5,7.4-0.7c0.8-0.2,1.3-0.6,1.2-1c0-0.2-0.2-0.3-0.5-0.5
						c-1.8-0.6-5-0.9-8.1-0.9c-3.2,0-6.4,0.3-8.1,0.9c-0.2,0.1-0.4,0.2-0.5,0.5c-0.1,0.5,0.4,0.8,1.2,1
						C393.8,266.9,397.1,267.4,400,267.4z"/>
					<path id="path28_1_" class="st1" d="M409.5,261.9l-0.7-0.6c0,0-0.7,0.5-1.5,0.2c-0.8-0.1-1.2-1.1-1.2-1.1s-0.9,0.8-1.8,0.7
						s-1.3-0.7-1.3-0.7s-0.8,0.6-1.7,0.6c-0.7-0.1-1.4-1-1.4-1s-0.7,0.9-1.5,1c-0.7,0.1-1.4-0.7-1.4-0.7s-0.4,0.7-1.3,0.8
						c-0.9,0.1-1.8-0.7-1.8-0.7s-0.6,0.9-1.2,1c-0.7,0.2-1.5-0.3-1.5-0.3s-0.1,0.3-0.2,0.5c-0.1,0.2-0.4,0.2-0.4,0.2l0.2,0.6
						c2.4-0.7,5.5-1,9.2-1c3.7,0,6.8,0.5,9.2,1L409.5,261.9L409.5,261.9z"/>
					<path id="path30_1_" class="st1" d="M400,258.8l0.4,0.1c-0.1,0.1-0.1,0.2-0.1,0.5c0,0.7,0.6,1.3,1.4,1.3c0.6,0,1.1-0.3,1.3-0.9
						c0,0,0.1-0.5,0.2-0.5c0,0,0,0.5,0.1,0.5c0.1,0.6,0.7,1,1.3,1c0.7,0,1.3-0.6,1.3-1.3v-0.1l0.5-0.5l0.2,0.6
						c-0.1,0.1-0.1,0.3-0.1,0.6c0,0.7,0.6,1.1,1.3,1.1c0.5,0,0.8-0.2,1.1-0.6l0.2-0.3v0.5c0,0.5,0.1,0.8,0.6,0.8c0,0,0.5,0,1.1-0.5
						c0.6-0.5,0.9-0.9,0.9-0.9v0.5c0,0-0.6,1-1.2,1.3c-0.4,0.2-0.8,0.3-1.2,0.3c-0.4-0.1-0.7-0.3-0.8-0.7c-0.2,0.1-0.6,0.2-0.9,0.2
						c-0.7,0-1.4-0.5-1.8-1c-0.4,0.3-0.8,0.6-1.4,0.6c-0.6,0-1.2-0.2-1.5-0.7c-0.4,0.3-0.8,0.5-1.3,0.5c-0.7,0-1.3-0.3-1.7-0.8
						c-0.4,0.5-0.9,0.8-1.7,0.8c-0.5,0-0.9-0.2-1.3-0.5c-0.4,0.5-0.9,0.7-1.5,0.7c-0.6,0-1.1-0.2-1.4-0.6c-0.2,0.6-0.9,1-1.8,1
						c-0.4,0-0.7-0.1-0.9-0.2c-0.1,0.3-0.5,0.7-0.8,0.7c-0.4,0.1-0.8-0.1-1.2-0.3c-0.6-0.3-1.3-1.3-1.3-1.3l0.1-0.5
						c0,0,0.4,0.5,0.9,0.9c0.6,0.5,1.1,0.5,1.1,0.5c0.5-0.1,0.6-0.5,0.6-0.8v-0.3l0.2,0.3c0.2,0.3,0.6,0.6,1.1,0.6
						c0.7,0,1.3-0.6,1.3-1.1c0-0.2,0-0.3-0.1-0.6l0.2-0.6l0.5,0.5v0.1c0,0.7,0.6,1.3,1.3,1.3s1.3-0.5,1.3-1v-0.5
						c0.1,0,0.1,0.5,0.2,0.5c0.1,0.5,0.7,0.9,1.3,0.9c0.7,0,1.3-0.6,1.3-1.3c0-0.1,0-0.3-0.1-0.5L400,258.8L400,258.8z"/>
					<path id="path32_1_" class="st5" d="M400,262.1c-3.7,0-7,0.5-9.3,1.1c-0.1,0-0.4-0.1-0.4-0.2s0.1-0.3,0.2-0.3
						c2.4-0.7,5.8-1.1,9.6-1.1c3.8,0,7.2,0.5,9.6,1.1c0.1,0,0.2,0.2,0.2,0.3c0,0.1-0.2,0.2-0.4,0.2C407,262.6,403.7,262.1,400,262.1
						z"/>
					<path id="path34_1_" class="st1" d="M387.5,260.6c0,0-0.5-0.6-0.8-0.9c-0.2-0.2-0.8-0.3-0.8-0.3c0-0.1,0.4-0.3,0.7-0.3
						c0.2,0,0.5,0.1,0.6,0.2V259c0,0,0.2,0.1,0.5,0.3c0.1,0.3,0.1,0.8,0.1,0.8S387.7,260.5,387.5,260.6L387.5,260.6z"/>
					<path id="path36_1_" class="st1" d="M389.9,259.7l-0.1,0.8l-1.7,0.2l-0.2-0.1v-0.2l1.3-1L389.9,259.7"/>
					<path id="path38_1_" class="st1" d="M387.7,260.3c0.1-0.1,0.5-0.1,0.6,0.1c0.2,0.2,0.2,0.5,0.1,0.6c-0.1,0.1-0.5,0.1-0.6-0.1
						C387.5,260.8,387.4,260.5,387.7,260.3z"/>
					<path id="path40_1_" class="st1" d="M390.7,260.5c-0.1-0.2,0-0.5,0.1-0.5c0.1,0,0.4,0.1,0.5,0.3c0.1,0.2,0,0.5-0.1,0.5
						S390.8,260.8,390.7,260.5z"/>
					<path id="path42_1_" class="st1" d="M391.5,259.5l0.6,0.6l1.5-0.8l0.1-0.2l-0.2-0.2l-1.7-0.1L391.5,259.5"/>
					<path id="path44_1_" class="st1" d="M393.2,256.8l-0.8,0.8l1.1,1.4l0.2,0.1l0.2-0.2l0.4-1.6L393.2,256.8"/>
					<path id="path46_1_" class="st1" d="M396,258.7l-0.4,0.7l-1.7-0.1l-0.2-0.2l0.1-0.2l1.5-0.8L396,258.7"/>
					<ellipse id="ellipse48_1_" class="st1" cx="393.8" cy="259" rx="0.6" ry="0.6"/>
					<path id="path50_1_" class="st1" d="M396.6,259.4c0-0.2,0.1-0.5,0.2-0.5c0.1,0,0.4,0.1,0.4,0.3s-0.1,0.5-0.2,0.5
						C396.9,259.8,396.6,259.6,396.6,259.4z"/>
					<path id="path52_1_" class="st1" d="M397.7,258.6l0.5,0.7l1.7-0.5l0.1-0.2l-0.2-0.2l-1.7-0.5L397.7,258.6"/>
					<path id="path54_1_" class="st1" d="M400,256l-1.1,0.6l0.8,1.6l0.2,0.1l0.2-0.1l0.8-1.6L400,256"/>
					<path id="path56_1_" class="st1" d="M402.3,258.6l-0.5,0.7l-1.7-0.5l-0.1-0.2l0.1-0.2l1.7-0.5L402.3,258.6"/>
					<ellipse id="ellipse58_1_" class="st1" cx="400" cy="258.6" rx="0.6" ry="0.6"/>
					<path id="path60_1_" class="st1" d="M403.5,259.4c0-0.2-0.1-0.5-0.2-0.5c-0.1,0-0.4,0.1-0.4,0.3s0.1,0.5,0.2,0.5
						C403.2,259.8,403.5,259.6,403.5,259.4z"/>
					<path id="path62_1_" class="st1" d="M404,258.7l0.4,0.7l1.7-0.1l0.2-0.2l-0.1-0.2l-1.5-0.8L404,258.7"/>
					<path id="path64_1_" class="st1" d="M406.9,256.8l0.8,0.8l-1.1,1.4l-0.2,0.1l-0.2-0.2l-0.4-1.6L406.9,256.8"/>
					<path id="path66_1_" class="st1" d="M408.5,259.5l-0.6,0.6l-1.5-0.8l-0.1-0.2l0.2-0.2l1.7-0.1L408.5,259.5"/>
					<ellipse id="ellipse68_1_" class="st1" cx="406.3" cy="259" rx="0.6" ry="0.6"/>
					<path id="path70_1_" class="st1" d="M409.4,260.5c0.1-0.2,0-0.5-0.1-0.5c-0.1,0-0.4,0.1-0.5,0.3c-0.1,0.2,0,0.5,0.1,0.5
						C409.1,260.9,409.2,260.8,409.4,260.5z"/>
					<path id="path72_1_" class="st1" d="M412.2,260.6c0,0,0.5-0.6,0.8-0.9c0.2-0.2,0.8-0.3,0.8-0.3c0-0.1-0.4-0.3-0.7-0.3
						c-0.2,0-0.5,0.1-0.6,0.2V259c0,0-0.2,0.1-0.5,0.3c-0.1,0.3,0,0.8,0,0.8S412.2,260.5,412.2,260.6L412.2,260.6z"/>
					<path id="path74_1_" class="st1" d="M409.9,259.7l0.1,0.8l1.7,0.2l0.2-0.1l-0.1-0.2l-1.3-1L409.9,259.7"/>
					<path id="path76_1_" class="st1" d="M412.3,260.3c-0.1-0.1-0.5-0.1-0.6,0.1c-0.2,0.2-0.2,0.5-0.1,0.6c0.1,0.1,0.5,0.1,0.7-0.1
						C412.3,260.8,412.4,260.5,412.3,260.3z"/>
				</g>
			</g>
			<g id="use245">
				<g id="crown_pt2_1_">
					<path id="path79_1_" class="st6" d="M390.7,264.5l0.4-0.6l0.8,0.1l-0.5,0.7L390.7,264.5"/>
					<path id="path81_1_" class="st7" d="M394.1,264l-0.8,0.1c-0.2,0-0.5-0.1-0.5-0.3s0.1-0.3,0.4-0.5l0.8-0.1l0.8-0.1
						c0.2,0,0.5,0.1,0.5,0.3s-0.1,0.3-0.4,0.5L394.1,264"/>
					<ellipse id="ellipse83_1_" class="st8" cx="397" cy="263.4" rx="0.6" ry="0.5"/>
					<path id="path85_1_" class="st6" d="M400,263.6h-1.2c-0.2,0-0.4-0.1-0.4-0.3c0-0.2,0.1-0.3,0.4-0.3h2.4c0.2,0,0.4,0.1,0.4,0.3
						c0,0.2-0.2,0.3-0.4,0.3H400"/>
					<ellipse id="ellipse87_1_" class="st8" cx="403.1" cy="263.4" rx="0.6" ry="0.5"/>
					<path id="path89_1_" class="st7" d="M405.9,264l0.8,0.1c0.2,0,0.5-0.1,0.5-0.3s-0.1-0.3-0.4-0.5l-0.8-0.1l-0.8-0.1
						c-0.2,0-0.5,0.1-0.5,0.3s0.1,0.3,0.4,0.5L405.9,264"/>
					<path id="path91_1_" class="st6" d="M409.2,264.5l-0.4-0.6l-0.8,0.1l0.4,0.7L409.2,264.5"/>
					<path id="path93_1_" class="st0" d="M400,266.7c-2.9,0-5.7-0.2-7.7-0.8c2-0.5,4.7-0.8,7.7-0.8s5.7,0.3,7.7,0.8
						C405.7,266.5,403,266.7,400,266.7z"/>
					<path id="path95_1_" class="st9" d="M401.5,266.6v-1.4 M400.7,266.7v-1.5 M400.2,266.7v-1.5"/>
					<path id="path97_1_" class="st10" d="M399.8,266.7v-1.5"/>
					<path id="path99_1_" class="st11" d="M399.3,266.7v-1.5"/>
					<path id="path101_1_" class="st12" d="M399,266.7v-1.5"/>
					<path id="path103_1_" class="st12" d="M398.5,266.7v-1.5"/>
					<path id="path105_1_" class="st13" d="M398.2,266.7v-1.5"/>
					<path id="path107_1_" class="st14" d="M397.6,266.6v-1.4 M397.8,266.7v-1.4"/>
					<path id="path109_1_" class="st15" d="M396.9,266.6v-1.3 M397.2,266.6v-1.4"/>
					<path id="path111_1_" class="st16" d="M396,266.5v-1.1 M396.4,266.5v-1.1 M396.6,266.6v-1.3"/>
					<path id="path113_1_" class="st17" d="M395.8,266.5v-1"/>
					<path id="path115_1_" class="st18" d="M395.6,266.5v-1"/>
					<path id="path117_1_" class="st19" d="M395.2,266.4v-0.9"/>
					<path id="path119_1_" class="st20" d="M394.6,266.4v-0.7 M395,266.4v-0.8"/>
					<path id="path121_1_" class="st20" d="M394.4,266.3v-0.7"/>
					<path id="path123_1_" class="st21" d="M394,266.3v-0.6"/>
					<path id="path125_1_" class="st22" d="M393.8,266.1v-0.5"/>
					<path id="path127_1_" class="st23" d="M393.4,266.1v-0.3"/>
					<path id="path129_1_" class="st24" d="M393.1,266v-0.1"/>
				</g>
			</g>
		</g>
		<g id="pillar_right">
			<g id="pillar_left_1_">
				<g id="g143_1_">
					<path id="path133_1_" class="st25" d="M419,390.2c-1.9,0-3.5-0.3-4.7-1c-1.2-0.6-2.8-0.9-4.7-0.9c-1.9,0-3.5,0.3-4.7,1
						c-1.2,0.6-2.9,1-4.7,1c-1.9,0-3.5-0.5-4.7-1s-2.8-0.9-4.6-0.9c-1.9,0-3.4,0.3-4.7,0.9c-1.3,0.7-2.9,1-4.8,1v2.9
						c1.9,0,3.5-0.5,4.8-1c1.2-0.6,2.8-0.9,4.7-0.9c1.8,0,3.4,0.3,4.6,0.9s2.9,1,4.7,1c1.9,0,3.5-0.3,4.7-1c1.2-0.6,2.9-1,4.7-1
						s3.4,0.3,4.7,1c1.3,0.7,2.8,1,4.7,1V390.2z"/>
					<path id="path135_1_" class="st26" d="M419,393c-1.9,0-3.5-0.3-4.7-1c-1.2-0.6-2.8-1-4.7-1c-1.9,0-3.5,0.3-4.7,1
						c-1.2,0.6-2.9,1-4.7,1c-1.9,0-3.5-0.5-4.7-1s-2.8-0.9-4.6-0.9c-1.9,0-3.4,0.3-4.7,0.9s-2.9,1-4.8,1v2.9c1.9,0,3.5-0.5,4.8-1
						c1.2-0.6,2.8-0.9,4.7-0.9c1.8,0,3.4,0.3,4.6,0.9c1.2,0.7,2.9,1,4.7,1c1.9,0,3.5-0.5,4.7-1s2.9-1,4.7-1s3.4,0.3,4.7,1
						c1.3,0.6,2.8,1,4.7,1V393"/>
					<path id="path137_1_" class="st25" d="M419,395.9c-1.9,0-3.5-0.3-4.7-1c-1.2-0.6-2.8-1-4.7-1c-1.9,0-3.5,0.3-4.7,1
						c-1.2,0.6-2.9,1-4.7,1c-1.9,0-3.5-0.5-4.7-1s-2.8-0.9-4.6-0.9c-1.9,0-3.4,0.3-4.7,0.9s-2.9,1-4.8,1v2.9c1.9,0,3.5-0.5,4.8-1
						c1.2-0.6,2.8-0.9,4.7-0.9c1.8,0,3.4,0.3,4.6,0.9c1.2,0.7,2.9,1,4.7,1c1.9,0,3.5-0.3,4.7-1c1.2-0.6,2.9-1,4.7-1s3.4,0.3,4.7,0.9
						c1.3,0.7,2.8,1,4.7,1V395.9"/>
					<path id="path139_1_" class="st26" d="M418.9,401.6c-1.9,0-3.5-0.3-4.7-1c-1.2-0.6-2.8-0.9-4.7-0.9s-3.5,0.3-4.7,1
						c-1.2,0.6-2.9,1-4.7,1c-1.9,0-3.5-0.5-4.7-1c-1.2-0.6-2.8-0.9-4.6-0.9c-1.9,0-3.4,0.3-4.7,0.9c-1.3,0.6-2.9,1-4.8,1v-2.9
						c1.9,0,3.5-0.5,4.8-1c1.2-0.6,2.8-0.9,4.7-0.9c1.8,0,3.4,0.3,4.6,0.9c1.2,0.7,2.9,1,4.7,1c1.9,0,3.5-0.3,4.7-1
						c1.2-0.6,2.9-1,4.7-1s3.4,0.3,4.7,0.9c1.3,0.7,2.9,1,4.7,1V401.6"/>
					<path id="path141_1_" class="st25" d="M418.9,404.4c-1.9,0-3.5-0.3-4.7-1c-1.2-0.6-2.8-1-4.7-1s-3.5,0.3-4.7,1
						c-1.2,0.6-2.9,1-4.7,1c-1.9,0-3.5-0.5-4.7-1c-1.2-0.6-2.8-0.9-4.6-0.9c-1.9,0-3.4,0.3-4.7,0.9c-1.3,0.6-2.9,1-4.8,1v-2.9
						c1.9,0,3.5-0.5,4.8-1c1.2-0.6,2.8-0.9,4.7-0.9c1.8,0,3.4,0.3,4.6,0.9c1.2,0.6,2.9,1,4.7,1c1.9,0,3.5-0.5,4.7-1s2.9-1,4.7-1
						s3.4,0.3,4.7,0.9c1.3,0.7,2.9,1,4.7,1V404.4z"/>
				</g>
				<g id="g151_1_">
					<path id="path145_1_" class="st27" d="M389.4,378.5c0.1,0.2,0.1,0.5,0.1,0.7c0,1.7-1.5,3.1-3.4,3.1H414c-1.9,0-3.4-1.4-3.4-3.1
						c0-0.2,0-0.5,0.1-0.7c-0.1,0.1-0.4,0.1-0.6,0.1h-20.3C389.8,378.6,389.5,378.6,389.4,378.5z"/>
					<path id="path147_1_" class="st28" d="M389.9,376.7h20.3c0.7,0,1.3,0.5,1.3,0.9s-0.6,0.9-1.3,0.9h-20.3c-0.7,0-1.3-0.5-1.3-0.9
						C388.7,377.1,389.2,376.7,389.9,376.7z"/>
					<path id="path149_1_" class="st28" d="M386.2,389.3H414v-6.9h-27.7V389.3z"/>
				</g>
				<path id="path153_1_" class="st26" d="M390.1,375.6h19.7v-94.1h-19.7V375.6z"/>
				<path id="path155_1_" class="st29" d="M404.3,281.6v93.9 M406.4,281.6v93.9"/>
				<g id="g165_1_">
					<path id="path157_1_" class="st28" d="M386.6,274.1h27v-6.9h-27V274.1z"/>
					<path id="path159_1_" class="st27" d="M389.4,278.6c0.1-0.1,0.2-0.1,0.5-0.1h20.3c0.2,0,0.4,0,0.6,0.1
						c-0.7-0.2-1.2-0.8-1.2-1.6s0.6-1.4,1.3-1.6c-0.1,0-0.4,0.1-0.6,0.1H390c-0.2,0-0.4,0-0.6-0.1h0.1c0.7,0.2,1.2,0.8,1.2,1.5
						C390.6,277.7,390.1,278.4,389.4,278.6L389.4,278.6z"/>
					<path id="path161_1_" class="st28" d="M389.9,278.5h20.3c0.7,0,1.3,0.5,1.3,0.9c0,0.6-0.6,0.9-1.3,0.9h-20.3
						c-0.7,0-1.3-0.5-1.3-0.9C388.7,279,389.2,278.5,389.9,278.5z"/>
					<path id="path163_1_" class="st28" d="M389.9,274.1h20.3c0.7,0,1.3,0.3,1.3,0.8c0,0.5-0.6,0.8-1.3,0.8h-20.3
						c-0.7,0-1.3-0.3-1.3-0.8C388.7,274.4,389.2,274.1,389.9,274.1z"/>
				</g>
			</g>
		</g>
		<g id="ribbon_right" transform="matrix(-1,0,0,1,500.57,0)">
			<g id="ribbon_left_1_">
				<path id="path168_1_" class="st30" d="M86.5,358.7c0,2.1-1.1,4-2.7,5.3c0.9-1.1-0.2-3.4-2.2-4.8c-1.2-0.8-2.1-1.4-2.2-2.1
					c-0.2-0.8,1.7-2.4,4.4-3.9C85.3,354.5,86.5,356.6,86.5,358.7z"/>
				<path id="path170_1_" class="st31" d="M129.6,317.7V306c-4.4-1.6-11.7-2.6-20.1-2.6c-3.4,0-7.4,0.2-11.6,0.9
					c-13.1,2.1-23.1,7.2-22.3,11.4c0.1,0.3,4.5,10.1,4.5,10.1c-0.1-0.1-0.1-0.2-0.1-0.3c-0.7-3.7,8.3-8.3,20.1-10.2
					c3.3-0.5,6.5-0.8,9.4-0.8C117.9,314.7,125.4,316,129.6,317.7"/>
				<path id="path172_1_" class="st30" d="M89.8,329.5v-9.2c-1.7,0-3.4-0.2-4.8-0.3c-3.3,1.7-5.2,3.8-4.8,5.5
					C80.6,327.7,84.3,329.1,89.8,329.5"/>
				<path id="path174_1_" class="st30" d="M109.5,322.3l0,9.2c5.1-2.9,8-5.4,7.4-6.7l-0.1-0.2C115.5,323.6,112.9,322.7,109.5,322.3"
					/>
				<path id="path176_1_" class="st31" d="M77.5,347.6l1.8,9.6c-0.5-1.3,5-4.8,10.5-6.7c3.1-1,9.6-3.3,12.6-4.8
					c9.7-4.5,16.8-9.6,15.8-11.4c0,0-0.8-9.3-1.4-9.8l0.1,0.2c0.9,2-6.7,7.1-17.2,11.6c-3.5,1.5-6.4,2.8-9.8,3.9
					C82.3,343,77,346.1,77.5,347.6L77.5,347.6z"/>
			</g>
		</g>
		<g id="plus_ultra">
			<path id="path250" class="st2" d="M207.6,312.2c2.4-0.8,4-1.8,3.2-3.7c-0.5-1.1-1.8-1.4-3.7-0.7l-3.3,1.1l2.9,7.1
				c0.4-0.1,0.7-0.2,0.9-0.5c0.4-0.1,0.7-0.2,1.1-0.3L207.6,312.2L207.6,312.2z M206.2,308.7l0.8-0.3c0.7-0.2,1.4,0.1,1.8,0.9
				c0.2,0.6,0.2,1.4-0.6,1.8c-0.2,0.1-0.6,0.2-0.8,0.3L206.2,308.7"/>
			<path id="path252" class="st2" d="M215.3,305.8c-0.4,0.1-0.7,0.2-1.1,0.2c-0.4,0.1-0.7,0.1-1.1,0.1l1.8,7.5l5.3-1
				c-0.1-0.1-0.1-0.3-0.1-0.5s0-0.3,0-0.5c-0.9,0.2-2,0.6-3.2,0.8L215.3,305.8"/>
			<path id="path254" class="st2" d="M226,312.2c0.9-2.6,2.2-5.3,3.4-7.9c-0.2,0-0.5,0.1-0.7,0.1c-0.2,0-0.5,0-0.7,0
				c-0.6,2-1.4,3.8-2.2,5.6c-0.9-1.8-2.1-3.6-2.9-5.3c-0.5,0-0.8,0.1-1.3,0.1c-0.5,0-0.8,0-1.3,0c1.5,2.4,3.1,4.8,4.4,7.3
				c0.2,0,0.4-0.1,0.6-0.1C225.6,312.2,225.8,312.2,226,312.2"/>
			<path id="path256" class="st2" d="M237.1,306.5c0.2-0.3,0.4-0.7,0.6-1c-0.2-0.2-1.2-0.7-2.2-0.7c-2.1-0.2-3.4,0.7-3.5,2
				c-0.4,2.6,4,2.4,3.8,4.2c-0.1,0.8-0.9,1-1.8,1c-0.9-0.1-1.8-0.6-1.9-1.4h-0.2c-0.1,0.5-0.4,0.9-0.6,1.4c0.6,0.5,1.4,0.6,2.2,0.7
				c2.2,0.2,3.9-0.7,4-2.1c0.2-2.5-4.1-2.6-3.9-4.1c0.1-0.6,0.6-1,1.7-0.9c0.8,0.1,1.3,0.5,1.5,1.1L237.1,306.5"/>
			<path id="path258" class="st2" d="M382.3,312.6c0.7-2.8,1.8-5.4,2.7-8.1c-0.2,0.1-0.5,0.1-0.6,0.1c-0.2,0-0.5,0-0.7,0.1
				c-0.5,2-1.1,3.9-1.8,5.9c-1.2-1.7-2.5-3.3-3.4-5c-0.5,0.1-0.8,0.2-1.3,0.2c-0.5,0.1-0.8,0.1-1.3,0.1c1.8,2.3,3.4,4.6,5.1,7
				c0.2,0,0.4-0.1,0.6-0.1C382,312.6,382.2,312.6,382.3,312.6"/>
			<path id="path260" class="st2" d="M389.9,304.6c-0.4,0-0.7,0-1.1,0s-0.7,0-1.1-0.1l-0.1,7.6l5.4,0.1c0-0.1-0.1-0.3-0.1-0.5
				s0-0.3,0.1-0.5c-0.9,0.1-2,0.1-3.3,0.1L389.9,304.6"/>
			<path id="path262" class="st2" d="M398.4,305.7c0.8,0.1,1.8,0.2,2.6,0.3c0-0.1,0-0.3,0-0.5c0-0.1,0.1-0.3,0.1-0.5l-7.3-0.6
				c0,0.1,0,0.3,0,0.5s-0.1,0.3-0.1,0.5c0.7,0,1.7,0,2.7,0.1l-0.6,6.8c0.4,0,0.7,0,1.1,0c0.4,0,0.7,0.1,1.1,0.1L398.4,305.7"/>
			<path id="path264" class="st2" d="M401.5,313.2c0.4,0.1,0.7,0.1,1.1,0.2c0.4,0.1,0.7,0.2,1.1,0.2l0.8-3.4h0.1
				c0.2,0.5,0.5,1,0.6,1.4l1.1,2.6c0.5,0.1,0.8,0.1,1.3,0.2s0.8,0.2,1.3,0.3l-0.4-0.8c-0.6-1.1-1.2-2.4-1.8-3.6
				c1.4,0,2.4-0.5,2.7-1.5c0.2-0.7-0.1-1.3-0.8-1.8c-0.6-0.3-1.5-0.6-2.2-0.7l-2.9-0.6L401.5,313.2 M405.2,306.9
				c0.8,0.2,1.9,0.3,1.9,1.3c0,0.2,0,0.5-0.1,0.6c-0.2,1.1-1.2,1.5-2.6,1L405.2,306.9"/>
			<path id="path266" class="st2" d="M415.5,315.5c-0.1,0.8-0.2,1.6-0.4,2.5c0.4,0.1,0.7,0.3,1.1,0.6c0.4,0.2,0.7,0.5,1.1,0.6
				l0.7-8.5c-0.1-0.1-0.4-0.1-0.5-0.2c-0.1-0.1-0.4-0.2-0.5-0.2l-7.8,4.8c0.2,0.1,0.5,0.2,0.6,0.3c0.2,0.1,0.4,0.2,0.6,0.3
				c0.7-0.6,1.3-0.9,2.1-1.5L415.5,315.5L415.5,315.5z M413.2,313.5l2.6-1.6l-0.4,2.9L413.2,313.5"/>
		</g>
	</g>
	<g id="crown_crest">
		<path id="path270" class="st6" d="M308.7,215.4c8,0,15.2,1.1,19.9,3c2.7,1.1,6.3,2.1,10.1,2.5c2.9,0.3,5.9,0.5,8.4,0.2
			c3.3-0.1,8.1,0.9,12.9,3c4,1.7,7.3,3.8,9.4,5.9l-1.9,1.6l-0.6,4.7l-5.2,5.9l-2.6,2.2l-6.1,4.8l-3.2,0.2L349,252l-40-4.6l-40.1,4.6
			l-0.9-2.6l-3.2-0.2l-6.1-4.8l-2.6-2.2l-5.2-5.9l-0.6-4.7l-1.9-1.6c2.2-2.1,5.5-4.1,9.4-5.9c4.8-2.1,9.6-3,12.9-3
			c2.5,0.2,5.3,0.1,8.4-0.2c3.9-0.6,7.5-1.4,10.1-2.5C293.9,216.6,300.6,215.4,308.7,215.4L308.7,215.4z"/>
		<g id="g296">
			<path id="path272" class="st28" d="M279.2,225.6l1.7,1.3l2.5-4c-2.7-1.6-4.6-4.5-4.6-7.7c0-0.3,0-0.7,0.1-1
				c0.2-5.2,6.7-9.4,14.9-9.4c4.2,0,8,1.1,10.7,3c0.1-0.8,0.1-1.5,0.2-2.2c-2.9-1.7-6.8-2.6-11-2.6c-9.3,0-16.6,5.2-17,11.4
				c0,0.3-0.1,0.7-0.1,1c0,3.2,1.5,6.2,4,8.3L279.2,225.6"/>
			<path id="path274" class="st28" d="M279.2,225.8c-3.2-2.3-5.2-5.5-5.2-8.9c0-4,2.7-7.6,6.7-10c-2.5,2-4,4.5-4.2,7.3
				c0,0.3-0.1,0.7-0.1,1c0,3.2,1.5,6.2,4,8.3L279.2,225.8"/>
			<path id="path276" class="st28" d="M251.1,229.8c-1.8-2-2.9-4.5-2.9-7.2c0-1.7,0.4-3.2,1.1-4.7c2.6-5.2,10.7-8.9,20.4-8.9
				c2.6,0,5.2,0.2,7.4,0.8c-0.5,0.6-0.9,1.1-1.3,1.7c-1.9-0.3-4-0.6-6.1-0.6c-8.8,0-16.3,3.3-18.4,7.8c-0.6,1.1-0.9,2.4-0.9,3.8
				c0,2.8,1.3,5.2,3.4,6.9l-3.2,5l-1.8-1.4L251.1,229.8z"/>
			<path id="path278" class="st28" d="M254.4,212.8c-2.4,1.4-4.1,3.2-5.1,5.2c-0.7,1.4-1.1,3-1.1,4.7c0,2.8,1.1,5.3,2.9,7.2
				l-1.9,3.1c-1.9-2.3-2.9-5-2.9-7.9C246.2,220,249.4,215.7,254.4,212.8L254.4,212.8z"/>
			<path id="path280" class="st28" d="M309.2,201.9c2.1,0,4,1.4,4.4,3.2c0.2,1.6,0.5,3.4,0.5,5.5c0,0.2,0,0.5,0,0.6
				c0,0.2,0,0.5,0.1,0.7c0.1,4.1,0.7,7.8,1.5,10.1l-6.5,6.1l-6.6-6.1c0.8-2.3,1.5-5.9,1.5-10.1c0-0.2,0-0.5,0-0.7c0-0.2,0-0.5,0-0.6
				c0-2,0.2-3.8,0.5-5.5C305.1,203.3,307.1,201.9,309.2,201.9L309.2,201.9z"/>
			<path id="path282" class="st28" d="M309.2,203.8c1.1,0,2,0.7,2.2,1.6c0.2,1.5,0.5,3.3,0.5,5.2c0,0.2,0,0.3,0,0.6
				c0,0.2,0,0.5,0,0.7c0.1,3.9,0.6,7.3,1.4,9.5l-4.2,3.9l-4.2-3.9c0.8-2.2,1.4-5.6,1.4-9.5c0-0.2,0-0.5,0-0.7s0-0.3,0-0.6
				c0-1.8,0.2-3.7,0.5-5.2C307.1,204.5,308,203.8,309.2,203.8z"/>
			<path id="path284" class="st28" d="M339.2,225.6l-1.7,1.3l-2.5-4c2.7-1.6,4.6-4.5,4.6-7.7c0-0.3,0-0.7-0.1-1
				c-0.2-5.2-6.7-9.4-14.9-9.4c-4.2,0-8,1.1-10.7,3c-0.1-0.8-0.1-1.5-0.2-2.2c2.9-1.7,6.8-2.6,11-2.6c9.3,0,16.6,5.2,17,11.4
				c0,0.3,0.1,0.7,0.1,1c0,3.2-1.5,6.2-4,8.3L339.2,225.6"/>
			<path id="path286" class="st28" d="M339.1,225.8c3.2-2.3,5.2-5.5,5.2-8.9c0-4-2.7-7.6-6.7-10c2.5,2,4,4.5,4.2,7.3
				c0,0.3,0.1,0.7,0.1,1c0,3.2-1.5,6.2-4,8.3L339.1,225.8"/>
			<path id="path288" class="st28" d="M367.2,229.8c1.8-2,2.9-4.5,2.9-7.2c0-1.7-0.4-3.2-1.1-4.7c-2.6-5.2-10.7-8.9-20.4-8.9
				c-2.6,0-5.2,0.2-7.4,0.8c0.5,0.6,0.9,1.1,1.3,1.7c1.9-0.3,4-0.6,6.1-0.6c8.8,0,16.2,3.3,18.4,7.8c0.6,1.1,0.9,2.4,0.9,3.8
				c0,2.8-1.3,5.2-3.4,6.9l3.2,5l1.8-1.4L367.2,229.8z"/>
			<path id="path290" class="st28" d="M363.9,212.8c2.4,1.4,4.1,3.2,5.1,5.2c0.7,1.4,1.1,3,1.1,4.7c0,2.8-1.1,5.3-2.9,7.2l1.9,3.1
				c1.9-2.3,2.9-5,2.9-7.9C372.1,220,368.9,215.7,363.9,212.8L363.9,212.8z"/>
			<ellipse id="ellipse292" class="st36" cx="309.2" cy="197.2" rx="5.4" ry="4.9"/>
			<path id="path294" class="st1" d="M307.8,183.3v2.6h-2.9v2.8h2.9v3.7v4.1h-3.7c0,0.2-0.2,0.5-0.2,0.7c0,0.7,0.1,1.4,0.5,2l0,0
				h9.9l0,0c0.2-0.6,0.5-1.3,0.5-2c0-0.2-0.2-0.5-0.2-0.7H311v-4v-3.8h2.9v-2.8h-3.2v-2.6H307.8z"/>
		</g>
		<g id="g412">
			<ellipse id="ellipse298" class="st37" cx="309.2" cy="222.8" rx="2.4" ry="2.2"/>
			<ellipse id="ellipse300" class="st37" cx="309.2" cy="218.6" rx="2.4" ry="2.2"/>
			<ellipse id="ellipse302" class="st37" cx="309.2" cy="214.1" rx="1.9" ry="1.7"/>
			<ellipse id="ellipse304" class="st37" cx="309.2" cy="210" rx="1.3" ry="1.3"/>
			<ellipse id="ellipse306" class="st37" cx="309.2" cy="206.5" rx="1.1" ry="1"/>
			<ellipse id="ellipse308" class="st37" cx="247.2" cy="234.2" rx="1.3" ry="1.3"/>
			<ellipse id="ellipse310" class="st37" cx="245.3" cy="231.1" rx="1.3" ry="1.3"/>
			<ellipse id="ellipse312" class="st37" cx="244.1" cy="227.5" rx="1.3" ry="1.3"/>
			<ellipse id="ellipse314" class="st37" cx="244" cy="223.6" rx="1.3" ry="1.3"/>
			<ellipse id="ellipse316" class="st37" cx="244.9" cy="219.8" rx="1.3" ry="1.3"/>
			<ellipse id="ellipse318" class="st37" cx="246.9" cy="216.2" rx="1.3" ry="1.3"/>
			<ellipse id="ellipse320" class="st37" cx="249.8" cy="213.4" rx="1.3" ry="1.3"/>
			<ellipse id="ellipse322" class="st37" cx="252.9" cy="211.1" rx="1.3" ry="1.3"/>
			<ellipse id="ellipse324" class="st37" cx="256.7" cy="209.1" rx="1.3" ry="1.3"/>
			<ellipse id="ellipse326" class="st37" cx="260.6" cy="207.7" rx="1.3" ry="1.3"/>
			<ellipse id="ellipse328" class="st37" cx="265" cy="206.9" rx="1.3" ry="1.3"/>
			<ellipse id="ellipse330" class="st37" cx="269.2" cy="206.7" rx="1.3" ry="1.3"/>
			<ellipse id="ellipse332" class="st37" cx="273.2" cy="206.8" rx="1.3" ry="1.3"/>
			<ellipse id="ellipse334" class="st37" cx="277.8" cy="224.4" rx="1.3" ry="1.3"/>
			<ellipse id="ellipse336" class="st37" cx="275.6" cy="221.3" rx="1.3" ry="1.3"/>
			<ellipse id="ellipse338" class="st37" cx="274.3" cy="217.8" rx="1.3" ry="1.3"/>
			<ellipse id="ellipse340" class="st37" cx="274.5" cy="214.1" rx="1.3" ry="1.3"/>
			<ellipse id="ellipse342" class="st37" cx="275.4" cy="210.3" rx="1.3" ry="1.3"/>
			<ellipse id="ellipse344" class="st37" cx="277.4" cy="206.8" rx="1.3" ry="1.3"/>
			<ellipse id="ellipse346" class="st37" cx="280.4" cy="204.5" rx="1.3" ry="1.3"/>
			<ellipse id="ellipse348" class="st37" cx="284.1" cy="202.6" rx="1.3" ry="1.3"/>
			<ellipse id="ellipse350" class="st37" cx="288.1" cy="201.3" rx="1.3" ry="1.3"/>
			<ellipse id="ellipse352" class="st37" cx="292.3" cy="200.6" rx="1.3" ry="1.3"/>
			<ellipse id="ellipse354" class="st37" cx="296.4" cy="200.7" rx="1.3" ry="1.3"/>
			<ellipse id="ellipse356" class="st37" cx="300.6" cy="201.4" rx="1.3" ry="1.3"/>
			<ellipse id="ellipse358" class="st37" cx="304.6" cy="202.7" rx="1.3" ry="1.3"/>
			<ellipse id="ellipse360" class="st37" cx="313.8" cy="202.7" rx="1.3" ry="1.3"/>
			<ellipse id="ellipse362" class="st37" cx="317.7" cy="201.4" rx="1.3" ry="1.3"/>
			<ellipse id="ellipse364" class="st37" cx="321.9" cy="200.7" rx="1.3" ry="1.3"/>
			<ellipse id="ellipse366" class="st37" cx="326.1" cy="200.6" rx="1.3" ry="1.3"/>
			<ellipse id="ellipse368" class="st37" cx="330.2" cy="201.3" rx="1.3" ry="1.3"/>
			<ellipse id="ellipse370" class="st37" cx="334.2" cy="202.6" rx="1.3" ry="1.3"/>
			<ellipse id="ellipse372" class="st37" cx="337.9" cy="204.5" rx="1.3" ry="1.3"/>
			<ellipse id="ellipse374" class="st37" cx="340.9" cy="206.8" rx="1.3" ry="1.3"/>
			<ellipse id="ellipse376" class="st37" cx="342.9" cy="210.3" rx="1.3" ry="1.3"/>
			<ellipse id="ellipse378" class="st37" cx="343.9" cy="214.1" rx="1.3" ry="1.3"/>
			<ellipse id="ellipse380" class="st37" cx="344" cy="217.8" rx="1.3" ry="1.3"/>
			<ellipse id="ellipse382" class="st37" cx="342.7" cy="221.3" rx="1.3" ry="1.3"/>
			<ellipse id="ellipse384" class="st37" cx="340.5" cy="224.4" rx="1.3" ry="1.3"/>
			<ellipse id="ellipse386" class="st37" cx="345.1" cy="206.8" rx="1.3" ry="1.3"/>
			<ellipse id="ellipse388" class="st37" cx="349.2" cy="206.7" rx="1.3" ry="1.3"/>
			<ellipse id="ellipse390" class="st37" cx="353.3" cy="206.9" rx="1.3" ry="1.3"/>
			<ellipse id="ellipse392" class="st37" cx="357.7" cy="207.7" rx="1.3" ry="1.3"/>
			<ellipse id="ellipse394" class="st37" cx="361.7" cy="209.1" rx="1.3" ry="1.3"/>
			<ellipse id="ellipse396" class="st37" cx="365.5" cy="211.1" rx="1.3" ry="1.3"/>
			<ellipse id="ellipse398" class="st37" cx="368.7" cy="213.4" rx="1.3" ry="1.3"/>
			<ellipse id="ellipse400" class="st37" cx="371.4" cy="216.2" rx="1.3" ry="1.3"/>
			<ellipse id="ellipse402" class="st37" cx="373.4" cy="219.8" rx="1.3" ry="1.3"/>
			<ellipse id="ellipse404" class="st37" cx="374.3" cy="223.6" rx="1.3" ry="1.3"/>
			<ellipse id="ellipse406" class="st37" cx="374.2" cy="227.5" rx="1.3" ry="1.3"/>
			<ellipse id="ellipse408" class="st37" cx="373" cy="231.1" rx="1.3" ry="1.3"/>
			<ellipse id="ellipse410" class="st37" cx="371.1" cy="234.2" rx="1.3" ry="1.3"/>
		</g>
		<g id="g462">
			<path id="path414" class="st28" d="M309.3,266.7c-14.9,0-28.2-1.7-37.7-4.5c-0.7-0.2-1.1-0.8-1.1-1.5c0-0.6,0.4-1.1,1.1-1.4
				c9.6-2.8,22.9-4.5,37.7-4.5s28.2,1.7,37.7,4.5c0.7,0.2,1.1,0.8,1.1,1.4c0,0.7-0.4,1.3-1.1,1.5C337.5,265,324.2,266.7,309.3,266.7
				"/>
			<path id="path416" class="st28" d="M309.2,254.8c-15.1,0-28.5,1.8-38.1,4.7c0.8-0.3,0.7-1.4-0.2-3.8c-1.2-3-3.1-2.9-3.1-2.9
				c10.5-3,25.1-4.9,41.5-4.9c16.3,0,31.1,2,41.6,4.9c0,0-1.9-0.1-3.1,2.9c-0.9,2.4-1.1,3.4-0.2,3.8
				C338.1,256.7,324.3,254.9,309.2,254.8"/>
			<path id="path418" class="st28" d="M309.3,248c-16.3,0-31,2-41.5,4.9c-0.7,0.2-1.4-0.1-1.7-0.7c-0.2-0.6,0.1-1.4,0.8-1.6
				c10.6-3.1,25.6-5.2,42.3-5.2c16.8,0,31.8,2.1,42.3,5.2c0.7,0.2,1.1,0.9,0.8,1.6c-0.2,0.7-0.9,0.9-1.7,0.7
				C340.4,250,325.6,248,309.3,248"/>
			<path id="path420" class="st28" d="M309.3,235.6l1.5,0.2c-0.2,0.6-0.2,1.3-0.2,2c0,3,2.7,5.5,6,5.5c2.6,0,5-1.6,5.7-3.8
				c0.1,0.1,0.6-2,0.8-2s0.2,2.2,0.2,2.1c0.4,2.8,2.9,4.6,5.9,4.6c3.3,0,6-2.4,6-5.5c0-0.2,0-0.5,0-0.7l1.9-1.8l1.1,2.3
				c-0.4,0.7-0.6,1.5-0.6,2.4c0,2.9,2.6,5.3,5.7,5.3c2,0,3.8-0.9,4.7-2.3l1.2-1.5v1.8c0,1.8,0.8,3.4,2.6,3.8c0,0,2.1,0.1,4.8-2.1
				c2.8-2.2,4.4-3.9,4.4-3.9l0.2,2.2c0,0-2.4,3.4-4.8,4.9c-1.4,0.8-3.4,1.6-5.2,1.4c-1.8-0.2-3.1-1.6-3.7-3.2
				c-1.3,0.7-2.7,1.1-4.4,1.1c-3.4,0-6.5-1.8-7.7-4.6c-1.5,1.6-3.8,2.6-6.4,2.6c-2.7,0-5.2-1.1-6.7-3c-1.5,1.4-3.7,2.2-5.9,2.2
				c-3.1,0-5.7-1.5-7.2-3.6c-1.5,2.2-4.2,3.6-7.2,3.6c-2.2,0-4.4-0.8-5.9-2.2c-1.5,1.8-4,3-6.7,3c-2.6,0-4.7-1-6.3-2.6
				c-1.2,2.8-4.2,4.6-7.7,4.6c-1.5,0-3.1-0.5-4.4-1.1c-0.7,1.6-1.9,3-3.7,3.2c-1.7,0.2-3.8-0.6-5.1-1.4c-2.5-1.4-4.8-4.9-4.8-4.9
				l0.2-2.2c0,0,1.5,1.7,4.4,3.9c2.8,2.2,4.8,2.1,4.8,2.1c1.9-0.3,2.6-2,2.6-3.8v-1.8l1.2,1.5c1.1,1.4,2.7,2.3,4.7,2.3
				c3.2,0,5.7-2.3,5.7-5.3c0-0.9-0.1-1.7-0.6-2.4l1.1-2.3l1.9,1.8c0,0.2,0,0.5,0,0.7c0,3,2.7,5.5,6,5.5c2.9,0,5.5-1.8,5.9-4.6
				c0.1,0,0.1-2.1,0.2-2.1c0.2,0,0.7,2.1,0.8,2c0.8,2.2,3.1,3.8,5.7,3.8c3.3,0,6-2.4,6-5.5c0-0.7,0-1.4-0.2-2L309.3,235.6"/>
			<path id="path422" class="st28" d="M258.6,243.3c-0.1-0.5-0.5-0.9-0.8-1.3c-0.9-0.8-2.2-0.9-2.8-0.3c-0.1,0.1-0.1,0.2-0.2,0.3
				c0,0-1.3-2.4-2.9-3.3c-1.5-0.8-4.2-0.6-4.2-0.6c0-1.8,1.5-3.4,3.7-3.4c1.2,0,2.4,0.5,3.1,1.3l0.2-1.3c0,0,1.7,0.3,2.4,2.2
				s-0.1,4.5-0.1,4.5s0.5-1.1,1.1-2c0.6-0.8,2.2-1.6,3.1-2c0.8-0.3,1.7-0.9,1.7-0.9s0,0.2,0.1,0.7c0,0.6,0,1,0,1
				c1.5-0.2,3.3,0,4.6,0.6c-0.6,1.1-1.8,2.2-3.2,2.8c0,0,0.6,0.5,1.1,0.9c0.5,0.5,0.6,0.6,0.6,0.6s-1.1,0.1-1.5,0.2
				c-0.5,0.1-2.2,0.3-3.3,0.2C259.9,243.5,259.1,243.4,258.6,243.3"/>
			<path id="path424" class="st30" d="M254.8,241.7c0.6-0.7,1.9-0.5,2.8,0.3c0.9,0.8,1.3,2,0.6,2.6c-0.6,0.7-1.9,0.5-2.8-0.3
				C254.5,243.5,254.2,242.4,254.8,241.7"/>
			<path id="path426" class="st37" d="M268.3,242.9c-0.4-1,0-2,0.7-2.2c0.7-0.2,1.7,0.3,1.9,1.4c0.2,1,0,2-0.7,2.2
				C269.6,244.5,268.6,243.8,268.3,242.9"/>
			<path id="path428" class="st28" d="M280.2,238c-0.4-0.3-0.7-0.8-0.8-1.3c-0.1-0.5,0-1,0.2-1.5c0,0-1.1-0.6-2.2-0.8
				c-0.8-0.2-2.4-0.2-2.8-0.2s-1.4,0-1.4,0s0.1,0.2,0.4,0.7c0.4,0.6,0.6,0.9,0.6,0.9c-1.5,0.3-2.8,1.4-3.7,2.5
				c1.2,0.8,2.8,1.3,4.4,1.1c0,0-0.1,0.5-0.2,1c-0.1,0.5-0.1,0.7-0.1,0.7s0.8-0.3,1.3-0.5c0.5-0.1,1.9-0.7,2.6-1.1
				C279.4,238.8,280.2,238,280.2,238"/>
			<path id="path430" class="st28" d="M279.6,226c1.3,0.8,2.4,2.1,2.8,3.6c0,0,0.1-0.3,0.8-0.7c0.7-0.3,1.3-0.3,1.3-0.3
				s-0.2,1.1-0.4,1.6s-0.1,1.6-0.4,2.8c-0.2,1.1-0.7,2-0.7,2c-0.5-0.5-1.2-0.6-1.9-0.5c-0.7,0.1-1.3,0.6-1.7,1c0,0-0.8-0.7-1.4-1.6
				c-0.7-0.9-1.2-2.1-1.4-2.4c-0.2-0.3-0.8-1.4-0.8-1.4s0.6-0.2,1.4-0.1c0.8,0.1,1.1,0.3,1.1,0.3C278.2,228.7,278.7,227.1,279.6,226
				"/>
			<path id="path432" class="st28" d="M283.6,237.5c0.2-0.5,0.4-0.9,0.2-1.5c-0.1-0.6-0.4-0.9-0.8-1.3c0,0,0.8-0.8,1.8-1.5
				c0.7-0.5,2.2-0.9,2.6-1.1c0.5-0.1,1.3-0.5,1.3-0.5s0,0.2-0.1,0.7c-0.1,0.6-0.2,1-0.2,1c1.5-0.1,3.2,0.3,4.4,1.1
				c-0.8,1.1-2.1,2.1-3.7,2.4c0,0,0.2,0.3,0.6,0.9c0.2,0.5,0.4,0.7,0.4,0.7s-0.9,0-1.4,0c-0.5,0-2,0-2.8-0.2
				C284.7,238,283.6,237.5,283.6,237.5"/>
			<ellipse id="ellipse434" class="st30" cx="281.6" cy="236.3" rx="2.6" ry="2.4"/>
			<path id="path436" class="st37" d="M294.2,237.9c-0.1-1,0.4-2,1.2-2.1c0.7-0.1,1.5,0.7,1.7,1.7c0.1,1-0.4,2-1.2,2.1
				C295.2,239.8,294.5,239,294.2,237.9"/>
			<path id="path438" class="st28" d="M307.3,235.6c-0.4-0.5-0.6-0.9-0.6-1.6c0-0.6,0.2-1.1,0.6-1.6c0,0-1.1-0.8-2.2-1.4
				c-0.9-0.5-2.6-0.7-3.2-0.8c-0.5-0.1-1.5-0.2-1.5-0.2s0,0.2,0.2,0.8c0.2,0.7,0.5,1.1,0.5,1.1c-1.8,0.1-3.4,0.9-4.6,2.1
				c1.2,1.1,2.8,2,4.6,2.1c0,0-0.2,0.5-0.5,1.1c-0.2,0.6-0.2,0.8-0.2,0.8s1.1-0.2,1.5-0.2c0.5-0.1,2.2-0.3,3.2-0.8
				C306.3,236.4,307.3,235.6,307.3,235.6"/>
			<path id="path440" class="st28" d="M309.3,222.1c1.3,1.1,2.2,2.8,2.4,4.5c0,0,0.2-0.3,1.1-0.6c0.9-0.3,1.5-0.2,1.5-0.2
				s-0.5,1.3-0.7,1.7c-0.2,0.5-0.5,1.8-1.1,3c-0.6,1.1-1.3,2.1-1.3,2.1c-0.5-0.6-1.2-0.9-2-0.9c-0.8,0-1.5,0.3-2,0.9
				c0,0-0.7-0.9-1.3-2.1c-0.6-1.1-0.8-2.5-1.1-3c-0.2-0.5-0.7-1.7-0.7-1.7s0.7-0.1,1.5,0.2s1.1,0.6,1.1,0.6
				C307.1,224.8,308,223.2,309.3,222.1"/>
			<path id="path442" class="st28" d="M311.3,235.6c0.4-0.5,0.6-0.9,0.6-1.6c0-0.6-0.2-1.1-0.6-1.6c0,0,1.1-0.8,2.4-1.4
				c0.9-0.5,2.6-0.7,3.2-0.8c0.5-0.1,1.5-0.2,1.5-0.2s0,0.2-0.2,0.8c-0.2,0.7-0.5,1.1-0.5,1.1c1.8,0.1,3.4,0.9,4.6,2.1
				c-1.2,1.1-2.8,2-4.6,2.1c0,0,0.2,0.5,0.5,1.1c0.2,0.6,0.2,0.8,0.2,0.8l-1.5-0.2c-0.5-0.1-2.2-0.3-3.2-0.8
				C312.4,236.4,311.3,235.6,311.3,235.6"/>
			<ellipse id="ellipse444" class="st30" cx="309.3" cy="234" rx="2.6" ry="2.4"/>
			<path id="path446" class="st37" d="M324.4,237.9c0.1-1-0.4-2-1.2-2.1c-0.7-0.1-1.5,0.7-1.7,1.7c-0.1,1,0.4,2,1.2,2.1
				C323.6,239.8,324.3,239,324.4,237.9"/>
			<path id="path448" class="st28" d="M335.2,237.5c-0.2-0.5-0.4-0.9-0.4-1.5c0.1-0.6,0.4-0.9,0.8-1.3c0,0-0.8-0.8-1.8-1.5
				c-0.7-0.5-2.2-0.9-2.6-1.1c-0.5-0.1-1.3-0.5-1.3-0.5s0,0.2,0.1,0.7c0.1,0.6,0.2,1,0.2,1c-1.5-0.1-3.2,0.3-4.4,1.1
				c0.8,1.1,2.1,2.1,3.7,2.4c0,0-0.2,0.3-0.6,0.9c-0.2,0.5-0.4,0.7-0.4,0.7h1.4c0.5,0,2,0,2.8-0.2C334,238,335,237.5,335.2,237.5"/>
			<path id="path450" class="st28" d="M339.1,226c-1.3,0.8-2.4,2.1-2.8,3.6c0,0-0.1-0.3-0.8-0.7c-0.7-0.3-1.3-0.3-1.3-0.3
				s0.2,1.1,0.4,1.6c0.1,0.5,0.1,1.6,0.4,2.8c0.2,1.1,0.8,2,0.8,2c0.5-0.5,1.2-0.6,1.9-0.5c0.7,0.1,1.3,0.6,1.7,1
				c0,0,0.8-0.7,1.4-1.6c0.7-0.9,1.1-2.1,1.4-2.4c0.2-0.3,0.8-1.4,0.8-1.4s-0.6-0.2-1.4-0.1c-0.8,0.1-1.1,0.3-1.1,0.3
				C340.6,228.7,340,227.1,339.1,226"/>
			<path id="path452" class="st28" d="M338.6,238c0.5-0.3,0.7-0.8,0.8-1.3c0.1-0.6,0-1-0.2-1.5c0,0,1.1-0.6,2.2-0.8
				c0.8-0.2,2.4-0.2,2.8-0.2s1.4,0,1.4,0s-0.1,0.2-0.4,0.7c-0.4,0.6-0.6,0.9-0.6,0.9c1.5,0.3,2.8,1.4,3.7,2.5
				c-1.2,0.8-2.8,1.3-4.4,1.1c0,0,0.1,0.5,0.2,1c0.1,0.5,0.1,0.7,0.1,0.7s-0.8-0.3-1.3-0.5s-1.9-0.7-2.6-1.1
				C339.4,238.8,338.6,238,338.6,238"/>
			<ellipse id="ellipse454" class="st30" cx="337" cy="236.3" rx="2.6" ry="2.4"/>
			<path id="path456" class="st37" d="M350.4,242.9c0.4-1,0-2-0.7-2.2c-0.7-0.2-1.7,0.3-2,1.4c-0.4,1,0,2,0.7,2.2
				C349.2,244.5,350,243.8,350.4,242.9"/>
			<path id="path458" class="st28" d="M360,243.3c0.1-0.5,0.5-0.9,0.8-1.3c0.9-0.8,2.2-0.9,2.8-0.3c0.1,0.1,0.1,0.2,0.2,0.3
				c0,0,1.3-2.4,2.9-3.3c1.5-0.8,4.2-0.6,4.2-0.6c0-1.8-1.5-3.4-3.7-3.4c-1.2,0-2.4,0.5-2.9,1.3l-0.2-1.3c0,0-1.7,0.3-2.4,2.2
				s0.1,4.5,0.1,4.5s-0.4-1.1-1.1-2c-0.6-0.8-2.2-1.6-3.1-2c-0.8-0.3-1.7-0.9-1.7-0.9s0,0.2-0.1,0.7c0,0.6,0,1,0,1
				c-1.5-0.2-3.3,0-4.6,0.6c0.6,1.1,1.7,2.2,3.2,2.8c0,0-0.5,0.5-1.1,0.9c-0.4,0.5-0.5,0.6-0.5,0.6s1.1,0.1,1.5,0.2
				c0.5,0.1,2.2,0.3,3.3,0.2C358.8,243.5,359.6,243.4,360,243.3"/>
			<path id="path460" class="st30" d="M363.8,241.7c-0.6-0.7-1.9-0.5-2.8,0.3c-0.9,0.8-1.3,2-0.6,2.6c0.6,0.7,1.9,0.5,2.8-0.3
				C364.2,243.5,364.4,242.4,363.8,241.7"/>
		</g>
		<g id="g522">
			<path id="path464" class="st31" d="M309.3,264.9c-13.4,0-25.6-1.5-34.8-3.9c9.2-2.3,21.4-3.8,34.8-3.8s25.7,1.5,34.9,3.8
				C334.9,263.4,322.8,264.9,309.3,264.9L309.3,264.9z"/>
			<path id="path466" class="st13" d="M318.9,264.5v-7.1 M315.2,264.8v-7.6 M312.5,264.9v-7.7"/>
			<path id="path468" class="st17" d="M310.3,265v-7.8"/>
			<path id="path470" class="st22" d="M308.1,265v-7.8"/>
			<path id="path472" class="st24" d="M306,265v-7.8"/>
			<path id="path474" class="st38" d="M304,265v-7.8"/>
			<path id="path476" class="st39" d="M302.2,265v-7.8"/>
			<path id="path478" class="st40" d="M298.8,264.5v-7 M300.5,264.7v-7.3"/>
			<path id="path480" class="st41" d="M295.6,264.2v-6.5 M297.2,264.4v-6.9"/>
			<path id="path482" class="st42" d="M291.4,263.8v-5.7 M292.7,264v-6 M294.2,264.1v-6.2"/>
			<path id="path484" class="st43" d="M289.9,263.7v-5.5"/>
			<path id="path486" class="st44" d="M288.4,263.5v-5.2"/>
			<path id="path488" class="st45" d="M286.9,263.4v-4.8"/>
			<path id="path490" class="st46" d="M283.8,262.9v-3.8 M285.5,263.2v-4.2"/>
			<path id="path492" class="st47" d="M282.3,262.6v-3.3"/>
			<path id="path494" class="st48" d="M280.9,262.4v-2.8"/>
			<path id="path496" class="st49" d="M279.4,262v-2.2"/>
			<path id="path498" class="st50" d="M277.7,261.8v-1.6"/>
			<path id="path500" class="st51" d="M276.1,261.4v-0.8"/>
			<path id="path502" class="st29" d="M272.9,261.4c9.4-2.5,22.2-4.1,36.4-4.1s27.1,1.6,36.4,4.1"/>
			<path id="path504" class="st30" d="M268.7,256.2l1.5-1.8l4.1,0.5l-3.3,2.3L268.7,256.2"/>
			<path id="path506" class="st37" d="M277.6,253.9c0-0.7,0.6-1.3,1.3-1.3c0.7,0,1.3,0.6,1.3,1.3s-0.6,1.3-1.3,1.3
				C278.2,255.1,277.6,254.6,277.6,253.9"/>
			<path id="path508" class="st52" d="M289.3,253.6l-2.8,0.3c-0.7,0.1-1.4-0.3-1.5-1c-0.1-0.7,0.5-1.3,1.2-1.4l2.8-0.3l2.9-0.3
				c0.7-0.1,1.4,0.3,1.5,1c0.1,0.7-0.5,1.3-1.2,1.4L289.3,253.6"/>
			<path id="path510" class="st37" d="M297.6,251.6c0-0.7,0.6-1.3,1.3-1.3s1.3,0.6,1.3,1.3c0,0.7-0.6,1.3-1.3,1.3
				S297.6,252.3,297.6,251.6"/>
			<path id="path512" class="st30" d="M309.3,252.6h-4c-0.7,0-1.3-0.6-1.3-1.3s0.6-1.3,1.3-1.3h8c0.7,0,1.3,0.6,1.3,1.3
				s-0.6,1.3-1.3,1.3H309.3"/>
			<path id="path514" class="st37" d="M318.3,251.6c0-0.7,0.6-1.3,1.3-1.3s1.3,0.6,1.3,1.3c0,0.7-0.6,1.3-1.3,1.3
				S318.3,252.3,318.3,251.6"/>
			<path id="path516" class="st52" d="M329.4,253.6l2.8,0.3c0.7,0.1,1.4-0.3,1.5-1c0.1-0.7-0.5-1.3-1.2-1.4l-2.8-0.3l-2.9-0.3
				c-0.7-0.1-1.4,0.3-1.5,1c-0.1,0.7,0.5,1.3,1.2,1.4L329.4,253.6"/>
			<path id="path518" class="st37" d="M338.3,253.9c0-0.7,0.6-1.3,1.3-1.3s1.3,0.6,1.3,1.3s-0.6,1.3-1.3,1.3
				S338.3,254.6,338.3,253.9"/>
			<path id="path520" class="st30" d="M349.9,256.2l-1.4-1.8l-4.1,0.5l3.3,2.3L349.9,256.2"/>
		</g>
	</g>
	<g id="shield">
		<g id="Granada">
			<path id="path525" class="st53" d="M309.7,406.3c-15.9,0-31.6-3.8-44.8-10.1c-9.8-4.7-16.3-14.2-16.3-25v-39.4h122v39.4
				c0,10.9-6.5,20.3-16.3,25C341.2,402.6,325.6,406.3,309.7,406.3L309.7,406.3z"/>
			<path id="path527" class="st54" d="M312.6,388.9c2.6,0.7,3.8,2.6,3.8,4.7c0,2.9-2.8,4.9-6.5,4.9s-6.6-2.2-6.6-4.9
				c0-2.1,1.2-4.5,3.8-4.7c0,0-0.1-0.2-0.2-0.6c-0.2-0.2-0.8-0.8-0.8-0.8s0.9-0.2,1.5,0c0.6,0.2,0.9,0.6,0.9,0.6s0.2-0.5,0.6-0.9
				c0.4-0.3,0.8-0.6,0.8-0.6s0.6,0.5,0.7,0.8c0.2,0.3,0.4,0.7,0.4,0.7s0.5-0.5,0.9-0.6c0.5-0.2,1.1-0.3,1.1-0.3s-0.1,0.6-0.2,0.8
				C312.6,388.2,312.6,388.9,312.6,388.9"/>
			<path id="path529" class="st55" d="M309.6,401.6c0,0-4.8-3.2-7-3.6c-2.7-0.6-5.7-0.1-7-0.2c0,0,1.5,1.1,2.2,1.7s2.9,2,4.1,2.3
				C305.9,402.8,309.6,401.6,309.6,401.6"/>
			<path id="path531" class="st55" d="M310.9,401.9c0,0,3.1-3.1,6.4-3.6c3.8-0.6,6.4,0.3,7.8,0.7c0,0-1.2,0.6-1.9,1
				c-0.7,0.5-2.4,1.8-5.1,1.8c-2.6,0-5.5-0.2-6-0.2C311.6,401.8,310.9,401.9,310.9,401.9"/>
			<path id="path533" class="st56" d="M309.9,398c-1.2-1.1-2-2.6-2-4.4c0-1.7,0.7-3.3,2-4.4c1.2,1.1,2,2.6,2,4.4
				C311.9,395.3,311.2,396.9,309.9,398"/>
			<path id="path535" class="st55" d="M308.7,404.4c0,0,0.7-1.8,0.8-3.3c0.1-1.3-0.2-2.5-0.2-2.5h0.6h0.4c0,0,0.5,1.4,0.5,2.5
				c0,1.3-0.2,2.8-0.2,2.8s-0.7,0.1-0.9,0.2C309.4,404.2,308.7,404.4,308.7,404.4"/>
		</g>
		<g id="Aragon">
			<path id="path538" class="st56" d="M309.6,371.1c0,15.5-13.6,28.1-30.4,28.1c-16.9,0-30.6-12.6-30.6-28.1v-39.4h61V371.1"/>
			<path id="path540" class="st57" d="M248.5,370.7c0.2,8.3,3.5,14.5,7,18.5v-58.4h-6.8L248.5,370.7z"/>
			<path id="path542" class="st57" d="M261.9,394.4c1.9,1,4.5,2.6,7.3,3.3l-0.2-67.2h-7.2v63.9H261.9z"/>
			<path id="path544" class="st57" d="M275.5,399.1c2.8,0.2,4.8,0.2,7.1,0v-68.7h-7.1V399.1z"/>
			<path id="path546" class="st57" d="M288.9,397.6c2.8-0.6,5.9-2.2,7.3-3.1v-64.1H289L288.9,397.6z"/>
			<path id="path548" class="st57" d="M302.8,388.5c2.9-2.5,5.8-8.4,6.8-15l0.1-43h-7.1L302.8,388.5z"/>
		</g>
		<g id="Navarre">
			<path id="path551" class="st56" d="M370.7,331.8v39.4c0,15.5-13.7,28.1-30.6,28.1c-16.9,0-30.6-12.6-30.6-28.1v-39.4H370.7"/>
			<path id="chains_half" class="st58" d="M336.7,361.3c0.1-0.1,0.1-0.3,0.2-0.5l-5.2-5.6l-2,0.8l-3.8-4l1.2-1.7l-6.5-7.1
				c-0.1,0-0.2,0-0.4,0v4.7l2.1,0.6v5.3l-2.1,0.6v4.8c1.1,0.3,1.8,1,2.1,2h3.9l0.6-2h5.8l0.6,2L336.7,361.3z M328.2,339.3v2h3.3v-2
				H328.2z M319.4,363.4c0.8,0,1.4-0.6,1.4-1.3s-0.6-1.3-1.4-1.3c-0.8,0-1.4,0.6-1.4,1.3C317.9,362.9,318.5,363.4,319.4,363.4z
				 M338.8,352l-2.1-0.6v-5.3l2.1-0.6v-2.3c-1.1-0.3-1.9-1-2.1-2h-3.3l-0.6,2h-5.7l-0.6-2h-3.8c-0.1,0.2-0.2,0.5-0.4,0.7l6.5,7
				l2-0.8l3.8,4l-1.2,1.7l5.1,5.5c0.1,0,0.2-0.1,0.4-0.1L338.8,352z M330,350.2l-1.5,1.3l2.1,2.3l1.5-1.3L330,350.2z M339.8,393
				c-1.5-0.1-2.7-1-3.1-2.4c-2-0.2-3.9-0.8-5.8-1.5l1.1-1.7c1.5,0.7,3.2,1,5,1.3c0.4-0.8,1.1-1.4,1.9-1.6v-6.7l-2.1-0.6v-5.3
				l2.1-0.6v-9.1c-0.1,0-0.1-0.1-0.2-0.1l-4.8,5.3l1.2,1.7l-3.8,4l-2-0.8l-4,4.4c0.7,1,0.7,2.4-0.1,3.3c1.2,1.3,2.5,2.3,3.9,3.2
				l-1.1,1.7c-1.8-1-3.3-2.3-4.6-3.8c-1.1,0.3-2.2,0.1-3.2-0.6c-1.4-1.1-1.5-3-0.4-4.2l0.1-0.2c-0.8-1.8-1.4-3.8-1.7-5.9h2.1
				c0.1,1.7,0.6,3.4,1.3,5c0.6-0.1,1.2,0,1.8,0.2l4-4.4l-1.2-1.7l3.8-4l2,0.8l4.8-5.3c-0.1-0.1-0.2-0.3-0.2-0.6h-3.3l-0.6,2h-5.8
				l-0.6-2h-3.9c-0.4,0.9-1.1,1.6-2,2v4.8h-2.1v-4.7c-1.3-0.3-2.4-1.5-2.4-2.9s0.9-2.5,2.4-3v-4.8l-2.1-0.6v-5.3l2.1-0.6v-4.8
				c-1.3-0.5-2.2-1.6-2.2-2.9c0-1.7,1.5-3.1,3.3-3.1c1.5,0,2.7,0.9,3.2,2.1h3.8l0.6-2h5.7l0.6,2h3.3c0.5-1.3,1.7-2.1,3.1-2.1
				l0.1,9.9h-1.1v3.1h1.1v25.5h-0.9v3.1h0.9L339.8,393z M332.6,371.4l-1.5-1.3l-2.1,2.3l1.5,1.3L332.6,371.4z M320.4,349.7h-2v3.1
				h2.1v-3.1H320.4z M331.5,363.1v-1.8h-3.4v1.8H331.5z M318.6,374.6l-2.1-0.5l-0.4-5.3l2.1-0.7v3
				C318.4,372.4,318.5,373.4,318.6,374.6L318.6,374.6z M320.4,368l2.1,0.5c0,0,0.1,3.4,0.1,2.6c0-0.9,0.2,2.6,0.2,2.6l-2.1,0.7
				c-0.2-1-0.2-2.2-0.2-3.3L320.4,368z M333.6,388l0.5-2.1c-1.9-0.6-3.5-1.4-5.1-2.5l-1.5,1.3C329.3,386.3,331.4,387.3,333.6,388
				L333.6,388z M332.6,389.7l-1.5,1.5c-1.8-0.7-3.4-1.5-5-2.5l0.5-2.1C328.2,387.9,330.3,389,332.6,389.7L332.6,389.7z"/>
			<g id="use554" transform="matrix(-1,0,0,1,550.43,0)">
				<path id="chains_half_1_" class="st58" d="M204.4,360.9l-0.7-1.9l-5.8,0.3l-0.5,2l-3.9,0.2c-0.4-0.9-1.1-1.6-2.2-1.9l-0.2-4.8
					l2.1-0.7l-0.3-5.3l-2.1-0.5l-0.2-4.7c0.1,0,0.2,0,0.4,0l6.8,6.8l-1.1,1.8l4,3.8l2-0.9l5.5,5.4c-0.1,0.1-0.1,0.3-0.2,0.5
					L204.4,360.9z M201.6,339.3l0.1,1.9l-3.3,0.1l-0.1-1.9L201.6,339.3z M189.2,362.7c0-0.7,0.5-1.3,1.4-1.3c0.8,0,1.4,0.5,1.5,1.2
					c0,0.7-0.5,1.3-1.4,1.3C189.9,364,189.2,363.4,189.2,362.7z M209.9,358.9c-0.1,0-0.2,0.1-0.3,0.1l-5.3-5.3l1.1-1.8l-3.8-3.8
					l-2,0.9l-6.8-6.7c0.1-0.2,0.2-0.5,0.3-0.7l3.8-0.2l0.7,1.9l5.7-0.3l0.5-2l3.3-0.1c0.3,0.9,1.1,1.6,2.2,1.9l0.1,2.3l-2.1,0.7
					l0.3,5.3l2.1,0.5L209.9,358.9z M202.8,352.5l-1.5,1.3l-2.2-2.2l1.5-1.3L202.8,352.5z M210.9,379l-0.9,0l0-3.1l0.9,0l0.1-25.5
					l-1.1,0l0-3.1l1.1,0l-0.1-9.9c-1.4,0-2.6,0.8-3.1,2l-3.3,0l-0.6-2l-5.7,0l-0.6,1.9l-3.8,0c-0.5-1.1-1.6-2.1-3.2-2.1
					c-1.8,0-3.3,1.4-3.3,3.1c0,1.3,0.9,2.4,2.2,2.9l0,4.8l-2.1,0.6l0,5.3l2.1,0.6l0,4.8c-1.4,0.5-2.4,1.6-2.4,3c0,1.4,1,2.5,2.3,2.9
					l0,4.7l2.1,0l0-4.8c0.9-0.3,1.7-1,2-1.9l3.9,0l0.6,2l5.8,0l0.6-1.9l3.3,0c0,0.2,0.1,0.5,0.2,0.6l-4.9,5.3l-2-0.8l-3.8,4l1.2,1.7
					l-4,4.3c-0.6-0.2-1.2-0.4-1.8-0.2c-0.7-1.6-1.2-3.3-1.3-5.1l-2.1,0c0.2,2.1,0.8,4,1.6,5.9l-0.1,0.2c-1.2,1.3-1.1,3.1,0.3,4.2
					c0.9,0.7,2.1,0.9,3.2,0.6c1.3,1.5,2.8,2.8,4.6,3.8l1.1-1.7c-1.4-0.9-2.7-2-3.9-3.2c0.8-0.9,0.8-2.3,0.1-3.3l4-4.3l2,0.8l3.8-4
					l-1.2-1.7l4.9-5.3c0.1,0,0.1,0.1,0.2,0.1l0,9.1l-2.1,0.6l0,5.3l2.1,0.6l0,6.7c-0.8,0.2-1.5,0.8-1.9,1.6
					c-1.8-0.2-3.4-0.6-4.9-1.3l-1.1,1.7c1.9,0.7,3.8,1.3,5.8,1.5c0.3,1.4,1.5,2.3,3.1,2.4L210.9,379z M202.2,373.6l-1.6-1.2l2-2.4
					l1.6,1.2L202.2,373.6z M191.2,353.2l-2,0.1l-0.1-3.1l2-0.1L191.2,353.2z M199.3,363.2l-0.1-1.8l3.4-0.2l0.1,1.8L199.3,363.2z
					 M190.5,375.1c-0.2-1.1-0.3-2.2-0.5-3.4l-0.1-3l-2.1,0.8l0.6,5.3L190.5,375.1L190.5,375.1z M192.2,371.6
					c0.1,1.1,0.1,2.3,0.4,3.3l2.1-0.8c0,0-0.4-3.5-0.4-2.6c0,0.8-0.2-2.6-0.2-2.6l-2.1-0.4L192.2,371.6z M206.1,387.8
					c-2.3-0.6-4.4-1.5-6.3-3l1.5-1.3c1.6,1.1,3.3,1.8,5.2,2.3L206.1,387.8L206.1,387.8z M205.1,389.6c-2.3-0.6-4.4-1.6-6.2-2.8
					l-0.4,2.1c1.6,1,3.3,1.7,5.1,2.3L205.1,389.6L205.1,389.6z"/>
			</g>
			<path id="path556" class="st59" d="M336.6,362.2c0-1.7,1.5-3.1,3.3-3.1c1.9,0,3.3,1.4,3.3,3.1c0,1.7-1.5,3.1-3.3,3.1
				C338.1,365.2,336.6,363.9,336.6,362.2"/>
		</g>
		<g id="Castile">
			<path id="path559" class="st56" d="M248.6,331.8h61v-65.9h-61V331.8z"/>
			<path id="path561" class="st60" d="M269.5,281.2h-1.1v-1h-2v4.4h2v3h-4.2v8.7h2.2v17.4h-4.5v9.1h34.6v-9.1H292v-17.4h2.2v-8.7
				H290v-3h2v-4.4h-2v1h-1.2v-1h-2v1h-1.4v-1h-2v4.4h2v3h-4.1V278h2.2v-4.4h-2.2v1.1h-1.2v-1.1h-2v1.1H277v-1.1h-2.2v4.4h2.2v9.5
				h-4.2v-3h2v-4.4h-2v1h-1.1v-1h-2.2V281.2z M261.9,322.7h34.6 M261.9,320.5h34.6 M261.9,318.3h34.6 M261.9,316.2h34.6
				 M261.9,313.6h34.6 M266.4,311.8H292 M266.4,309.6H292 M266.4,307.1H292 M266.4,304.9H292 M266.4,302.7H292 M266.4,300.6H292
				 M266.4,298.4H292 M264.1,296.2h30.1 M264.1,294h30.1 M264.1,291.8h30.1 M264.1,289.7h30.1 M268.4,287.5H290 M277,285.3h4.2
				 M277,283.1h4.2 M277,280.9h4.2 M277,278.8h4.2 M274.8,276h8.7 M268.4,285.3h4.5 M266.4,282.6h8.4 M266.4,322.7v-2.2
				 M266.4,318.3v-2.2 M264.1,318.3v2.2 M268.4,320.5v-2.2 M270.6,322.7v-2.2 M270.6,318.3v-2.2 M270.6,313.6v-2 M270.6,309.6v-2.4
				 M268.4,316.2v-2.4 M264.1,316.2v-2.4 M272.9,313.6v2.4 M274.8,313.6v-2 M268.4,309.6v2.2 M272.9,309.6v2.2 M277,309.6v2.2
				 M274.8,309.6v-2.4 M277,304.9v2.2 M277,300.6v2.2 M274.8,298.4v2.2 M277,296.2v2.2 M272.9,296.2v2.2 M268.4,296.2v2.2
				 M266.4,294v2.2 M270.6,294v2.2 M274.8,294v2.2 M277,291.8v2.2 M272.9,291.8v2.2 M268.4,291.8v2.2 M266.4,289.7v2.2 M274.8,289.7
				v2.2 M270.6,285.3v2.2 M290,285.3h-4.5 M292,282.6h-8.4 M292,322.7v-2.2 M292,318.3v-2.2 M294.2,318.3v2.2 M290,320.5v-2.2
				 M287.7,322.7v-2.2 M287.7,318.3v-2.2 M287.7,313.6v-2 M287.7,309.6v-2.4 M290,316.2v-2.4 M294.2,316.2v-2.4 M285.5,313.6v2.4
				 M283.5,313.6v-2 M290,309.6v2.2 M285.5,309.6v2.2 M281.3,309.6v2.2 M283.5,309.6v-2.4 M281.3,304.9v2.2 M281.3,300.6v2.2
				 M283.5,298.4v2.2 M281.3,296.2v2.2 M285.5,296.2v2.2 M290,296.2v2.2 M292,294v2.2 M287.7,294v2.2 M283.5,294v2.2 M281.3,291.8
				v2.2 M285.5,291.8v2.2 M290,291.8v2.2 M292,289.7v2.2 M283.5,289.7v2.2 M287.7,285.3v2.2 M279,309.6v-2.4 M279,300.6v-2.2
				 M279,304.9v-2.2 M279,296.2V294 M279,291.8v-2.2 M279,285.3v-2.2 M279,280.9v-2.2 M268.4,284.5h4.5 M277,278h4.2 M285.5,284.5
				h4.5"/>
			<path id="path563" class="st60" d="M284.9,322.7V317c0-1-0.6-4.4-5.9-4.4c-5.1,0-5.7,3.3-5.7,4.4v5.7H284.9z"/>
			<path id="path565" class="st60" d="M275.4,317.2l-2.8-0.2c0-1,0.2-2.8,1.2-3.3l2.5,2C275.9,315.8,275.4,316.7,275.4,317.2z"/>
			<path id="path567" class="st60" d="M280.2,314.6l1.4-2.4c-0.6-0.2-1.7-0.6-2.5-0.6c-0.6,0-1.7,0.2-2.2,0.6l1.4,2.4H280.2z"/>
			<path id="path569" class="st60" d="M282.9,317.2l2.8-0.2c0-1-0.2-2.8-1.1-3.3l-2.5,2C282.4,315.8,282.9,316.7,282.9,317.2z"/>
			<path id="path571" class="st60" d="M274.8,307.7v-6c0-1.6-1.1-3-3.1-3s-3.1,1.4-3.1,3v6H274.8z"/>
			<path id="path573" class="st60" d="M283.5,307.7v-6c0-1.6,1.2-3,3.1-3c2,0,3.1,1.4,3.1,3v6H283.5z"/>
			<path id="path575" class="st60" d="M272.9,293l0.2-5.5h-5.3l0.6,5.5H272.9z"/>
			<path id="path577" class="st60" d="M281.3,293l0.6-5.5h-5.3l0.2,5.5H281.3z"/>
			<path id="path579" class="st60" d="M285.5,293l-0.6-5.5h5.7L290,293H285.5z"/>
			<g id="g587">
				<path id="path581" class="st61" d="M282.9,322.7v-4.9c0-0.8-0.6-3.3-3.9-3.3c-3.1,0-3.7,2.4-3.7,3.3v4.9H282.9z"/>
				<path id="path583" class="st61" d="M274.3,307.1v-5.2c0-1.4-0.8-2.8-2.5-2.8c-1.7,0-2.5,1.4-2.5,2.8v5.2H274.3z"/>
				<path id="path585" class="st61" d="M284.1,307.1v-5.2c0-1.4,0.8-2.8,2.5-2.8c1.7,0,2.5,1.4,2.5,2.8v5.2H284.1z"/>
			</g>
		</g>
		<g id="Leon">
			<path id="path590" class="st53" d="M309.4,331.8h61.1v-65.9h-61.1V331.8z"/>
			<path id="path592" class="st62" d="M340.6,282.2l0.1-0.7l0.1-0.5c0,0-2,0.1-2.9-0.1c-1.1-0.2-2-0.7-2.9-1.5s-1.3-1.3-2-1.4
				c-1.7-0.2-2.9,0.5-2.9,0.5s1.3,0.5,2.1,1.5c0.9,1.1,1.9,1.7,2.4,1.8c0.7,0.2,3.2,0.1,3.9,0.1C339.1,282,340.6,282.2,340.6,282.2
				L340.6,282.2z"/>
			<g id="g602">
				<path id="path594" class="st63" d="M349.8,279.6c0,0,0,0.8,0.1,1.6c0.1,0.8-0.2,1.5-0.1,2c0.1,0.5,0.2,0.8,0.4,1.1
					c0.1,0.3,0.2,1.1,0.2,1.1s-0.5-0.3-0.9-0.7s-0.7-0.6-0.7-0.6s0.1,0.8,0.1,1.3c0,0.3,0.2,1,0.6,1.5c0.4,0.3,1.1,1,1.3,1.6
					s0.1,1.7,0.1,1.7s-0.6-0.9-1.1-1s-1.5-0.7-1.5-0.7s0.9,0.9,0.9,1.8c0,0.9-0.4,1.8-0.4,1.8s-0.5-0.8-1.1-1.4
					c-0.6-0.6-1.4-1-1.4-1s0.6,1.4,0.6,2.3s-0.2,2.9-0.2,2.9s-0.5-0.8-0.9-1.1c-0.5-0.3-1.1-0.7-1.3-0.9c-0.1-0.2,0.6,0.8,0.7,1.4
					c0.1,0.6,0.4,2.8,2.4,5.5c1.2,1.6,2.9,4.5,6.7,3.6c3.8-0.9,2.4-5.9,1.5-8.1c-0.8-2.3-1.2-4.8-1.2-5.7s0.7-3.6,0.6-4
					c-0.1-0.5-0.2-2.4,0.1-3.9c0.5-1.6,0.9-2.2,1.2-2.9s0.5-1,0.6-1.6c0.1-0.6,0.1-1.6,0.1-1.6s0.7,1.3,0.9,1.7
					c0.1,0.5,0.1,1.7,0.1,1.7s0.1-1.4,1.2-2c1.1-0.7,2.2-1.4,2.6-1.7c0.4-0.3,0.4-0.6,0.4-0.6s-0.1,2.3-0.7,3.1
					c-0.5,0.6-2.1,2.5-2.1,2.5s0.9-0.3,1.5-0.3c0.6,0,1.1,0,1.1,0s-0.7,0.6-1.8,2c-0.9,1.4-0.6,1.5-1.3,2.6
					c-0.7,1.1-1.3,1.1-2.1,1.8c-1.3,1-0.6,5.2-0.5,5.7c0.2,0.6,2.5,5.6,2.5,6.9c0,1.3,0.2,3.9-1.9,5.6c-1.4,1.1-3.8,1.1-4.2,1.5
					s-1.5,1.4-1.5,3.4s0.8,2.4,1.4,3c0.6,0.6,1.4,0.2,1.5,0.7c0.2,0.5,0.2,0.7,0.6,0.9c0.2,0.2,0.5,0.6,0.4,0.9
					c-0.1,0.5-1.1,1.5-1.4,2.2c-0.4,0.7-1.1,2.6-1.1,2.9c0,0.2-0.1,1.1,0.2,1.6c0,0,1.1,1.3,0.4,1.5c-0.5,0.1-0.9-0.3-1.2-0.2
					c-0.7,0.1-1.1,0.6-1.2,0.6c-0.5-0.1-0.5-0.3-0.5-0.9s0-0.8-0.2-0.8s-0.4,0.2-0.5,0.6c0,0.3,0,1-0.4,1c-0.4,0-0.7-0.6-1.1-0.7
					c-0.4-0.1-1.1-0.2-1.1-0.6c0-0.3,0.5-1,0.9-1.1c0.5-0.1,0.9-0.3,0.6-0.6s-0.6-0.2-0.9,0c-0.4,0.2-0.9,0-0.9-0.3
					c0-0.3,0.1-0.8,0.1-1c0-0.2-0.6-0.6,0.1-0.9c0.7-0.3,1.1,0.3,1.8,0.2c0.7-0.1,1.1-0.3,1.3-0.8c0.2-0.5,0.2-1.3-0.2-1.7
					c-0.5-0.6-0.9-0.6-1.2-0.9c-0.1-0.3-0.5-1-0.5-1s0.1,1.4,0,1.6c-0.1,0.2,0,1,0,1s-0.5-0.6-0.8-0.9c-0.4-0.5-0.8-1.6-0.8-1.6
					s0,1.1,0,1.6s0.5,0.8,0.4,1c-0.2,0.1-1.1-0.8-1.3-1c-0.2-0.1-0.9-0.7-1.2-1.3s-0.6-1.4-0.6-1.7c-0.1-0.2-0.2-1.5-0.1-1.8
					c0.2-0.5,0.6-1.4,0.6-1.4h-1.8c-0.9,0-1.5-0.2-1.9,0.3c-0.4,0.6-0.2,1.8,0.2,3.4c0.5,1.6,0.7,2.3,0.6,2.6
					c-0.1,0.2-0.7,0.9-0.9,1c-0.2,0.1-0.8,0.1-1.1,0c-0.2-0.1-0.7-0.3-1.5-0.3s-1.4,0-1.7,0c-0.4-0.1-1.1-0.5-1.4-0.3
					c-0.4,0.1-0.9,0.3-0.8,0.8c0.2,0.7-0.2,0.9-0.6,0.8c-0.4,0-0.6-0.1-1.1-0.2s-1.1,0-1.1-0.5c0.1-0.5,0.2-0.6,0.5-0.9
					c0.2-0.3,0.4-0.6,0-0.7c-0.4,0-0.6-0.1-0.8,0.1s-0.6,0.6-0.9,0.5c-0.4-0.1-0.6-0.5-0.6-1.3s-0.8-1.4-0.1-1.4s1.8,0.6,1.9,0.1
					c0.1-0.5,0.1-0.6-0.4-0.9c-0.5-0.3-0.9-0.5-0.4-0.9c0.6-0.5,0.7-0.5,0.9-0.7c0.2-0.2,0.5-0.9,0.9-0.8c0.7,0.3,0,0.9,0.8,1.7
					c0.7,0.8,1.2,1.1,2.5,1c1.3-0.1,1.7-0.2,1.7-0.7c0-0.3-0.1-0.9-0.1-1.3c0-0.2,0.2-1.1,0.2-1.1s-0.6,0.3-0.7,0.7
					c-0.1,0.3-0.5,0.9-0.5,0.9s-0.1-0.7-0.1-1.3c0-0.3,0.1-0.9,0.1-1c0-0.3-0.2-1.1-0.2-1.1s-0.2,0.9-0.4,1.1
					c-0.1,0.2-0.2,1.3-0.2,1.3s-0.8-0.7-0.6-1.8c0.1-0.9-0.1-2.1,0.1-2.4c0.2-0.3,0.9-2,2.5-2c1.5-0.1,2.8,0.1,3.4,0
					c0.6,0,2.5-0.3,2.5-0.3s-3.7-1.8-4.4-2.3c-0.8-0.6-2.1-2-2.5-2.5c-0.5-0.7-0.8-1.8-0.8-1.8s-0.6,0-1.3,0.3
					c-0.6,0.3-1.2,0.8-1.5,1.1c-0.4,0.3-0.9,1.3-0.9,1.3s0.1-1.1,0.1-1.5c0-0.3-0.1-1-0.1-1s-0.4,1.5-1.2,2.1
					c-0.8,0.6-1.8,1.4-1.8,1.4s0.1-0.8,0.1-1c0-0.2,0.2-1.1,0.2-1.1s-0.6,0.8-1.4,1c-0.9,0.1-2.2,0.1-2.4,0.7
					c-0.1,0.6,0.2,1.3,0,1.6c-0.2,0.3-0.7,0.7-0.7,0.7s-0.5-0.5-0.9-0.5c-0.5,0-0.8,0.2-0.8,0.2s-0.4-0.5-0.2-0.8
					c0.1-0.3,0.8-0.8,0.7-1c-0.2-0.2-0.7,0.1-1.1,0.2c-0.4,0.1-1.1,0.3-0.9-0.2c0.1-0.6,0.2-0.8,0.1-1.3c-0.1-0.3-0.1-0.6,0.2-0.7
					c0.2-0.1,1.4,0,1.4-0.2c0.1-0.2-0.2-0.6-0.9-0.7c-0.7-0.1-1.1-0.6-0.7-0.9c0.4-0.3,0.5-0.5,0.7-0.8c0.1-0.3,0.2-0.9,0.9-0.6
					c0.6,0.2,0.5,1,1.2,1.1c0.7,0.2,2.2-0.1,2.6-0.2c0.4-0.1,1.4-1,1.8-1.1c0.4-0.2,2-1.4,2-1.4s-0.9-0.6-1.3-0.9
					c-0.4-0.3-0.9-1-1.3-1.3c-0.4-0.1-1.8-0.7-2.4-0.8c-0.5,0-2.1-0.6-2.1-0.6s0.7-0.2,0.9-0.5c0.2-0.2,0.8-0.7,1.1-0.6
					c0.2,0,0.4,0,0.4,0s-1.4-0.1-1.8-0.1c-0.4-0.1-1.2-0.7-1.5-0.7c-0.4,0-1.1,0.1-1.1,0.1s0.9-0.6,1.7-0.7s1.3-0.1,1.3-0.1
					s-1.2-0.3-1.4-0.7s-0.6-0.9-0.7-1.3c-0.2-0.2-0.4-0.7-0.7-0.7c-0.4,0-1.1,0.5-1.4,0.5s-0.7-0.2-0.7-0.8s0-0.3-0.1-0.7
					c-0.1-0.2-0.7-0.9-0.2-1.1c0.5-0.1,1.7,0.1,1.8-0.1c0.1-0.2-0.6-0.8-1.1-1s-1.2-0.6-0.8-0.9c0.4-0.3,0.7-0.5,0.9-0.7
					c0.2-0.2,0.5-1,0.9-0.8c0.5,0.2,1.1,1.5,1.4,1.4c0.4-0.1,0.4-1,0.4-1.4c-0.1-0.3,0-1,0.4-1c0.4,0,0.6,0.5,1.2,0.6
					c0.6,0,1.4-0.1,1.3,0.2c-0.1,0.3-0.4,0.8-0.7,1.3c-0.4,0.5-0.6,1.3-0.4,1.7c0.2,0.6,0.8,1.4,1.4,1.7c0.6,0.3,1.5,0.6,2.2,1
					c0.6,0.5,2.1,1.6,2.7,1.7c0.5,0.1,1.1,0.3,1.1,0.3s0.6-0.2,1.4-0.2c0.8,0,2.6,0.1,3.3-0.1c0.7-0.2,1.5-0.8,1.3-1.4
					c-0.2-0.6-1.8-1.1-1.7-1.6c0.1-0.5,0.7-0.5,1.7-0.6c0.9,0,2.2,0.1,2.5-1.1s0.4-2-0.9-2.3c-1.3-0.2-2.2-0.3-2.5-1.3
					c-0.2-0.9-0.5-1.1-0.2-1.4c0.2-0.2,0.7-0.3,1.8-0.5c0.9-0.1,2.1-0.1,2.4-0.3c0.4-0.2,0.4-0.8,0.7-1c0.4-0.2,1.9-0.5,1.9-0.5
					s1.8,0.8,3.4,2.1C348.5,278,349.8,279.6,349.8,279.6"/>
				<path id="path596" class="st29" d="M332.2,287.1c0,0-0.9,0.2-1.3,0.8c-0.5,0.6-0.5,1.3-0.5,1.3s0.8-0.7,1.9-0.3
					c1.1,0.2,1.2,0.3,1.7,0.3s1.5-0.5,1.5-0.5s-0.9,1-0.8,1.7c0.1,0.7,0.2,1,0.2,1.4c-0.1,0.8-0.7,2-0.7,2s0.4-0.2,1.3-0.5
					s1.7-0.6,2.1-0.9c0.5-0.3,1.1-1.3,1.1-1.3s-0.2,1.1,0,1.7s0.2,2,0.2,2s0.6-0.5,1.1-0.7c0.2-0.1,0.8-0.5,1.1-0.8
					c0.1-0.2,0.4-1.3,0.4-1.3s0.1,1,0.5,1.6c0.4,0.5,0.8,2.1,0.8,2.1s0.4-1,0.7-1.4c0.4-0.5,0.8-0.9,0.8-1.3s-0.1-1-0.1-1l0.5,1
					 M330.9,293.6c0,0,0.6-1,1.2-1.3c0.6-0.3,1.3-0.9,1.5-0.9c0.2-0.1,1.1-0.6,1.1-0.6 M335.9,296.9c0,0,1.3-0.7,1.8-0.9
					c0.8-0.5,1.4-1.4,1.4-1.4"/>
				<path id="path598" class="st4" d="M348.7,284.2c0,0-0.5-0.6-0.5-0.8c-0.1-0.2-0.2-0.6-0.2-0.6"/>
				<path id="path600" class="st29" d="M343.5,303.7c0,0,2.5,1.5,2.4,2.8c-0.1,1.3-1.4,2.9-1.4,2.9"/>
			</g>
			<path id="path604" class="st64" d="M337.2,278.6c0,0-0.2-0.6-0.2-0.7c0-0.1-0.1-0.3-0.1-0.3s1.1,0,1.1,0.3c0,0.3-0.4,0.3-0.5,0.5
				C337.3,278.4,337.2,278.6,337.2,278.6L337.2,278.6z"/>
			<path id="path606" class="st65" d="M342,277l-0.1-0.5c0,0,0.9,0,1.4,0.3c0.7,0.5,1.2,1.3,1.1,1.3c-0.1,0.1-0.7-0.3-1.1-0.5
				c0,0-0.2,0.1-0.6,0.1c-0.2,0-0.5-0.1-0.5-0.2s0-0.3,0-0.3L342,277z"/>
			<g id="g616">
				<path id="path608" class="st64" d="M337.2,283.2l0.4-0.6l0.5,0.6H337.2"/>
				<path id="path610" class="st64" d="M338.1,283.2l0.5-0.6l0.5,0.6H338.1"/>
				<path id="path612" class="st64" d="M337.8,279.3l0.9,0.3l-0.9,0.5V279.3"/>
				<path id="path614" class="st64" d="M338.9,279.7l0.9,0.2l-0.7,0.6L338.9,279.7"/>
			</g>
			<g id="g642">
				<path id="path618" class="st62" d="M323.6,278.4c0,0,0.6,0.5,1.1,0.5c0.5,0.1,0.9,0.1,0.9,0.1c0.1,0,0.2-0.7,0.1-1
					c-0.2-1.4-1.5-1.7-1.5-1.7s0.4,0.9,0.2,1.3C324.1,278,323.6,278.4,323.6,278.4L323.6,278.4z"/>
				<path id="path620" class="st62" d="M320.8,279.7c0,0-0.5-0.9-1.7-0.8c-1.1,0.1-1.8,0.9-1.8,0.9s1.2,0,1.5,0.1
					c0.5,0.2,0.6,1,0.6,1s0.7-0.3,0.8-0.7C320.5,280.1,320.8,279.7,320.8,279.7L320.8,279.7z"/>
				<path id="path622" class="st62" d="M319.5,283.4c0,0-0.9,0.1-1.4,0.7c-0.5,0.6-0.5,1.6-0.5,1.6s0.6-0.7,1.2-0.7
					c0.6,0,1.4,0.2,1.4,0.2s-0.2-0.7-0.2-0.9C319.9,284,319.5,283.4,319.5,283.4L319.5,283.4z"/>
				<path id="path624" class="st62" d="M322.5,295.3c0,0-0.5-0.6-1.4-0.3c-0.9,0.1-1.5,1.1-1.5,1.1s0.7-0.2,1.2-0.1
					c0.5,0.1,0.7,0.6,0.7,0.6s0.5-0.3,0.6-0.6C322.2,295.7,322.5,295.3,322.5,295.3L322.5,295.3z"/>
				<path id="path626" class="st62" d="M321.6,298.8c0,0-0.7-0.1-1.4,0.3c-0.6,0.5-0.7,1.5-0.7,1.5s0.6-0.5,1.1-0.5
					c0.5,0.1,1.1,0.3,1.1,0.3s0.1-0.6,0.1-0.8C321.8,299.4,321.6,298.8,321.6,298.8L321.6,298.8z"/>
				<path id="path628" class="st62" d="M323.2,302.1c0,0-0.1,0.9,0.4,1.5s1.4,0.7,1.4,0.7s-0.2-0.6-0.4-0.9
					c-0.1-0.5,0.5-0.9,0.5-0.9s-0.5-0.5-0.9-0.5C323.8,302.1,323.2,302.1,323.2,302.1L323.2,302.1z"/>
				<path id="path630" class="st62" d="M332.2,310.4c0,0-0.6-0.8-1.4-0.7c-0.8,0-1.8,0.8-1.8,0.8s1.1-0.1,1.3,0.2
					c0.2,0.3,0.6,0.8,0.6,0.8s0.5-0.2,0.7-0.5C331.7,311,332.2,310.4,332.2,310.4L332.2,310.4z"/>
				<path id="path632" class="st62" d="M329.6,313.8c0,0-1.2-0.1-1.7,0.5c-0.6,0.6-0.5,1.6-0.5,1.6s0.7-0.7,1.3-0.7
					c0.6,0.1,1.3,0.3,1.3,0.3s-0.1-0.6-0.2-0.9C329.7,314.2,329.6,313.8,329.6,313.8L329.6,313.8z"/>
				<path id="path634" class="st62" d="M332,317.2c0,0-0.6,0.8-0.1,1.4c0.5,0.6,1.3,0.9,1.3,0.9s-0.4-0.5-0.1-0.9
					c0.1-0.5,0.8-0.9,0.8-0.9L332,317.2z"/>
				<path id="path636" class="st62" d="M347.1,318.7c0,0-0.9-0.2-1.5,0.1c-0.6,0.3-0.9,1.6-0.9,1.6s0.9-0.7,1.5-0.7
					c0.6,0.1,1.2,0.3,1.2,0.3s0.1-0.6,0-0.9C347.2,318.9,347.1,318.7,347.1,318.7L347.1,318.7z"/>
				<path id="path638" class="st62" d="M347.5,322.1c0,0-0.7,0.8-0.5,1.4c0.2,0.7,0.7,1.3,0.7,1.3s0-0.9,0.2-1.3
					c0.5-0.3,1.3-0.5,1.3-0.5s-0.7-0.6-0.8-0.7C348.4,322.6,347.5,322.1,347.5,322.1z"/>
				<path id="path640" class="st62" d="M351.3,323.3c0,0-0.4,0.9,0.4,1.5c0.7,0.6,1.3,0.7,1.3,0.7s-0.6-0.9-0.4-1.5s0.7-0.8,0.7-0.8
					s-0.9-0.3-1.1-0.2C352.1,322.9,351.3,323.3,351.3,323.3L351.3,323.3z"/>
			</g>
			<g id="g700">
				<path id="path644" class="st1" d="M349.1,274.5h-0.4c0,0-0.1,0.2-0.4,0.5c-0.4,0.3-0.8,0.3-1.1,0.1c-0.1-0.1-0.2-0.3-0.1-0.5
					c-0.2,0.1-0.5,0.1-0.6,0c-0.4-0.2-0.4-0.6-0.1-0.9c0-0.1,0.1-0.1,0.1-0.2v-0.3l-0.5-0.1l-0.1,0.2c-0.2,0.3-0.7,0.3-0.8,0.2
					c-0.1-0.1-0.1-0.3-0.1-0.3s-0.1,0.1-0.2,0.1c-0.7,0.1-0.9-1.3-0.9-1.6l-0.2,0.3c0,0,0.2,0.8,0.1,1.5c-0.1,0.7-0.4,1.4-0.4,1.4
					c0.9,0.2,2.2,0.9,3.7,2c1.3,1,2.4,2.1,2.8,2.9c0,0,0.7-0.3,1.4-0.6s1.7-0.2,1.7-0.2l0.2-0.2c-0.4,0.1-1.9,0.1-1.9-0.5
					c0-0.1,0.1-0.2,0.1-0.2s-0.2,0-0.4-0.1c-0.2-0.1-0.2-0.5,0-0.8l0.2-0.1v-0.5l-0.5,0.1c0,0-0.1,0.1-0.2,0.1
					c-0.4,0.2-0.8,0.3-1.1,0c-0.1-0.1-0.2-0.3-0.1-0.6c-0.2,0-0.4,0-0.6-0.1c-0.4-0.2-0.4-0.6-0.1-0.9c0.1-0.1,0.4-0.3,0.4-0.3
					V274.5L349.1,274.5z"/>
				<g id="g660">
					<path id="path646" class="st65" d="M346.4,275.3c0.1-0.1,0.2-0.1,0.2,0c0.1,0.1,0.1,0.2,0.1,0.2c-0.1,0.1-0.2,0.1-0.2,0
						C346.4,275.4,346.2,275.3,346.4,275.3L346.4,275.3z"/>
					<path id="path648" class="st65" d="M347.5,276.2l-0.4-0.3c-0.1,0-0.1-0.1,0-0.2c0,0,0.1,0,0.2,0l0.4,0.3l0.4,0.3
						c0.1,0,0.1,0.1,0,0.2c0,0-0.1,0-0.2,0L347.5,276.2"/>
					<path id="path650" class="st65" d="M345.4,274.9l-0.4-0.2c-0.1,0-0.1-0.1-0.1-0.2c0-0.1,0.1-0.1,0.2,0l0.4,0.2l0.4,0.2
						c0.1,0,0.1,0.1,0.1,0.2s-0.1,0.1-0.2,0L345.4,274.9"/>
					<path id="path652" class="st65" d="M344.1,273.9c0.1-0.1,0.2-0.1,0.2,0c0.1,0.1,0.1,0.2,0.1,0.2c-0.1,0.1-0.2,0.1-0.2,0
						S344,274.1,344.1,273.9L344.1,273.9z"/>
					<path id="path654" class="st65" d="M348.7,277c0.1-0.1,0-0.1-0.1-0.2c-0.1-0.1-0.2-0.1-0.2,0s0,0.2,0.1,0.2
						C348.6,277.2,348.7,277.2,348.7,277L348.7,277z"/>
					<path id="path656" class="st65" d="M349.4,277.8l0.2,0.2c0.1,0.1,0.1,0.1,0.2,0c0,0,0-0.1,0-0.2l-0.2-0.2l-0.2-0.2
						c-0.1-0.1-0.1-0.1-0.2,0c-0.1,0,0,0.1,0,0.2L349.4,277.8"/>
					<path id="path658" class="st65" d="M350.6,278.8c0.1-0.1,0-0.2-0.1-0.2c-0.1-0.1-0.2-0.1-0.2,0c-0.1,0.1,0,0.2,0.1,0.2
						C350.4,278.9,350.5,278.9,350.6,278.8z"/>
				</g>
				<path id="path662" class="st1" d="M347.3,271.7h-0.7l-0.1,1l0.1,0.1h0.2l0.9-0.6L347.3,271.7"/>
				<path id="path664" class="st1" d="M347.3,271.7h-0.7l-0.1,1l0.1,0.1h0.2l0.9-0.6L347.3,271.7"/>
				<path id="path666" class="st1" d="M345.3,272.2v0.7l1.1,0.1l0.2-0.1v-0.2l-0.6-0.8L345.3,272.2"/>
				<path id="path668" class="st1" d="M347.7,273.5l-0.6,0.3l-0.7-0.8v-0.2l0.1-0.1l1.2,0.1V273.5"/>
				<path id="path670" class="st1" d="M346.2,272.8c0.1-0.1,0.4-0.2,0.5-0.1s0.2,0.2,0.1,0.5c-0.1,0.1-0.4,0.2-0.5,0.1
					C346.1,273.1,346.1,272.9,346.2,272.8z"/>
				<path id="path672" class="st1" d="M343.5,271.7c0,0-0.1-0.6-0.4-0.8c-0.1-0.2-0.5-0.5-0.5-0.5c0-0.1,0.5-0.2,1.1,0.1
					c0.5,0.3,0,1,0,1S343.7,271.7,343.5,271.7L343.5,271.7z"/>
				<path id="path674" class="st1" d="M344.8,272l-0.5,0.5l-0.8-0.7l0.1-0.1v-0.2l1.1-0.1L344.8,272"/>
				<path id="path676" class="st1" d="M343.4,271.7c0.1-0.2,0.2-0.2,0.4-0.2c0.1,0,0.2,0.2,0.1,0.3c-0.1,0.2-0.2,0.2-0.4,0.2
					C343.4,272,343.4,271.8,343.4,271.7z"/>
				<path id="path678" class="st1" d="M350,273.4l-0.7-0.1l-0.4,1l0.1,0.1h0.2l1.1-0.5L350,273.4"/>
				<path id="path680" class="st1" d="M348,273.7l-0.1,0.7l1.1,0.2h0.2v-0.1l-0.5-0.9L348,273.7"/>
				<path id="path682" class="st1" d="M350.1,275.2l-0.6,0.2l-0.5-0.9v-0.2h0.2l1.1,0.2L350.1,275.2"/>
				<path id="path684" class="st1" d="M348.8,274.3c0.1-0.1,0.4-0.1,0.5,0c0.1,0.1,0.2,0.3,0.1,0.5c-0.1,0.1-0.4,0.1-0.5,0
					C348.7,274.6,348.7,274.4,348.8,274.3L348.8,274.3z"/>
				<path id="path686" class="st1" d="M352.4,275.6l0.1,0.7l-1.1,0.3h-0.2v-0.1l0.5-0.9H352.4"/>
				<path id="path688" class="st1" d="M352.3,277.4l-0.7,0.1l-0.4-1v-0.2h0.2l1.1,0.5L352.3,277.4"/>
				<path id="path690" class="st1" d="M350.4,275.6l-0.2,0.6l1.1,0.5h0.2v-0.1l-0.4-1L350.4,275.6"/>
				<path id="path692" class="st1" d="M351.6,276.7c0.1-0.1,0.1-0.3,0-0.5c-0.1-0.1-0.4-0.1-0.5,0c-0.1,0.1-0.1,0.3,0,0.5
					C351.2,276.8,351.4,276.8,351.6,276.7L351.6,276.7z"/>
				<path id="path694" class="st1" d="M353.2,278.9c0,0,0.6,0,0.9,0.1c0.2,0,0.6,0.3,0.6,0.3c0.1,0,0.1-0.5-0.4-0.9
					c-0.5-0.3-1.1,0.2-1.1,0.2S353.2,278.8,353.2,278.9L353.2,278.9z"/>
				<path id="path696" class="st1" d="M352.5,277.8l-0.4,0.6l0.9,0.6l0.1-0.1h0.1l-0.1-1H352.5"/>
				<path id="path698" class="st1" d="M353.3,279c0.1-0.1,0.2-0.2,0.2-0.3c0-0.1-0.2-0.1-0.5,0c-0.1,0.1-0.2,0.2-0.1,0.3
					C353,279.1,353.1,279.1,353.3,279z"/>
			</g>
		</g>
		<g id="inescutcheon">
			<ellipse id="ellipse703" class="st66" cx="309.7" cy="331.5" rx="19.7" ry="21.6"/>
			<ellipse id="ellipse705" class="st67" cx="309.7" cy="331.4" rx="13.9" ry="15.8"/>
			<g id="fdl">
				<path id="path707" class="st68" d="M303.1,320.5c0,0-1.7,1.7-1.7,3.3s0.7,3,0.7,3c-0.2-0.7-0.9-1.1-1.8-1.1
					c-1.1,0-1.8,0.7-1.8,1.7c0,0.2,0.1,0.7,0.2,0.9l0.6,1.1c0.2-0.5,0.7-0.7,1.2-0.7c0.7,0,1.3,0.6,1.3,1.1c0,0.1,0,0.2,0,0.3h-1.5
					v1.3h1.3l-0.9,2l1.3-0.5l0.9,1l1.1-1l1.3,0.5l-0.9-2h1.3v-1.1h-1.5c0-0.1,0-0.2,0-0.3c0-0.7,0.6-1.1,1.3-1.1
					c0.6,0,0.9,0.2,1.2,0.7l0.6-1.1c0.1-0.2,0.2-0.7,0.2-0.9c0-0.9-0.8-1.7-1.8-1.7c-0.8,0-1.4,0.5-1.8,1.1c0,0,0.7-1.4,0.7-3
					C304.8,322.4,303.1,320.5,303.1,320.5L303.1,320.5z"/>
				<path id="path709" class="st69" d="M300.5,331.7h5.3v-1.3h-5.3V331.7z"/>
			</g>
			<g id="use712">
				<g id="fdl_1_">
					<path id="path707_1_" class="st68" d="M316.1,320.5c0,0-1.7,1.7-1.7,3.3s0.7,3,0.7,3c-0.2-0.7-0.9-1.1-1.8-1.1
						c-1.1,0-1.8,0.7-1.8,1.7c0,0.2,0.1,0.7,0.2,0.9l0.6,1.1c0.2-0.5,0.7-0.7,1.2-0.7c0.7,0,1.3,0.6,1.3,1.1c0,0.1,0,0.2,0,0.3h-1.5
						v1.3h1.3l-0.9,2l1.3-0.5l0.9,1l1.1-1l1.3,0.5l-0.9-2h1.3v-1.1h-1.5c0-0.1,0-0.2,0-0.3c0-0.7,0.6-1.1,1.3-1.1
						c0.6,0,0.9,0.2,1.2,0.7l0.6-1.1c0.1-0.2,0.2-0.7,0.2-0.9c0-0.9-0.8-1.7-1.8-1.7c-0.8,0-1.4,0.5-1.8,1.1c0,0,0.7-1.4,0.7-3
						C317.7,322.4,316.1,320.5,316.1,320.5L316.1,320.5z"/>
					<path id="path709_1_" class="st69" d="M313.3,331.7h5.3v-1.3h-5.3V331.7z"/>
				</g>
			</g>
			<g id="use714">
				<g id="fdl_2_">
					<path id="path707_2_" class="st68" d="M309.6,331.4c0,0-1.7,1.7-1.7,3.3s0.7,3,0.7,3c-0.2-0.7-0.9-1.1-1.8-1.1
						c-1.1,0-1.8,0.7-1.8,1.7c0,0.2,0.1,0.7,0.2,0.9l0.6,1.1c0.2-0.5,0.7-0.7,1.2-0.7c0.7,0,1.3,0.6,1.3,1.1c0,0.1,0,0.2,0,0.3h-1.5
						v1.3h1.3l-0.9,2l1.3-0.5l0.9,1l1.1-1l1.3,0.5l-0.9-2h1.3v-1.3h-1.5c0-0.1,0-0.2,0-0.3c0-0.7,0.6-1.1,1.3-1.1
						c0.6,0,0.9,0.2,1.2,0.7l0.6-1.1c0.1-0.2,0.2-0.7,0.2-0.9c0-0.9-0.8-1.7-1.8-1.7c-0.8,0-1.4,0.5-1.8,1.1c0,0,0.7-1.4,0.7-3
						C311.2,333.1,309.6,331.4,309.6,331.4L309.6,331.4z"/>
					<path id="path709_2_" class="st69" d="M307,342.4h5.3v-1.3H307V342.4z"/>
				</g>
			</g>
		</g>
	</g>
</g>
</svg>
