<?xml version="1.0" encoding="utf-8"?>
<!-- Generator: Adobe Illustrator 25.0.1, SVG Export Plug-In . SVG Version: 6.00 Build 0)  -->
<svg version="1.1"
	 id="svg3194" inkscape:version="1.0 (4035a4fb49, 2020-05-01)" xmlns:cc="http://creativecommons.org/ns#" xmlns:dc="http://purl.org/dc/elements/1.1/" xmlns:inkscape="http://www.inkscape.org/namespaces/inkscape" xmlns:rdf="http://www.w3.org/1999/02/22-rdf-syntax-ns#" xmlns:sodipodi="http://sodipodi.sourceforge.net/DTD/sodipodi-0.dtd" xmlns:svg="http://www.w3.org/2000/svg"
	 xmlns="http://www.w3.org/2000/svg" xmlns:xlink="http://www.w3.org/1999/xlink" x="0px" y="0px" viewBox="0 0 603.2 830"
	 style="enable-background:new 0 0 603.2 830;" xml:space="preserve">
<style type="text/css">
	.st0{fill:#EAC102;stroke:#000000;stroke-width:0.8621;stroke-linecap:round;stroke-linejoin:round;}
	.st1{fill:none;stroke:#000000;stroke-width:0.2497;}
	.st2{fill:none;stroke:#000000;stroke-width:0.4995;}
	.st3{fill:none;stroke:#000000;stroke-width:0.7354;}
	.st4{fill:none;stroke:#000000;stroke-width:0.9851;}
	.st5{fill:none;stroke:#000000;stroke-width:1.2348;}
	.st6{fill:none;stroke:#000000;stroke-width:1.4846;}
	.st7{fill:none;stroke:#000000;stroke-width:1.7343;}
	.st8{fill:none;stroke:#000000;stroke-width:1.9702;}
	.st9{fill:none;stroke:#000000;stroke-width:2.2199;}
	.st10{fill:none;stroke:#000000;stroke-width:2.4697;}
	.st11{fill:none;stroke:#000000;stroke-width:2.7194;}
	.st12{fill:none;stroke:#000000;stroke-width:2.9692;}
	.st13{fill:none;stroke:#000000;stroke-width:3.205;}
	.st14{fill:none;stroke:#000000;stroke-width:3.3854;}
	.st15{fill:none;stroke:#000000;stroke-width:3.6352;}
	.st16{fill:none;stroke:#000000;stroke-width:3.871;}
	.st17{fill:none;stroke:#000000;stroke-width:4.1069;}
	.st18{fill:none;stroke:#000000;stroke-width:4.8422;}
	.st19{fill:none;stroke:#000000;stroke-width:5.4106;}
	.st20{fill-rule:evenodd;clip-rule:evenodd;fill:#EAC102;stroke:#000000;stroke-width:0.8621;stroke-linejoin:bevel;}
	.st21{fill-rule:evenodd;clip-rule:evenodd;fill:#EAC102;stroke:#000000;stroke-width:0.9582;}
	.st22{fill:none;stroke:#000000;stroke-width:0.9582;}
	
		.st23{fill-rule:evenodd;clip-rule:evenodd;fill:#EAC102;stroke:#000000;stroke-width:0.6479;stroke-linecap:round;stroke-linejoin:round;}
	.st24{fill-rule:evenodd;clip-rule:evenodd;stroke:#000000;stroke-width:0.6479;stroke-linecap:round;stroke-linejoin:round;}
	.st25{fill:#EAC102;stroke:#000000;stroke-width:0.8621;}
	.st26{fill:none;stroke:#000000;stroke-width:0.8621;}
	.st27{fill-rule:evenodd;clip-rule:evenodd;stroke:#000000;stroke-width:0.8621;stroke-linecap:round;stroke-linejoin:round;}
	.st28{fill:none;stroke:#000000;stroke-width:0.8579;}
	.st29{fill:none;stroke:#000000;stroke-width:0.9321;}
	.st30{fill:none;stroke:#000000;stroke-width:0.9445;}
	
		.st31{fill-rule:evenodd;clip-rule:evenodd;fill:#EAC102;stroke:#000000;stroke-width:0.8621;stroke-linecap:round;stroke-linejoin:round;}
	.st32{fill:none;stroke:#000000;stroke-width:0.5472;}
	.st33{fill-rule:evenodd;clip-rule:evenodd;fill:#EAC102;stroke:#000000;stroke-width:0.9582;stroke-linejoin:bevel;}
	.st34{fill:#EAC102;stroke:#000000;stroke-width:1.0701;}
	.st35{fill:none;stroke:#000000;stroke-width:1.0701;}
	.st36{fill-rule:evenodd;clip-rule:evenodd;stroke:#000000;stroke-width:1.0701;stroke-linecap:round;stroke-linejoin:round;}
	.st37{fill:none;stroke:#000000;stroke-width:0.9581;}
	.st38{fill:none;stroke:#000000;stroke-width:1.041;}
	.st39{fill:none;stroke:#000000;stroke-width:1.0548;}
	
		.st40{fill-rule:evenodd;clip-rule:evenodd;fill:#EAC102;stroke:#000000;stroke-width:1.0701;stroke-linecap:round;stroke-linejoin:round;}
	.st41{fill:none;stroke:#000000;stroke-width:0.6111;}
	
		.st42{fill-rule:evenodd;clip-rule:evenodd;fill:#EAC102;stroke:#000000;stroke-width:0.9582;stroke-linecap:round;stroke-linejoin:round;}
	.st43{fill-rule:evenodd;clip-rule:evenodd;stroke:#000000;stroke-width:0.9582;stroke-linecap:round;stroke-linejoin:round;}
	.st44{fill:#EAC102;stroke:#000000;stroke-width:0.9582;}
	.st45{fill-rule:evenodd;clip-rule:evenodd;fill:#EAC102;stroke:#000000;stroke-width:0.9955;}
	.st46{fill-rule:evenodd;clip-rule:evenodd;fill:#EAC102;stroke:#000000;stroke-width:0.9955;stroke-linejoin:bevel;}
	.st47{fill:#EAC102;stroke:#000000;stroke-width:0.9955;stroke-linejoin:bevel;}
	.st48{fill:none;stroke:#000000;stroke-width:0.9955;}
	.st49{fill:none;stroke:#000000;stroke-width:1.0606;}
	.st50{fill-rule:evenodd;clip-rule:evenodd;stroke:#000000;stroke-width:1.0606;stroke-linecap:round;stroke-linejoin:round;}
	
		.st51{fill-rule:evenodd;clip-rule:evenodd;fill:#EAC102;stroke:#000000;stroke-width:0.9815;stroke-linecap:round;stroke-linejoin:round;}
	.st52{fill-rule:evenodd;clip-rule:evenodd;stroke:#000000;stroke-width:0.9815;stroke-linecap:round;stroke-linejoin:round;}
	.st53{fill-rule:evenodd;clip-rule:evenodd;fill:#EAC102;stroke:#000000;stroke-width:1.0386;}
	.st54{fill:none;stroke:#000000;stroke-width:1.0386;}
	.st55{fill-rule:evenodd;clip-rule:evenodd;fill:#D3D4D5;stroke:#000000;stroke-width:1.0386;}
	.st56{fill:#D3D4D5;stroke:#000000;stroke-width:1.0386;stroke-linejoin:bevel;}
	.st57{fill-rule:evenodd;clip-rule:evenodd;stroke:#000000;stroke-width:1.0386;stroke-linecap:round;stroke-linejoin:round;}
	.st58{fill-rule:evenodd;clip-rule:evenodd;fill:#D3D4D5;stroke:#000000;stroke-width:0.8621;}
	.st59{fill:#D3D4D5;stroke:#000000;stroke-width:0.8621;stroke-linejoin:bevel;}
	.st60{fill-rule:evenodd;clip-rule:evenodd;fill:#D3D4D5;stroke:#000000;stroke-width:0.8519;}
	.st61{fill-rule:evenodd;clip-rule:evenodd;fill:#D3D4D5;stroke:#000000;stroke-width:0.9653;}
	.st62{fill:#D3D4D5;stroke:#000000;stroke-width:0.9653;stroke-linejoin:bevel;}
	.st63{fill-rule:evenodd;clip-rule:evenodd;stroke:#000000;stroke-width:0.9653;stroke-linecap:round;stroke-linejoin:round;}
	
		.st64{fill-rule:evenodd;clip-rule:evenodd;fill:#EAC102;stroke:#000000;stroke-width:0.9832;stroke-linecap:round;stroke-linejoin:round;}
	.st65{fill-rule:evenodd;clip-rule:evenodd;stroke:#000000;stroke-width:0.9832;stroke-linecap:round;stroke-linejoin:round;}
	.st66{fill:#EAC102;stroke:#000000;stroke-width:1.0861;stroke-linecap:round;stroke-linejoin:round;}
	.st67{fill:none;stroke:#000000;stroke-width:1.0861;}
	.st68{fill-rule:evenodd;clip-rule:evenodd;fill:#EAC102;stroke:#000000;stroke-width:0.8621;}
	.st69{fill-rule:evenodd;clip-rule:evenodd;fill:#ED1C24;stroke:#000000;stroke-width:0.8621;}
	.st70{fill-rule:evenodd;clip-rule:evenodd;fill:#E3E4E5;stroke:#000000;stroke-width:0.8621;}
	.st71{fill:#ED1C24;stroke:#000000;stroke-width:0.8621;stroke-linejoin:bevel;}
	.st72{fill:none;stroke:#000000;stroke-width:2.5864;}
</style>
<sodipodi:namedview  bordercolor="#666666" borderopacity="1.0" gridtolerance="10000" guidetolerance="10" height="975px" id="base" inkscape:current-layer="layer1" inkscape:cx="-784.4133" inkscape:cy="130.02611" inkscape:document-rotation="0" inkscape:document-units="px" inkscape:pageopacity="0.0" inkscape:pageshadow="2" inkscape:window-height="691" inkscape:window-maximized="1" inkscape:window-width="1366" inkscape:window-x="0" inkscape:window-y="0" inkscape:zoom="0.20318102" objecttolerance="10" pagecolor="#ffffff" showgrid="false" width="549.99969px">
	</sodipodi:namedview>
<g id="layer3" transform="translate(-29.807234,-68.52332)" inkscape:groupmode="layer" inkscape:label="Timbre">
	<g id="g3289" transform="translate(-188.21416,-289.55316)" inkscape:label="Capa 1">
		<g id="g4843">
			<g id="g4802" transform="translate(12.297473,254.06595)">
				<path id="path16341" class="st0" d="M508,281.4c-9.7,0-19.3,0.2-28.4,0.6c-9.2,0.4-18.1,1-26.5,1.8c-8.4,0.7-16.5,1.6-24,2.6
					s-14.5,2-20.9,3.1s-12.2,2.2-17.2,3.4c-5.1,1.1-9.4,2.3-13,3.4s-6.4,2.1-8.2,3.1c-0.9,0.5-1.7,0.9-2.1,1.3s-0.7,0.8-0.7,1.1
					c0,0.4,0.2,0.8,0.7,1.2c0.5,0.4,1.2,0.9,2.1,1.4c1.9,1,4.7,2.1,8.2,3.2c3.6,1.1,7.9,2.3,13,3.5s10.9,2.4,17.2,3.5
					s13.4,2.2,20.9,3.2s15.5,1.9,24,2.7c8.4,0.8,17.3,1.4,26.5,1.8s18.7,0.7,28.4,0.7c9.7,0,19.3-0.2,28.4-0.7
					c9.2-0.4,18.1-1.1,26.5-1.8c8.4-0.8,16.5-1.7,24-2.7s14.5-2.1,20.9-3.2s12.2-2.3,17.2-3.5c5.1-1.2,9.4-2.4,13-3.5
					s6.4-2.2,8.2-3.2c0.9-0.5,1.7-1,2.1-1.4c0.5-0.4,0.7-0.8,0.7-1.2c0-0.3-0.2-0.7-0.7-1.1s-1.2-0.9-2.1-1.3
					c-1.9-0.9-4.7-2-8.2-3.1s-7.9-2.2-13-3.4c-5.1-1.1-10.9-2.3-17.2-3.4c-6.4-1.1-13.4-2.2-20.9-3.1c-7.5-1-15.5-1.8-24-2.6
					c-8.4-0.7-17.3-1.4-26.5-1.8C527.3,281.6,517.8,281.4,508,281.4L508,281.4z"/>
				<g id="g9200" transform="matrix(0.8943325,0,0,1.2007819,-685.50731,-28.952515)">
					<g id="g9204" transform="translate(181.95199,-177.54891)">
						<path id="path9240" class="st1" d="M1140.4,470.7v-38 M1128.1,471.9l0.2-40.2 M1119.2,472.4v-40.9"/>
						<path id="path9206" class="st2" d="M1111.6,472.9v-41.4"/>
						<path id="path9208" class="st3" d="M1104.3,472.9v-41.4"/>
						<path id="path9210" class="st4" d="M1097.5,472.9v-41.4"/>
						<path id="path9212" class="st5" d="M1090.7,472.9v-41.4"/>
						<path id="path9214" class="st6" d="M1084.6,472.9v-41.4"/>
						<path id="path9216" class="st7" d="M1073.1,470.7l-0.2-37.7 M1078.6,471.2v-39.4"/>
						<path id="path9218" class="st8" d="M1062.4,469v-34.7 M1067.8,470l-0.2-37"/>
						<path id="path9220" class="st9" d="M1048.1,467v-30.5 M1052.8,467.5v-32 M1057.7,468.5v-33.3"/>
						<path id="path9222" class="st10" d="M1043.1,466.8v-29.5"/>
						<path id="path9224" class="st11" d="M1038.5,465.3v-27.5"/>
						<path id="path9226" class="st12" d="M1033.5,464.5v-25.6"/>
						<path id="path9228" class="st13" d="M1023.2,462.3L1023,442 M1028.5,463.3v-22.8"/>
						<path id="path9230" class="st14" d="M1017.9,460.6v-17.9"/>
						<path id="path9232" class="st15" d="M1013.1,459.1v-14.9"/>
						<path id="path9234" class="st16" d="M1007.9,458.6v-11.7"/>
						<path id="path9236" class="st17" d="M1002.5,457.6v-8.7"/>
						<path id="path9238" class="st18" d="M996.8,454.9v-4.2"/>
						<path id="path9242" class="st2" d="M1191.9,472.9v-41.4"/>
						<path id="path9244" class="st3" d="M1199.2,472.9v-41.4"/>
						<path id="path9246" class="st4" d="M1206,472.9v-41.4"/>
						<path id="path9248" class="st5" d="M1212.8,472.9v-41.4"/>
						<path id="path9250" class="st6" d="M1218.9,472.9v-41.4"/>
						<path id="path9252" class="st7" d="M1230.4,470.7l0.2-37.7 M1224.9,471.2v-39.4"/>
						<path id="path9254" class="st8" d="M1241.1,469v-34.7 M1235.7,470l0.2-37"/>
						<path id="path9256" class="st9" d="M1255.4,467v-30.5 M1250.7,467.5v-32 M1245.8,468.5v-33.3"/>
						<path id="path9258" class="st10" d="M1260.4,466.8v-29.5"/>
						<path id="path9260" class="st11" d="M1265,465.3v-27.5"/>
						<path id="path9262" class="st12" d="M1270,464.5v-25.6"/>
						<path id="path9264" class="st13" d="M1280.3,462.3l0.2-20.3 M1275,463.3v-22.8"/>
						<path id="path9266" class="st14" d="M1285.6,460.6v-17.9"/>
						<path id="path9268" class="st15" d="M1290.4,459.1v-14.9"/>
						<path id="path9270" class="st16" d="M1295.6,458.6v-11.7"/>
						<path id="path9272" class="st17" d="M1301,457.6v-8.7"/>
						<path id="path9274" class="st19" d="M1308,455.4v-5.3"/>
						<path id="path9276" class="st1" d="M1163.1,470.7v-38 M1175.4,471.9l-0.2-40.2 M1184.3,472.4v-40.9"/>
					</g>
				</g>
			</g>
			<g id="g9541" transform="translate(-416.01702,277.58232)">
				<path id="path7017" class="st20" d="M956.4,89.6l1-4h3.2v8.9l-4.2-0.8V89.6z"/>
				<path id="path7019" class="st20" d="M916.9,89.6l-1-4h-3.2v8.9l4.2-0.8V89.6z"/>
				<g id="g7021" transform="matrix(0.9359906,0,0,0.864939,587.427,-265.6023)">
					<path id="path7023" sodipodi:nodetypes="cssczc" class="st21" d="M177.5,540.3l23.1,49.2l340.6,0.7l26.3-49.8
						c-10.8-41-125.3-65.6-195-65.6C302,474.7,186.7,499.5,177.5,540.3L177.5,540.3z"/>
					<path id="path7025" sodipodi:nodetypes="cccscc" class="st21" d="M209.5,629.2c7.2-45.2,307.5-48.1,326.3,0
						c0.9-9.2,12.4-44.2,16-48c12.4-36.6-84-58.7-180-58.3S180,546.1,193.5,580.8C197.4,585.1,208.1,620.1,209.5,629.2z"/>
					<path id="path7027" sodipodi:nodetypes="czc" class="st22" d="M206,615.9c0,0,13.6-36.3,166.5-36.3
						c152.5,0,166.1,36.2,166.1,36.2"/>
					<path id="path7029" sodipodi:nodetypes="csc" class="st22" d="M541.6,606.1c-8.3-22.8-94-39-169.1-39
						c-75,0-161.1,15.9-169.4,38.7"/>
					<path id="path7031" sodipodi:nodetypes="czc" class="st22" d="M548,588.2c-0.8-27.1-89.5-46.5-175.5-46.5
						c-86.8,0-175.7,20.6-175.3,46.5"/>
					<path id="path7033" sodipodi:nodetypes="czc" class="st22" d="M544.9,596.8c-8.4-25-87.5-42.8-172.3-42.6
						s-163.9,16.9-172.3,41.9"/>
					<g id="g7035">
						<path id="path7037" class="st22" d="M372.5,579.4V592"/>
						<path id="path7039" sodipodi:nodetypes="cc" class="st22" d="M337.7,580.2l0.5,12.7"/>
						<path id="path7041" sodipodi:nodetypes="cc" class="st22" d="M305.7,582.3l0.9,12.6"/>
						<path id="path7043" sodipodi:nodetypes="cc" class="st22" d="M275.6,586l2,14.3"/>
						<path id="path7045" sodipodi:nodetypes="cc" class="st22" d="M246.6,592.9l1.4,13.3"/>
						<path id="path7047" sodipodi:nodetypes="cc" class="st22" d="M223.8,600.1l1.2,10.5"/>
						<path id="path7049" sodipodi:nodetypes="cc" class="st22" d="M210.2,611l2.3,9.8"/>
						<path id="path7051" sodipodi:nodetypes="cc" class="st22" d="M407.3,580.2l-0.5,12.7"/>
						<path id="path7053" sodipodi:nodetypes="cc" class="st22" d="M439.4,582.3l-0.9,12.6"/>
						<path id="path7055" sodipodi:nodetypes="cc" class="st22" d="M469.5,586l-1.4,12.4"/>
						<path id="path7058" sodipodi:nodetypes="cc" class="st22" d="M498.6,592.7l-1.4,12.2"/>
						<path id="path7060" sodipodi:nodetypes="cc" class="st22" d="M521.3,600.1l-1.2,10.5"/>
						<path id="path7062" sodipodi:nodetypes="cc" class="st22" d="M535.2,611.3l-2.7,8.3"/>
					</g>
					<g id="g7064">
						<path id="path7066" class="st22" d="M372.5,554.4v12.9"/>
						<path id="path7068" sodipodi:nodetypes="cc" class="st22" d="M336.9,555.3l0.5,12.9"/>
						<path id="path7070" sodipodi:nodetypes="cc" class="st22" d="M304.1,557.9l1,13.2"/>
						<path id="path7072" sodipodi:nodetypes="cc" class="st22" d="M273.2,562.6l1.4,13.2"/>
						<path id="path7074" sodipodi:nodetypes="cc" class="st22" d="M243.9,569.7l1.6,12.3"/>
						<path id="path7076" sodipodi:nodetypes="cc" class="st22" d="M220,578.8l2.2,11.2"/>
						<path id="path7078" sodipodi:nodetypes="cc" class="st22" d="M204.3,589.3l2.9,10.9"/>
						<path id="path7080" sodipodi:nodetypes="cc" class="st22" d="M408.2,555.3l-0.5,12.9"/>
						<path id="path7082" sodipodi:nodetypes="cc" class="st22" d="M441,557.9l-1,13.2"/>
						<path id="path7084" sodipodi:nodetypes="cc" class="st22" d="M471.8,562.6l-1.4,13.2"/>
						<path id="path7086" sodipodi:nodetypes="cc" class="st22" d="M501.1,569.7l-1.6,12.3"/>
						<path id="path7088" sodipodi:nodetypes="cc" class="st22" d="M525,578.8l-2.2,11.2"/>
						<path id="path7090" sodipodi:nodetypes="cc" class="st22" d="M540.7,590.6l-3.1,9.5"/>
					</g>
					<g id="g7092">
						<path id="path7094" class="st22" d="M372.5,529.3v12.9"/>
						<path id="path7096" sodipodi:nodetypes="cc" class="st22" d="M302.2,533.1l1,12.9"/>
						<path id="path7098" sodipodi:nodetypes="cc" class="st22" d="M270.4,537.8l1.4,13.2"/>
						<path id="path7100" sodipodi:nodetypes="cc" class="st22" d="M239.1,545.5l2.8,12.7"/>
						<path id="path7102" sodipodi:nodetypes="cc" class="st22" d="M214.5,555.5l2.9,12.1"/>
						<path id="path7104" sodipodi:nodetypes="cc" class="st22" d="M195.9,570.1l4.7,9.4"/>
						<path id="path7106" sodipodi:nodetypes="cc" class="st22" d="M335.8,530.2l0.5,12.9"/>
						<path id="path7108" sodipodi:nodetypes="cc" class="st22" d="M442.9,533.1l-1,12.9"/>
						<path id="path7110" sodipodi:nodetypes="cc" class="st22" d="M474.6,537.8l-1.4,13.2"/>
						<path id="path7112" sodipodi:nodetypes="cc" class="st22" d="M505.9,545.5l-2.8,12.7"/>
						<path id="path7114" sodipodi:nodetypes="cc" class="st22" d="M530.6,555.5l-2.9,11.2"/>
						<path id="path7116" sodipodi:nodetypes="cc" class="st22" d="M549.1,570.1l-4.7,9.4"/>
						<path id="path7118" sodipodi:nodetypes="cc" class="st22" d="M409.2,530.2l-0.5,12.9"/>
					</g>
					<path id="path7120" sodipodi:nodetypes="czc" class="st22" d="M184.8,555.7c0,0,28.3-52.2,187.5-52.2
						c158.8,0,187.5,52,187.5,52"/>
					<path id="path7122" sodipodi:nodetypes="csc" class="st22" d="M563.5,548.4c-9.3-34.5-107.6-59.1-191.1-59.1
						s-181.8,24.6-191.1,59.1"/>
					<g id="g7124">
						<path id="path7126" class="st22" d="M194.9,556.6l-3.8-8.5"/>
						<path id="path7128" class="st22" d="M186.8,538.3l-4-8.8"/>
						<path id="path7130" class="st22" d="M212.1,545.3l-3.7-10.1"/>
						<path id="path7132" class="st22" d="M204.2,524l-3.8-10.2"/>
						<path id="path7134" class="st22" d="M236.7,535.3l-3.5-11.8"/>
						<path id="path7136" class="st22" d="M229.9,512.2l-3.3-11.3"/>
						<path id="path7138" class="st22" d="M268.4,527l-2.8-13.1"/>
						<path id="path7140" class="st22" d="M263.1,502.1l-2.5-12.3"/>
						<path id="path7142" class="st22" d="M297.2,495.2l-1.8-13.1"/>
						<path id="path7145" class="st22" d="M299,508l2,14"/>
						<path id="path7147" class="st22" d="M334.7,519.1l-1-14.6"/>
						<path id="path7149" class="st22" d="M332.7,491l-0.9-14"/>
						<path id="path7151" class="st22" d="M372.5,489.3v-14.6"/>
						<path id="path7153" class="st22" d="M372.5,503.6v14.5"/>
						<path id="path7155" class="st22" d="M550.1,556.6l3.8-8.5"/>
						<path id="path7157" class="st22" d="M558.3,538.3l4-8.8"/>
						<path id="path7159" class="st22" d="M533,545.3l3.7-10.1"/>
						<path id="path7161" class="st22" d="M540.9,524l3.8-10.2"/>
						<path id="path7163" class="st22" d="M508.4,535.3l3.5-11.8"/>
						<path id="path7165" class="st22" d="M515.2,512.2l3.3-11.3"/>
						<path id="path7167" class="st22" d="M476.6,527l2.8-13.1"/>
						<path id="path7169" class="st22" d="M481.9,502.1l2.5-12.3"/>
						<path id="path7171" class="st22" d="M447.8,495.2l1.8-13.1"/>
						<path id="path7173" class="st22" d="M446.1,508l-2,14"/>
						<path id="path7175" class="st22" d="M410.4,519.1l1-14.6"/>
						<path id="path7177" class="st22" d="M412.4,491l0.9-14"/>
					</g>
					<g id="g7179" transform="translate(0.4487662)">
						<g id="g7181">
							<path id="path7183" class="st22" d="M389.6,580.2v-12.8"/>
							<path id="path7185" class="st22" d="M390.1,554.4l0.4-12.6"/>
							<path id="path7187" class="st22" d="M391.6,503.8l0.4-14.2"/>
							<path id="path7189" class="st22" d="M429.6,492.7l-1.5,13.1"/>
							<path id="path7191" class="st22" d="M466,498.6l-2.9,12"/>
							<path id="path7193" class="st22" d="M499.2,507.2l-3.4,10.9"/>
							<path id="path7195" class="st22" d="M529,518.2l-4.4,10.6"/>
							<path id="path7197" class="st22" d="M550,530.6l-4.6,10.6"/>
							<path id="path7199" class="st22" d="M424.9,544.1l-0.9,12"/>
							<path id="path7201" class="st22" d="M422.9,569.5l-1.1,11.5"/>
							<path id="path7203" class="st22" d="M454.5,584l1.1-11.1"/>
							<path id="path7205" class="st22" d="M456.7,560l1.2-12"/>
							<path id="path7207" class="st22" d="M488.5,554l-1.6,12"/>
							<path id="path7209" sodipodi:nodetypes="cc" class="st22" d="M485.1,578.5l-1.5,10.5"/>
							<path id="path7211" sodipodi:nodetypes="cc" class="st22" d="M509.1,596.3l1.7-10.4"/>
							<path id="path7213" class="st22" d="M531.2,605.5l1.3-10.9"/>
							<path id="path7215" class="st22" d="M513.1,573.6l2.4-11.7"/>
							<path id="path7217" sodipodi:nodetypes="cc" class="st22" d="M532.8,583l3.6-11"/>
						</g>
						<g id="g7219" transform="matrix(-1,0,0,1,743.19695,0)">
							<path id="path7221" class="st22" d="M388.6,580.2v-12.8"/>
							<path id="path7223" class="st22" d="M389.2,554.4l0.4-12.6"/>
							<path id="path7225" class="st22" d="M390.6,503.8l0.4-14.2"/>
							<path id="path7227" class="st22" d="M428.7,492.7l-1.5,13.1"/>
							<path id="path7229" class="st22" d="M465,498.6l-2.9,12"/>
							<path id="path7231" class="st22" d="M498.3,507.2l-3.4,10.9"/>
							<path id="path7233" class="st22" d="M528,518.2l-4.4,10.6"/>
							<path id="path7235" class="st22" d="M549,530.6l-4.6,10.6"/>
							<path id="path7237" class="st22" d="M423.9,544.1l-0.9,12"/>
							<path id="path7239" class="st22" d="M421.9,569.5l-1.1,11.5"/>
							<path id="path7241" class="st22" d="M453.5,584l1.1-11.1"/>
							<path id="path7243" class="st22" d="M455.8,560l1.2-12"/>
							<path id="path7245" class="st22" d="M487.6,554l-1.6,12"/>
							<path id="path7247" class="st22" d="M484.2,578.5l-1.5,10.1"/>
							<path id="path7249" sodipodi:nodetypes="cc" class="st22" d="M508.5,596.5l1.7-11.2"/>
							<path id="path7251" class="st22" d="M530.3,605.5l1.3-10.9"/>
							<path id="path7253" class="st22" d="M512.2,573.6l2.4-11.7"/>
							<path id="path7255" sodipodi:nodetypes="cc" class="st22" d="M532.1,583.3l3.3-10.5"/>
						</g>
					</g>
				</g>
				<g id="g7257" transform="matrix(1.3842591,0,0,1.2791792,421.2199,-411.81964)">
					<path id="path7259" sodipodi:nodetypes="csccsssssssssssssccsc" class="st23" d="M372.3,488.1c-4.4-0.1-8.7,2.2-8.8,9.6
						c-0.1,7.4,0.2,18.9,0.2,18.9l3.3,0.3c0-1.2-0.1-11,0-16.9c0-1.6,0-2.9,0.3-4c0.1-0.5,0.3-1,0.5-1.5c0.2-0.4,0.3-0.8,0.6-1.1
						c0.3-0.3,0.4-0.6,0.7-0.8c0.3-0.2,0.5-0.4,0.8-0.5c0.6-0.3,1.8-0.6,2.5-0.6s1.6,0.4,2.2,0.7c0.3,0.1,0.5,0.3,0.8,0.5
						s0.4,0.5,0.6,0.8s0.5,0.7,0.7,1.1c0.2,0.4,0.4,0.9,0.5,1.5c0.3,1.1,0.3,2.5,0.3,4.2c0.2,6.3,0,15.7,0,16.8l3.4-0.3
						c0,0,0.2-10.9,0.1-18.7C380.9,490,376.8,488.2,372.3,488.1L372.3,488.1z"/>
					<path id="path7261" sodipodi:nodetypes="czszcc" class="st24" d="M367,516.6c0,0-0.2-10.6-0.1-17s2.7-8.4,5.4-8.3
						c2.7,0.1,5.3,1.6,5.4,8.4c0.1,6.8,0,16.9,0,16.9L367,516.6z"/>
				</g>
				<path id="path7265" sodipodi:nodetypes="ccccccccccccccccccccccc" class="st25" d="M906.7,85.6v15.2c4.7,2.1,7.1,4.5,7.8,7.1
					c-0.1,30.2-2.4,57.6-9.3,79.3h30.5h2h30.5c-6.9-21.6-9.2-49.1-9.3-79.3c1-3.3,4.2-5.3,7.8-7.1V85.6H958v6.8h-8.6v-6.8h-8.6
					l-0.1,6.8h-8.4l-0.1-6.8h-8.6l0.1,6.8h-8.6v-6.8H906.7z"/>
				<path id="path7267" sodipodi:nodetypes="ccc" class="st26" d="M906.7,100.7h59.7H906.7z"/>
				<path id="path7269" sodipodi:nodetypes="ccc" class="st26" d="M914.7,107.8h43.9H914.7z"/>
				<path id="path7271" sodipodi:nodetypes="cc" class="st26" d="M910,168.5h53.1"/>
				<path id="path7273" sodipodi:nodetypes="cc" class="st26" d="M911.8,156.4h49.4"/>
				<path id="path7275" sodipodi:nodetypes="cc" class="st26" d="M913.1,144.3h46.8"/>
				<path id="path7277" sodipodi:nodetypes="cc" class="st26" d="M914,132.1h45.1"/>
				<path id="path7279" sodipodi:nodetypes="cc" class="st26" d="M914.3,120h44.6"/>
				<path id="path7281" class="st27" d="M927,123.8c-1.7,0.1-3.2,1.4-3.2,5c0,3.8,0.1,11.4,0.1,11.4h7c0,0,0.1-7.2,0-11.2
					c-0.1-4.1-1.8-5-3.5-5C927.2,123.8,927.1,123.8,927,123.8L927,123.8z"/>
				<path id="path7283" class="st27" d="M945.5,123.8c-1.7,0.1-3.2,1.4-3.2,5c0,3.8,0.1,11.3,0.1,11.3h7c0,0,0.1-7.2,0-11.3
					s-1.7-5-3.5-5C945.7,123.8,945.6,123.8,945.5,123.8L945.5,123.8z"/>
				<g id="g7285" transform="matrix(0.9359906,0,0,0.864939,587.997,-265.6023)">
					<path id="path7287" class="st22" d="M362.6,473.6v-4.5"/>
					<path id="path7289" class="st22" d="M382.3,473.6v-4.5"/>
				</g>
				<path id="path7291" class="st26" d="M936.6,144.4v12.2"/>
				<g id="g7293" transform="matrix(0.9359906,0,0,1.0790369,588.1386,-357.79399)">
					<path id="path7295" class="st28" d="M352.4,501.3v-13.4"/>
					<path id="path7297" class="st28" d="M392.2,501.3v-13.4"/>
				</g>
				<g id="g7299" transform="matrix(0.9359906,0,0,0.9140325,588.1386,-304.10323)">
					<path id="path7301" class="st29" d="M352.4,503.9v-13.4"/>
					<path id="path7303" class="st29" d="M392.2,503.9v-13.4"/>
				</g>
				<g id="g7305" transform="matrix(0.9359906,0,0,0.8901632,587.997,-279.20268)">
					<path id="path7307" class="st30" d="M372.4,448.2v14.1"/>
					<path id="path7309" class="st30" d="M352.5,462v-13.4"/>
					<path id="path7311" class="st30" d="M392.3,462v-13.4"/>
				</g>
				<path id="path7313" sodipodi:nodetypes="csccsssssssssssssccsc" class="st31" d="M936.6,149.1c-6.1-0.1-12.1,2.8-12.2,12.3
					c-0.2,9.5,0.2,24.2,0.2,24.2l4.6,0.3c0-1.5-0.2-14-0.1-21.7c0-2,0-3.7,0.5-5.1c0.2-0.7,0.5-1.3,0.7-1.9c0.3-0.5,0.4-1,0.8-1.4
					c0.3-0.4,0.6-0.7,1-1s0.7-0.5,1.2-0.7c0.9-0.3,2.5-0.8,3.4-0.8s2.2,0.5,3.1,0.8c0.4,0.2,0.7,0.4,1.1,0.7c0.4,0.3,0.5,0.6,0.9,1
					c0.3,0.4,0.7,0.9,1,1.4s0.5,1.2,0.7,1.9c0.4,1.4,0.4,3.2,0.4,5.3c0.3,8.1,0,20.1,0,21.5l4.7-0.3c0,0,0.3-13.9,0.1-24
					C948.4,151.6,942.7,149.3,936.6,149.1L936.6,149.1z"/>
				<path id="path7317" sodipodi:nodetypes="czszcc" class="st27" d="M929.2,185.6c0,0-0.3-13.6-0.2-21.8s3.8-10.7,7.5-10.6
					c3.8,0.1,7.3,2.1,7.4,10.8c0.2,8.7,0,21.6,0,21.6H929.2z"/>
				<g id="g7319" transform="matrix(0.9359906,0,0,2.6521178,587.997,-1147.0462)">
					<path id="path7321" class="st32" d="M362.6,477.8v-4.5"/>
					<path id="path7323" class="st32" d="M382.3,477.8v-4.5"/>
				</g>
				<g id="g7325" transform="matrix(-0.9359906,0,0,0.864939,1284.0044,-265.6023)">
					<path id="path7327" sodipodi:nodetypes="cccccccccccccccccc" class="st21" d="M453.6,419l-2.1,3.2l0.7,10.4l4.5-4.3l0.2-8.1
						L453.6,419z M448.5,426.3l-2.1,3l0.7,10.4l4.5-4.3l0.1-7.9L448.5,426.3z M443.4,433.8l-1.9,2.5l0.7,10.4l4.5-4.3V435
						L443.4,433.8z"/>
					<path id="path7329" sodipodi:nodetypes="cccccc" class="st21" d="M485.5,420l-3.2,3.1v5.9h5.8v-6.9L485.5,420z"/>
					<path id="path7331" sodipodi:nodetypes="cccccc" class="st21" d="M499.1,424.3l-3.4,3.1v5.9h5.8v-6.9L499.1,424.3z"/>
					<path id="path7333" sodipodi:nodetypes="cccccccccccccccccccccc" class="st33" d="M458.7,411.7l-2.3,3.2v8.4l-2.7,3v-7.5
						l-2.5,3.5v6.9l-2.7,3v-6l-2.5,3.6v5.4l-2.7,3v-4.6l-2.5,3.6l0.1,8.9c2.1,2.6,4.4,3.1,4.6,7.2c-0.9,6.6-2.3,16.9-5.3,27.4l5.9,1
						c-1.8,12.6-6.7,27.8-11,40.4l21.8,3.9l10.7-95L458.7,411.7z"/>
					<path id="path7335" sodipodi:nodetypes="cccccc" class="st21" d="M472,415.8l-2.9,3.2v5.9h5.8V418L472,415.8z"/>
					<g id="g7337" transform="matrix(0.7853533,0.2247816,-0.1448418,0.9793594,270.19302,-60.535167)">
						<path id="path7339" sodipodi:nodetypes="ccccccccccccccccccccccc" class="st34" d="M315.8,409.5l2.6,17c5,2.5,4.9,5.9,5.6,8.9
							c0.1,34.9-2.2,66.5-9.5,91.5l32.6,0.2h2.2l32.6,0.2c-7.6-25-10.2-56.7-10.5-91.6c1-3.8,3.5-5.9,7.4-7.9l-2.6-17l-8.6-0.2
							l1.2,6.8l-8.5-0.3l-1.4-6.7l-8.6-0.2l1.3,7.1l-8.4-0.2l-1.5-7l-8.6-0.2l1.3,7.5l-8.4-0.1l-1.6-7.5L315.8,409.5z"/>
						<path id="path7341" sodipodi:nodetypes="ccc" class="st35" d="M318.5,426.5l60.1,1.1L318.5,426.5z"/>
						<path id="path7343" sodipodi:nodetypes="ccc" class="st35" d="M324.2,435.4l46.9,0.3L324.2,435.4z"/>
						<path id="path7345" sodipodi:nodetypes="cc" class="st35" d="M319.7,505.4l56.8,0.4"/>
						<path id="path7347" sodipodi:nodetypes="cc" class="st35" d="M321.5,491.4l52.8,0.4"/>
						<path id="path7349" sodipodi:nodetypes="cc" class="st35" d="M322.8,477.4l50.1,0.4"/>
						<path id="path7351" sodipodi:nodetypes="cc" class="st35" d="M323.7,463.4l48.3,0.3"/>
						<path id="path7353" sodipodi:nodetypes="cc" class="st35" d="M323.9,449.4l47.7,0.3"/>
						<path id="path7355" class="st36" d="M337.6,453.9c-1.8,0.1-3.4,1.5-3.4,5.7c0,4.4,0.2,13.1,0.2,13.1h7.5c0,0,0.1-8.3,0-13
							s-1.9-5.8-3.8-5.9C337.8,453.9,337.7,453.9,337.6,453.9L337.6,453.9z"/>
						<path id="path7357" class="st36" d="M357.4,454c-1.8,0.1-3.4,1.5-3.4,5.7c0,4.4,0.2,13.1,0.2,13.1l7.5,0.1c0,0,0.1-8.3-0.1-13
							c-0.1-4.7-1.9-5.8-3.8-5.9C357.6,454,357.5,454,357.4,454L357.4,454z"/>
						<g id="g7359">
							<path id="path7361" class="st35" d="M338,477.3l0-4.5"/>
							<path id="path7363" class="st35" d="M357.8,477.4v-4.5"/>
						</g>
						<path id="path7365" class="st35" d="M347.9,477.8l0.1,14.1"/>
						<g id="g7367" transform="matrix(1,0,0,1.2475295,0.1512262,-106.58752)">
							<path id="path7369" class="st37" d="M328.1,504.2l-0.1-13.3"/>
							<path id="path7371" class="st37" d="M368,504.4l-0.1-13.3"/>
						</g>
						<g id="g7373" transform="matrix(1,0,0,1.0567595,0.1512262,-44.512883)">
							<path id="path7375" class="st38" d="M327.9,507.3l-0.1-13.3"/>
							<path id="path7377" class="st38" d="M367.8,507.5l-0.1-13.3"/>
						</g>
						<g id="g7379" transform="matrix(1,0,0,1.0291629,0,-15.724101)">
							<path id="path7381" class="st39" d="M347.8,451.9l0.1,14.1"/>
							<path id="path7383" class="st39" d="M327.9,465.5l-0.1-13.3"/>
							<path id="path7385" class="st39" d="M367.8,465.8l-0.1-13.3"/>
						</g>
						<path id="path7387" sodipodi:nodetypes="csccsssssssssssssccsc" class="st40" d="M348,483.2c-6.5-0.2-12.9,3.1-13,14.1
							s0.4,27.9,0.4,27.9l4.9,0.4c0-1.7-0.3-16.2-0.2-25c0-2.4,0-4.3,0.5-5.9c0.2-0.8,0.5-1.5,0.8-2.1s0.5-1.2,0.8-1.6
							c0.4-0.5,0.7-0.9,1.1-1.2s0.8-0.6,1.2-0.8c0.9-0.4,2.7-0.9,3.7-0.9s2.4,0.6,3.3,1c0.5,0.2,0.7,0.5,1.1,0.8s0.6,0.7,0.9,1.1
							c0.4,0.5,0.8,1,1.1,1.6c0.3,0.6,0.6,1.4,0.8,2.2c0.4,1.6,0.4,3.6,0.5,6.1c0.3,9.3,0.1,23.2,0.1,24.8l5.1-0.3
							c0,0,0.3-16.1-0.1-27.7C360.7,486.1,354.5,483.4,348,483.2L348,483.2z"/>
						<path id="path7389" sodipodi:nodetypes="czszcc" class="st36" d="M340.3,525.2c0,0-0.4-15.7-0.3-25.2c0.1-9.4,4-12.3,8-12.1
							s7.8,2.5,8,12.5s0.1,24.9,0.1,24.9L340.3,525.2z"/>
						<g id="g7391" transform="matrix(1,0,0,3.0662484,0,-1019.0821)">
							<path id="path7393" class="st41" d="M337.9,479l-0.1-4.5"/>
							<path id="path7395" class="st41" d="M357.7,479.1l-0.1-4.5"/>
						</g>
					</g>
					<path id="path7397" sodipodi:nodetypes="cc" class="st22" d="M458.5,428.9l-17.4,17.6"/>
					<path id="path7399" sodipodi:nodetypes="cc" class="st22" d="M461.5,438.9l-16,14"/>
					<path id="path7401" sodipodi:nodetypes="cc" class="st22" d="M447.5,506.3l-8.1,1"/>
					<path id="path7403" sodipodi:nodetypes="cc" class="st22" d="M451.9,493.1c-1.1,0-9.5,1.7-9.5,1.7"/>
					<path id="path7405" sodipodi:nodetypes="cc" class="st22" d="M454.6,479.6l-9.1,1.8"/>
					<path id="path7407" class="st22" d="M456.9,466.1l-14.3,4.4"/>
					<path id="path7409" sodipodi:nodetypes="cc" class="st22" d="M459.4,452.5l-15,8.4"/>
					<path id="path7411" class="st22" d="M447,494l-3.6,12.6"/>
					<path id="path7413" sodipodi:nodetypes="cc" class="st22" d="M449.6,480.4c1-4.3,2-8.6,2.8-12.8"/>
					<path id="path7415" sodipodi:nodetypes="cc" class="st22" d="M454.7,454.8l1.6-11.4"/>
					<path id="path7417" sodipodi:nodetypes="cc" class="st22" d="M447.8,459l1.2-9.2"/>
					<path id="path7419" sodipodi:nodetypes="cc" class="st22" d="M443.6,481.3c1.1-3.6,2.1-8.3,2.7-12"/>
					<path id="path7421" class="st22" d="M450.9,457.1l-1.8,11.1"/>
				</g>
				<g id="g7425" transform="matrix(-0.9359906,0,0,0.864939,1297.4418,-197.64081)">
					<path id="path7427" sodipodi:nodetypes="csccsssssssssssssccsc" class="st42" d="M476.1,481.2c-5.1-1.7-10.6,0.1-12.2,10.8
						c-1.7,10.7-3.7,27.4-3.7,27.4l3.8,1.5c0.2-1.7,2.1-15.9,3.5-24.5c0.4-2.3,0.6-4.2,1.2-5.7c0.3-0.7,0.6-1.4,0.9-1.9
						s0.5-1,0.9-1.4s0.6-0.7,1-0.9s0.7-0.4,1.1-0.5c0.8-0.2,2.2-0.3,3,0s1.8,1.1,2.5,1.7c0.3,0.3,0.5,0.6,0.8,1s0.4,0.8,0.6,1.3
						s0.4,1.2,0.6,1.8s0.2,1.5,0.3,2.3c0.1,1.7-0.2,3.7-0.5,6.1c-1.1,9.2-3.3,22.7-3.5,24.3l4,0.8c0,0,2.5-15.7,3.9-27.1
						C485.7,486.9,481.2,482.9,476.1,481.2L476.1,481.2z"/>
					<path id="path7429" sodipodi:nodetypes="czszcc" class="st43" d="M464,520.6c0,0,2-15.5,3.4-24.7s4.9-11.2,8-10.1
						c3.1,1.1,5.8,4.2,4.5,14c-1.3,9.9-3.5,24.5-3.5,24.5L464,520.6z"/>
				</g>
				<g id="g7431" transform="matrix(0.9359906,0,0,0.864939,587.997,-265.6023)">
					<path id="path7433" sodipodi:nodetypes="cccccccccccccccccc" class="st21" d="M454.9,419l-2.1,3.2l0.7,10.4l4.5-4.3l0.2-8.1
						L454.9,419z M449.8,426.3l-2.1,3l0.7,10.4l4.5-4.3l0.1-7.9L449.8,426.3z M444.7,433.8l-1.9,2.5l0.7,10.4l4.5-4.3V435
						L444.7,433.8z"/>
					<path id="path7435" sodipodi:nodetypes="cccccc" class="st21" d="M486.7,420l-3.2,3.1v5.9h5.8v-6.9L486.7,420z"/>
					<path id="path7437" sodipodi:nodetypes="cccccc" class="st21" d="M500.3,424.3l-3.4,3.1v5.9h5.8v-6.9L500.3,424.3z"/>
					<path id="path7439" sodipodi:nodetypes="cccccccccccccccccccccc" class="st33" d="M459.9,411.7l-2.3,3.2v8.4l-2.7,3v-7.5
						l-2.5,3.5v6.9l-2.7,3v-6l-2.5,3.6v5.4l-2.7,3v-4.6l-2.5,3.6l0.1,8.9c2.1,2.6,4.4,3.1,4.6,7.2c-0.9,6.6-2.3,16.9-5.3,27.4l5.9,1
						c-1.8,12.6-6.7,27.8-11,40.4l21.8,3.9l10.7-95L459.9,411.7z"/>
					<path id="path7441" sodipodi:nodetypes="cccccc" class="st21" d="M473.2,415.8l-2.9,3.2v5.9h5.8V418L473.2,415.8z"/>
					<path id="path7443" sodipodi:nodetypes="ccccccccccccccccccccccc" class="st44" d="M460.2,411.5l-0.4,17.2
						c3.6,3.5,3,6.9,3.1,10c-5,34.2-11.3,64.7-20.7,87.4l25.6,7.6l1.7,0.5l25.6,7.6c-2.3-26.2,0.2-57.8,5.1-92.1
						c1.3-3.5,3.6-5,6.9-6.1l0.4-17.2l-6.8-2.1l-0.1,7L494,429l-0.1-6.9l-6.8-2.1v7.2l-6.6-2.1l-0.2-7.2l-6.8-2.1v7.6l-6.6-2
						l-0.2-7.7L460.2,411.5z"/>
					<path id="path7445" sodipodi:nodetypes="ccc" class="st22" d="M459.8,428.7l47,14.6L459.8,428.7z"/>
					<path id="path7447" sodipodi:nodetypes="ccc" class="st22" d="M463.1,438.7l36.8,10.9L463.1,438.7z"/>
					<path id="path7449" sodipodi:nodetypes="cc" class="st22" d="M449.3,506.3l44.6,13.2"/>
					<path id="path7451" sodipodi:nodetypes="cc" class="st22" d="M452.8,493l41.4,12.2"/>
					<path id="path7453" sodipodi:nodetypes="cc" class="st22" d="M455.9,479.6l39.3,11.6"/>
					<path id="path7455" sodipodi:nodetypes="cc" class="st22" d="M458.5,466.1l37.9,11.2"/>
					<path id="path7457" sodipodi:nodetypes="cc" class="st22" d="M460.8,452.4l37.4,11.1"/>
					<path id="path7459" class="st43" d="M470.8,459.9c-1.4-0.3-2.9,0.7-3.5,4.8c-0.7,4.3-1.8,12.9-1.8,12.9l5.9,1.7
						c0,0,1.3-8.1,1.8-12.7c0.6-4.6-0.7-6.1-2.2-6.6C471,459.9,470.9,459.9,470.8,459.9L470.8,459.9z"/>
					<path id="path7461" class="st43" d="M486.4,464.5c-1.4-0.3-2.9,0.7-3.5,4.8c-0.7,4.3-1.8,12.8-1.8,12.8l5.9,1.8
						c0,0,1.2-8.1,1.8-12.7c0.6-4.6-0.7-6.1-2.1-6.6C486.5,464.5,486.5,464.5,486.4,464.5L486.4,464.5z"/>
					<g id="g7463" transform="matrix(0.7853533,0.2247816,-0.1448418,0.9793594,270.68236,-60.535167)">
						<path id="path7465" class="st35" d="M339,477v-4.5"/>
						<path id="path7467" class="st35" d="M358.8,477.2v-4.5"/>
					</g>
					<path id="path7469" class="st22" d="M475.5,485.6l-2,13.8"/>
					<g id="g7471" transform="matrix(0.7853533,0.2247816,-0.1806944,1.2217797,286.23945,-164.88866)">
						<path id="path7473" class="st37" d="M329,504l-0.1-13.3"/>
						<path id="path7475" class="st37" d="M368.9,504.2l-0.1-13.3"/>
					</g>
					<g id="g7477" transform="matrix(0.7853533,0.2247816,-0.1530629,1.0349473,277.24845,-104.09528)">
						<path id="path7479" class="st38" d="M328.9,507.1l-0.1-13.3"/>
						<path id="path7481" class="st38" d="M368.7,507.3l-0.1-13.3"/>
					</g>
					<g id="g7483" transform="matrix(0.7853533,0.2247816,-0.1490658,1.0079204,272.95987,-75.934713)">
						<path id="path7485" class="st39" d="M348.7,451.7l0.1,14.1"/>
						<path id="path7487" class="st39" d="M328.9,465.3l-0.1-13.3"/>
						<path id="path7489" class="st39" d="M368.7,465.6l-0.1-13.3"/>
					</g>
					<g id="g7491">
						<path id="path7493" sodipodi:nodetypes="csccsssssssssssssccsc" class="st42" d="M474.8,490.9c-5.1-1.7-10.6,0.1-12.2,10.8
							c-1.7,10.7-3.7,27.4-3.7,27.4l3.8,1.5c0.2-1.7,2.1-15.9,3.5-24.5c0.4-2.3,0.6-4.2,1.2-5.7c0.3-0.7,0.6-1.4,0.9-1.9
							s0.5-1,0.9-1.4s0.6-0.7,1-0.9s0.7-0.4,1.1-0.5c0.8-0.2,2.2-0.3,3,0s1.8,1.1,2.5,1.7c0.3,0.3,0.5,0.6,0.8,1s0.4,0.8,0.6,1.3
							s0.4,1.2,0.6,1.8c0.1,0.7,0.2,1.5,0.3,2.3c0.1,1.7-0.2,3.7-0.5,6.1c-1.1,9.2-3.3,22.7-3.5,24.3l4,0.8c0,0,2.5-15.7,3.9-27.1
							C484.3,496.6,479.9,492.6,474.8,490.9L474.8,490.9z"/>
						<path id="path7495" sodipodi:nodetypes="czszcc" class="st43" d="M462.7,530.4c0,0,2-15.5,3.4-24.7c1.4-9.2,4.9-11.2,8-10.1
							c3.1,1.1,5.8,4.2,4.5,14c-1.3,9.9-3.5,24.5-3.5,24.5L462.7,530.4z"/>
					</g>
					<g id="g7497" transform="matrix(0.7853533,0.2247816,-0.4441209,3.0029592,418.28805,-1058.5828)">
						<path id="path7499" class="st41" d="M338.8,478.9l-0.1-4.5"/>
						<path id="path7501" class="st41" d="M358.6,479l-0.1-4.5"/>
					</g>
					<path id="path7503" sodipodi:nodetypes="cc" class="st22" d="M459.7,428.9l-17.4,17.6"/>
					<path id="path7505" sodipodi:nodetypes="cc" class="st22" d="M462.8,438.9l-16,14"/>
					<path id="path7507" sodipodi:nodetypes="cc" class="st22" d="M448.7,506.3l-8.1,1"/>
					<path id="path7509" sodipodi:nodetypes="cc" class="st22" d="M453.1,493.1c-1.1,0-9.5,1.7-9.5,1.7"/>
					<path id="path7511" sodipodi:nodetypes="cc" class="st22" d="M455.8,479.6l-9.1,1.8"/>
					<path id="path7513" class="st22" d="M458.2,466.1l-14.3,4.4"/>
					<path id="path7515" sodipodi:nodetypes="cc" class="st22" d="M460.6,452.5l-15,8.4"/>
					<path id="path7517" class="st22" d="M448.3,494l-3.6,12.6"/>
					<path id="path7519" sodipodi:nodetypes="cc" class="st22" d="M450.9,480.4c1-4.3,2-8.6,2.8-12.8"/>
					<path id="path7521" sodipodi:nodetypes="cc" class="st22" d="M456,454.8l1.6-11.4"/>
					<path id="path7523" sodipodi:nodetypes="cc" class="st22" d="M449.1,459l1.2-9.2"/>
					<path id="path7525" sodipodi:nodetypes="cc" class="st22" d="M444.8,481.3c1.1-3.6,2.1-8.3,2.7-12"/>
					<path id="path7527" class="st22" d="M452.1,457.1l-1.8,11.1"/>
				</g>
				<g id="g7531" transform="matrix(0.9359906,0,0,0.864939,575.0177,-197.64081)">
					<path id="path7533" sodipodi:nodetypes="csccsssssssssssssccsc" class="st42" d="M476.9,481.2c-5.1-1.7-10.6,0.1-12.2,10.8
						c-1.7,10.7-3.7,27.4-3.7,27.4l3.8,1.5c0.2-1.7,2.1-15.9,3.5-24.5c0.4-2.3,0.6-4.2,1.2-5.7c0.3-0.7,0.6-1.4,0.9-1.9
						s0.5-1,0.9-1.4s0.6-0.7,1-0.9s0.7-0.4,1.1-0.5c0.8-0.2,2.2-0.3,3,0s1.8,1.1,2.5,1.7c0.3,0.3,0.5,0.6,0.8,1s0.4,0.8,0.6,1.3
						s0.4,1.2,0.6,1.8c0.1,0.7,0.2,1.5,0.3,2.3c0.1,1.7-0.2,3.7-0.5,6.1c-1.1,9.2-3.3,22.7-3.5,24.3l4,0.8c0,0,2.5-15.7,3.9-27.1
						C486.4,486.9,482,482.9,476.9,481.2L476.9,481.2z"/>
					<path id="path7535" sodipodi:nodetypes="czszcc" class="st43" d="M464.8,520.6c0,0,2-15.5,3.4-24.7s4.9-11.2,8-10.1
						c3.1,1.1,5.8,4.2,4.5,14c-1.3,9.9-3.5,24.5-3.5,24.5L464.8,520.6z"/>
				</g>
				<g id="g7553" transform="matrix(0.8670328,0.00848699,-0.00991405,0.8648905,633.31989,-269.37206)">
					<path id="path7555" sodipodi:nodetypes="cccccc" class="st45" d="M572.9,465.8l-4.3,1.8l0.7,6.9l5.1-0.2l0.2-6.9L572.9,465.8z"
						/>
					<path id="path7557" sodipodi:nodetypes="cccccc" class="st45" d="M581.6,473.6l-4.3,1.8l0.7,6.9l5.1-0.2l0.2-6.9L581.6,473.6z"
						/>
					<path id="path7559" sodipodi:nodetypes="cccccc" class="st45" d="M564,457.8l-4.3,1.8l0.7,6.9l5.1-0.2l0.2-6.9L564,457.8z"/>
					<path id="path7561" sodipodi:nodetypes="cccccc" class="st45" d="M541.9,455.3l2.5,2l0.8,5.3l-3.1,1.7l-1.3-8.2L541.9,455.3z"
						/>
					<path id="path7563" sodipodi:nodetypes="cccccc" class="st45" d="M548.1,452.2l2.5,2l0.8,5.3l-3.1,1.7L547,453L548.1,452.2z"/>
					<path id="path7565" sodipodi:nodetypes="cccccc" class="st45" d="M535.4,458.4l2.5,2l0.8,5.3l-3.1,1.7l-1.3-8.2L535.4,458.4z"
						/>
					<path id="path7567" sodipodi:nodetypes="cccccccccccccccccccccccc" class="st46" d="M548.2,452.1l-3,1.5l0.8,6.7l-3.2,1.5
						l-0.8-6.6l-3.2,1.6l0.7,6.5l-3.2,1.4l-0.8-6.3l-3.2,1.6l1.5,11.9c0.9,2,1.9,4.1,1.5,6.1c-3.4,9-8.3,17.4-14,25.5l6.6,2.9
						c-4.8,10.5-10.5,20.7-17.6,30.2l23.4,13.4l33.8-67.6l-8.6-16.4l-2.3-14.6l-2.7-2.3l-2.7,1.3l0.8,6.9l-3.2,1.5L548.2,452.1z"/>
					<path id="path7569" sodipodi:nodetypes="ccccccccccccccccccccccc" class="st47" d="M554.8,449.5l1.3,12.1
						c0.9,2.6,1.1,5.2,0,7.8c-9.8,26-24.1,56.1-34.8,70.8l20.5,9.7l1.1,1.2l16.3,17.5c3.3-22.6,11.7-49,21.5-75.1
						c1.2-1.4,4.5-3.4,6-3.8l-0.5-11.8l-4.5-4.1l0.1,5.3l-4.5-4.1l-0.1-5.3l-4.5-4.1l0.1,5.4l-4.4-4.1l-0.3-5.1l-4.5-4.2l0.2,5.3
						l-4.5-4.1l-0.2-5.2L554.8,449.5z"/>
					<path id="path7571" sodipodi:nodetypes="ccc" class="st48" d="M556,461.9l30.6,27.8L556,461.9z"/>
					<g id="g7573" transform="matrix(0.8790016,-0.1392886,0.04891008,0.9945481,45.385186,88.851643)">
						<path id="path7575" sodipodi:nodetypes="ccc" class="st49" d="M554.8,461.5l27.3,26.6L554.8,461.5z"/>
						<path id="path7577" sodipodi:nodetypes="cc" class="st49" d="M524.5,511.2l33.3,32.6"/>
						<path id="path7579" sodipodi:nodetypes="cc" class="st49" d="M531.3,502.1L562,532"/>
						<path id="path7581" sodipodi:nodetypes="cc" class="st49" d="M537.5,492.3l29.1,28.4"/>
						<path id="path7583" sodipodi:nodetypes="cc" class="st49" d="M543.5,482.3l28,27.3"/>
						<path id="path7585" sodipodi:nodetypes="cc" class="st49" d="M549.1,471.9l27.7,27"/>
						<path id="path7587" class="st50" d="M555.3,482.9c-1.1-0.9-2.6-0.8-4.2,2.4c-1.7,3.3-5,9.9-5,9.9l4.4,4.2c0,0,3.3-6.2,5-9.8
							c1.8-3.6,1.1-5.4,0.1-6.5C555.4,483.1,555.4,483,555.3,482.9L555.3,482.9z"/>
						<path id="path7589" class="st50" d="M566.8,494.1c-1.1-0.9-2.6-0.8-4.2,2.4c-1.7,3.3-5,9.9-5,9.9l4.4,4.3c0,0,3.3-6.2,5-9.8
							c1.8-3.6,1.1-5.4,0.1-6.5C566.9,494.3,566.9,494.2,566.8,494.1L566.8,494.1z"/>
						<path id="path7591" class="st49" d="M546.5,500.7l1.7-3.4"/>
						<path id="path7593" class="st49" d="M558,512l1.7-3.4"/>
						<path id="path7595" class="st49" d="M552,506.7l-5.5,10.7"/>
						<path id="path7597" sodipodi:nodetypes="cc" class="st49" d="M522.1,531l7.5-14.4"/>
						<path id="path7599" class="st49" d="M546.3,551.7l6.4-12.6"/>
						<path id="path7601" class="st49" d="M535.1,505.9l5.5-10.6"/>
						<path id="path7603" class="st49" d="M558.2,528.5l5.5-10.6"/>
						<path id="path7605" class="st49" d="M563,485.2l-5.6,11"/>
						<path id="path7607" class="st49" d="M546,484.6l5.3-10.4"/>
						<path id="path7609" class="st49" d="M569.2,507.2l5.3-10.4"/>
						<g id="g7611" transform="matrix(1.0352063,0.2419257,0.0548225,1.1408476,-51.855495,-229.45666)">
							<path id="path7613" sodipodi:nodetypes="csccsssssssssssssccsc" class="st51" d="M553.2,531.5c-3.5-2.6-8.3-2.5-12.9,5.6
								c-4.6,8.1-11.4,21-11.4,21l2.5,2.2c0.7-1.3,6.6-12.2,10.3-18.8c1-1.8,1.8-3.2,2.7-4.2c0.5-0.5,0.9-0.9,1.3-1.3
								c0.4-0.4,0.7-0.7,1.1-0.9c0.4-0.2,0.7-0.4,1.1-0.5c0.4-0.1,0.7-0.2,1-0.1c0.7,0.1,1.8,0.3,2.3,0.7s1.1,1.3,1.4,2
								c0.2,0.3,0.2,0.6,0.3,1s0,0.7,0,1.2s0,1-0.1,1.6s-0.3,1.2-0.5,1.9c-0.4,1.4-1.3,2.9-2.3,4.8c-3.7,7.1-9.6,17.4-10.3,18.6
								l2.9,1.7c0,0,6.8-11.9,11.5-20.7C558.9,538.4,556.7,534.1,553.2,531.5z"/>
							<path id="path7615" sodipodi:nodetypes="czszcc" class="st52" d="M531.5,560c0,0,6.4-11.9,10.3-18.9c4-7,7.3-7.7,9.4-6.1
								c2.1,1.6,3.2,4.8-0.8,12.4c-4,7.6-10.3,18.7-10.3,18.7L531.5,560z"/>
						</g>
						<path id="path7617" class="st49" d="M557.2,479.8l5.3-10.4"/>
						<path id="path7619" class="st49" d="M568.7,491l5.3-10.4"/>
					</g>
					<path id="path7621" class="st48" d="M555.7,470.8l-20.5,7.7"/>
					<path id="path7623" class="st48" d="M556.4,462.2l-22.4,9.6"/>
					<path id="path7625" class="st48" d="M551.3,481.8l-19.7,5"/>
					<path id="path7627" class="st48" d="M546.6,492.9c-0.6,0-20.9,4.4-20.9,4.4"/>
					<path id="path7629" class="st48" d="M541.5,504l-13.4,2.4"/>
					<path id="path7631" class="st48" d="M536.4,514.2l-13.2,1.9"/>
					<path id="path7633" sodipodi:nodetypes="cc" class="st48" d="M531.3,524.4L517,527"/>
					<path id="path7635" class="st48" d="M539,477l-3.5,8.7"/>
					<path id="path7637" class="st48" d="M549.6,473.1l-3.8,10.2"/>
					<path id="path7639" class="st48" d="M530.2,496l-5.3,9.2"/>
					<path id="path7641" class="st48" d="M540.5,494.1l-5.4,10.9"/>
					<path id="path7643" class="st48" d="M529.8,515.1l-5.6,10.6"/>
					<path id="path7645" class="st48" d="M534.9,495.2l5.3-10.6"/>
				</g>
				<g id="g7647" transform="matrix(-0.8670328,0.00848699,0.00991405,0.8648905,1237.9996,-269.37206)">
					<path id="path7649" sodipodi:nodetypes="cccccc" class="st45" d="M571.9,465.8l-4.3,1.8l0.7,6.9l5.1-0.2l0.2-6.9L571.9,465.8z"
						/>
					<path id="path7651" sodipodi:nodetypes="cccccc" class="st45" d="M580.6,473.7l-4.3,1.8l0.7,6.9l5.1-0.2l0.2-6.9L580.6,473.7z"
						/>
					<path id="path7653" sodipodi:nodetypes="cccccc" class="st45" d="M563,457.9l-4.3,1.8l0.7,6.9l5.1-0.2l0.2-6.9L563,457.9z"/>
					<path id="path7655" sodipodi:nodetypes="cccccc" class="st45" d="M540.8,455.3l2.5,2l0.8,5.3l-3.1,1.7l-1.3-8.2L540.8,455.3z"
						/>
					<path id="path7657" sodipodi:nodetypes="cccccc" class="st45" d="M547.1,452.2l2.5,2l0.8,5.3l-3.1,1.7L546,453L547.1,452.2z"/>
					<path id="path7659" sodipodi:nodetypes="cccccc" class="st45" d="M534.3,458.5l2.5,2l0.8,5.3l-3.1,1.7l-1.3-8.2L534.3,458.5z"
						/>
					<path id="path7661" sodipodi:nodetypes="cccccccccccccccccccccccc" class="st46" d="M547.1,452.1l-3,1.5l0.8,6.7l-3.2,1.5
						l-0.8-6.6l-3.2,1.6l0.7,6.5l-3.2,1.4l-0.8-6.3l-3.1,1.6l1.5,11.9c0.9,2,1.9,4.1,1.5,6.1c-3.4,9-8.3,17.4-14,25.5l6.6,2.9
						c-4.8,10.5-10.5,20.7-17.6,30.2l23.4,13.4l33.8-67.6l-8.6-16.4l-2.3-14.6l-2.7-2.3l-2.7,1.3l0.8,6.9l-3.2,1.5L547.1,452.1z"/>
					<path id="path7663" sodipodi:nodetypes="ccccccccccccccccccccccc" class="st47" d="M553.8,449.6l1.3,12.1
						c0.9,2.6,1.1,5.2,0,7.8c-9.8,26-24.1,56.1-34.8,70.8l20.5,9.7l1.1,1.2l16.3,17.5c3.3-22.6,11.7-49,21.5-75.1
						c1.2-1.4,4.5-3.4,6-3.8l-0.5-11.8l-4.5-4.1l0.1,5.3l-4.5-4.2l-0.1-5.3l-4.5-4.1l0.1,5.4l-4.4-4.1l-0.3-5.1l-4.5-4.2l0.2,5.3
						l-4.5-4.1l-0.2-5.2L553.8,449.6z"/>
					<path id="path7665" sodipodi:nodetypes="ccc" class="st48" d="M554.9,461.9l30.6,27.8L554.9,461.9z"/>
					<g id="g7667" transform="matrix(0.8790016,-0.1392886,0.04891008,0.9945481,45.385186,88.851643)">
						<path id="path7669" sodipodi:nodetypes="ccc" class="st49" d="M553.6,461.4l27.3,26.6L553.6,461.4z"/>
						<path id="path7671" sodipodi:nodetypes="cc" class="st49" d="M523.3,511l33.3,32.6"/>
						<path id="path7673" sodipodi:nodetypes="cc" class="st49" d="M530.1,502l30.7,29.9"/>
						<path id="path7675" sodipodi:nodetypes="cc" class="st49" d="M536.4,492.2l29.1,28.4"/>
						<path id="path7677" sodipodi:nodetypes="cc" class="st49" d="M542.3,482.1l28,27.3"/>
						<path id="path7679" sodipodi:nodetypes="cc" class="st49" d="M547.9,471.7l27.7,27"/>
						<path id="path7681" class="st50" d="M554.1,482.8c-1.1-0.9-2.6-0.8-4.2,2.4c-1.7,3.3-5,9.9-5,9.9l4.4,4.2c0,0,3.3-6.2,5-9.8
							c1.8-3.6,1.1-5.4,0.1-6.5C554.3,482.9,554.2,482.8,554.1,482.8L554.1,482.8z"/>
						<path id="path7683" class="st50" d="M565.6,494c-1.1-0.9-2.6-0.8-4.2,2.4c-1.7,3.3-5,9.9-5,9.9l4.4,4.3c0,0,3.3-6.2,5-9.8
							c1.8-3.6,1.1-5.4,0.1-6.5C565.8,494.1,565.7,494.1,565.6,494L565.6,494z"/>
						<path id="path7685" class="st49" d="M545.3,500.6l1.7-3.4"/>
						<path id="path7687" class="st49" d="M556.8,511.8l1.7-3.4"/>
						<path id="path7689" class="st49" d="M550.9,506.5l-5.5,10.7"/>
						<path id="path7691" sodipodi:nodetypes="cc" class="st49" d="M520.9,530.9l7.5-14.4"/>
						<path id="path7693" class="st49" d="M545.1,551.6l6.4-12.6"/>
						<path id="path7695" class="st49" d="M533.9,505.7l5.5-10.6"/>
						<path id="path7697" class="st49" d="M557.1,528.3l5.5-10.6"/>
						<path id="path7699" class="st49" d="M561.9,485.1l-5.6,11"/>
						<path id="path7701" class="st49" d="M544.8,484.4l5.3-10.4"/>
						<path id="path7703" class="st49" d="M568,507l5.3-10.4"/>
						<g id="g7705" transform="matrix(1.0352063,0.2419257,0.0548225,1.1408476,-51.855495,-229.45666)">
							<path id="path7707" sodipodi:nodetypes="csccsssssssssssssccsc" class="st51" d="M552.1,531.6c-3.5-2.6-8.3-2.5-12.9,5.6
								c-4.6,8.1-11.4,21-11.4,21l2.5,2.2c0.7-1.3,6.6-12.2,10.3-18.8c1-1.8,1.8-3.2,2.7-4.2c0.5-0.5,0.9-0.9,1.3-1.3
								c0.4-0.4,0.7-0.7,1.1-0.9c0.4-0.2,0.7-0.4,1.1-0.5c0.4-0.1,0.7-0.2,1-0.1c0.7,0.1,1.8,0.3,2.3,0.7s1.1,1.3,1.4,2
								c0.2,0.3,0.2,0.6,0.3,1s0,0.7,0,1.2s0,1-0.1,1.6s-0.3,1.2-0.5,1.9c-0.4,1.4-1.3,2.9-2.3,4.8c-3.7,7.1-9.6,17.4-10.3,18.6
								l2.9,1.7c0,0,6.8-11.9,11.5-20.7C557.7,538.5,555.5,534.2,552.1,531.6z"/>
							<path id="path7709" sodipodi:nodetypes="czszcc" class="st52" d="M530.4,560.1c0,0,6.4-11.9,10.3-18.9c4-7,7.3-7.7,9.4-6.1
								c2.1,1.6,3.2,4.8-0.8,12.4c-4,7.6-10.3,18.7-10.3,18.7L530.4,560.1z"/>
						</g>
						<path id="path7711" class="st49" d="M556,479.7l5.3-10.4"/>
						<path id="path7713" class="st49" d="M567.5,490.9l5.3-10.4"/>
					</g>
					<path id="path7715" class="st48" d="M554.7,470.8l-20.5,7.7"/>
					<path id="path7717" class="st48" d="M555.3,462.2l-22.4,9.6"/>
					<path id="path7719" class="st48" d="M550.3,481.8l-19.7,5"/>
					<path id="path7721" class="st48" d="M545.6,492.9c-0.6,0-20.9,4.4-20.9,4.4"/>
					<path id="path7723" class="st48" d="M540.5,504l-13.4,2.4"/>
					<path id="path7725" class="st48" d="M535.4,514.2l-13.2,1.9"/>
					<path id="path7727" sodipodi:nodetypes="cc" class="st48" d="M530.3,524.4L516,527"/>
					<path id="path7729" class="st48" d="M538,477l-3.5,8.7"/>
					<path id="path7731" class="st48" d="M548.6,473.1l-3.8,10.2"/>
					<path id="path7733" class="st48" d="M529.2,496l-5.3,9.2"/>
					<path id="path7735" class="st48" d="M539.5,494.2l-5.4,10.9"/>
					<path id="path7737" class="st48" d="M528.8,515.1l-5.6,10.6"/>
					<path id="path7739" class="st48" d="M533.9,495.2l5.3-10.6"/>
				</g>
				<g id="g7741" transform="matrix(0.8635206,0,0,0.7979703,93.6121,-277.96076)">
					<path id="path7743" sodipodi:nodetypes="cccsccs" class="st53" d="M975.9,590.3c172.1,0,201.6,47.3,194,55.3l0,0
						c44.8-18.6-21.7-71-194-71c-172.4,0-240.1,52.4-194,71l0,0C774.3,637.5,803.8,590.3,975.9,590.3L975.9,590.3z"/>
					<g id="g7745">
						<path id="path7747" sodipodi:nodetypes="cc" class="st54" d="M1052.3,578.5c-16.9-1.9-37.4,1.1-31,12.9"/>
						<path id="path7749" sodipodi:nodetypes="cc" class="st54" d="M1088.3,583.5c-23.8-3.8-35.9,2.3-33.6,10.4"/>
						<path id="path7751" sodipodi:nodetypes="cc" class="st54" d="M1148.1,600.4c-24.8-7.5-36.3-1.8-34.5,4.5"/>
						<path id="path7753" sodipodi:nodetypes="cc" class="st54" d="M1175.3,616.8c-10.5-7.5-34.5-15.3-35.7-2.5"/>
						<path id="path7755" sodipodi:nodetypes="cc" class="st54" d="M1181.9,637c-0.3-16.6-22.7-16.9-22-10.6"/>
						<path id="path7757" sodipodi:nodetypes="cc" class="st54" d="M942.2,575.3c-21.6,1.2-29.8,10.7-25,17"/>
						<path id="path7759" sodipodi:nodetypes="cc" class="st54" d="M909.4,577.6c-23.2,3.4-26,12.8-21.6,17.5"/>
						<path id="path7761" sodipodi:nodetypes="cc" class="st54" d="M801.4,601.2c-18.8,8.8-13.1,24-9,25"/>
						<path id="path7763" sodipodi:nodetypes="cc" class="st54" d="M976.9,574.6c-15.1-0.9-32.9,6.4-24,15.9"/>
						<path id="path7765" sodipodi:nodetypes="cc" class="st54" d="M1012.9,575.5c-23.7-0.6-30.5,7.2-26.9,14.7"/>
						<path id="path7767" sodipodi:nodetypes="cc" class="st54" d="M1120.8,591.1c-33.1-7.1-36.6,1.3-36.1,7.4"/>
						<path id="path7769" sodipodi:nodetypes="cc" class="st54" d="M777.5,614.9c-5.4,4.3-5.5,19,4.2,22.7"/>
						<path id="path7771" sodipodi:nodetypes="cc" class="st54" d="M825.1,592.7c-20,5.1-17,20.7-13.2,22.5"/>
						<path id="path7773" sodipodi:nodetypes="cc" class="st54" d="M848,586.7c-20.3,3.2-18.6,18.3-15,20.3"/>
						<path id="path7775" sodipodi:nodetypes="cc" class="st54" d="M875.8,581.5c-20.3,3-20.8,16.2-17.4,18.7"/>
					</g>
				</g>
				<g id="g11256" transform="matrix(0.8635206,0,0,0.7979703,613.8494,-204.98211)">
					<g id="g9793" transform="matrix(1,0,0.06162651,1,-27.16761,0.3717436)">
						<path id="path9759" sodipodi:nodetypes="cccc" class="st55" d="M217.4,492.7c5.6,8.8,18.1,3.2,17.9-5.8l-14.4-10.5
							L217.4,492.7z"/>
						<path id="path9763" sodipodi:nodetypes="cccczc" class="st55" d="M204.2,453.7l2.8,2.5l17.5-4.4l1.7-4.6
							c-4.6-2.5-5.9-2.7-12.8-1.1C206.6,447.6,204.2,453.7,204.2,453.7L204.2,453.7z"/>
						<path id="path9765" sodipodi:nodetypes="ccccc" class="st56" d="M207,456.5c-0.4-5.4,12.6-8.5,17.9-5.9l10.4,36.3
							c-4.7-1.7-15.9,0-17.9,5.9L207,456.5z"/>
						<path id="path9767" sodipodi:nodetypes="cccc" class="st55" d="M204.1,454c0.5-7.5,4.6-16,10.9-19.4c4,2.3,7.2,6.4,10.9,12.1
							C214,445.1,206.6,448.9,204.1,454z"/>
						<path id="path9769" sodipodi:nodetypes="cc" class="st55" d="M209.3,464.3c2.4-7.2,11.7-6.6,18.1-4.9"/>
						<path id="path9771" sodipodi:nodetypes="cc" class="st55" d="M213,477.6c2.4-7.2,11.7-6.6,18.1-4.9"/>
						<path id="path9773" class="st55" d="M210.7,451.8l10.6,36.2"/>
						<path id="path9775" sodipodi:nodetypes="csccssc" class="st57" d="M212.3,457c-1.3,0.5-2.2,2.3-1.1,6.3
							c1.2,4.3,3.7,12.6,3.7,12.6c0.6-1.8,3.4-2.6,5.7-2.4c0,0-2.2-7.4-3.5-11.9s-3-5.1-4.5-4.7C212.5,456.9,212.4,457,212.3,457
							L212.3,457z"/>
					</g>
					<g id="g9846" transform="matrix(-1,0,-0.06162651,1,772.51239,0.3717436)">
						<path id="path9848" sodipodi:nodetypes="cccc" class="st55" d="M216.4,492.7c5.6,8.8,18.1,3.2,17.9-5.8l-14.4-10.5
							L216.4,492.7z"/>
						<path id="path9850" sodipodi:nodetypes="cccczc" class="st55" d="M203.2,453.7l2.8,2.5l17.5-4.4l1.7-4.6
							c-4.6-2.5-5.9-2.7-12.8-1.1C205.6,447.6,203.2,453.7,203.2,453.7L203.2,453.7z"/>
						<path id="path9852" sodipodi:nodetypes="ccccc" class="st56" d="M206,456.5c-0.4-5.4,12.6-8.5,17.9-5.9l10.4,36.3
							c-4.7-1.7-15.9,0-17.9,5.9L206,456.5z"/>
						<path id="path9854" sodipodi:nodetypes="cccc" class="st55" d="M203.1,454c0.5-7.5,4.6-16,10.9-19.4c4,2.3,7.2,6.4,10.9,12.1
							C213,445.1,205.6,448.9,203.1,454z"/>
						<path id="path9856" sodipodi:nodetypes="cc" class="st55" d="M208.2,464.3c2.4-7.2,11.7-6.6,18.1-4.9"/>
						<path id="path9858" sodipodi:nodetypes="cc" class="st55" d="M212,477.6c2.4-7.2,11.7-6.6,18.1-4.9"/>
						<path id="path9860" class="st55" d="M209.7,451.8l10.6,36.2"/>
						<path id="path9862" sodipodi:nodetypes="csccssc" class="st57" d="M211.3,457c-1.3,0.5-2.2,2.3-1.1,6.3
							c1.2,4.3,3.7,12.6,3.7,12.6c0.6-1.8,3.4-2.6,5.7-2.4c0,0-2.2-7.4-3.5-11.9s-3-5.1-4.5-4.7C211.4,456.9,211.4,457,211.3,457
							L211.3,457z"/>
					</g>
				</g>
				<path id="path9639" sodipodi:nodetypes="cccc" class="st58" d="M882.6,172.4c3.8,9,18.2,6.1,20.1-2.2l-12.5-12.1L882.6,172.4z"
					/>
				<path id="path9621" sodipodi:nodetypes="cccczc" class="st58" d="M878.1,134.3l2.4,2.8l19.3-1l2.9-3.9
					c-4.2-3.1-5.5-3.5-13.1-3.3C882.1,129.2,878.1,134.3,878.1,134.3z"/>
				<path id="rect9584" sodipodi:nodetypes="cscccc" class="st59" d="M880.4,137.4c0.3-1.6,1.9-2.7,4.1-3.5c4.8-1.6,12.6-1.1,16,1.2
					l2.2,35.1c-4.5-2.4-16.6-2.8-20.1,2.3L880.4,137.4z"/>
				<path id="path9619" sodipodi:nodetypes="cccc" class="st58" d="M877.9,134.6c3.1-6.2,8.3-12.7,13.6-16.3
					c3.6,2.8,8.4,7.6,10.9,13.4C890.4,128.1,881.7,130.4,877.9,134.6L877.9,134.6z"/>
				<path id="path9623" sodipodi:nodetypes="cc" class="st26" d="M880.9,145c4.2-6.2,13.9-4,20.1-1.3"/>
				<path id="path9625" sodipodi:nodetypes="cc" class="st26" d="M881.6,157.8c4.2-6.2,13.9-4,20.1-1.3"/>
				<path id="path9627" class="st26" d="M887.7,133.3l2.5,35.1"/>
				<path id="path9617" sodipodi:nodetypes="csccssc" class="st27" d="M888.6,138.2c-1.8,0.2-3.4,1.6-3.2,5.5
					c0.2,4.1,0.7,12.2,0.7,12.2c2.4-0.8,5-0.7,7.5-0.4c0,0-0.3-7.7-0.6-12.1c-0.3-4.4-2.2-5.3-4.1-5.2
					C888.8,138.2,888.7,138.2,888.6,138.2L888.6,138.2z"/>
				<g id="g11276" transform="matrix(-1.0527823,-0.00396165,0,0.972865,1311.8363,-278.56419)">
					<path id="path11278" sodipodi:nodetypes="cccc" class="st60" d="M306.1,464.8c3.6,9.3,17.3,6.3,19.1-2.2l-11.9-12.5
						L306.1,464.8z"/>
					<g id="g11280" transform="matrix(0.8825227,0,0,0.8825227,33.706984,58.498387)">
						<path id="path11282" sodipodi:nodetypes="cccczc" class="st61" d="M303.8,416l2.5,3.3l20.8-1.1l3.1-4.6
							c-4.5-3.6-6-4.1-14.1-3.9C308.1,410,303.8,416,303.8,416L303.8,416z"/>
						<path id="path11284" sodipodi:nodetypes="ccccc" class="st62" d="M306.2,419.6c1-5.9,16.3-6.5,21.6-2.6l2.4,40.9
							c-4.9-2.8-17.9-3.3-21.6,2.6L306.2,419.6z"/>
						<path id="path11286" sodipodi:nodetypes="cccc" class="st61" d="M303.6,416.3c3.3-7.2,9-14.7,14.7-18.9
							c3.9,3.3,9,8.8,11.7,15.7C317,408.9,307.7,411.4,303.6,416.3L303.6,416.3z"/>
						<path id="path11288" sodipodi:nodetypes="cc" class="st61" d="M306.7,428.4c4.5-7.2,14.9-4.6,21.7-1.4"/>
						<path id="path11290" sodipodi:nodetypes="cc" class="st61" d="M307.6,443.4c4.5-7.2,14.9-4.6,21.7-1.4"/>
						<path id="path11292" class="st61" d="M314.2,414.8l2.7,40.9"/>
						<path id="path11294" sodipodi:nodetypes="csccsssc" class="st63" d="M315.1,420.6c-1.9,0.2-3.6,1.9-3.5,6.4
							c0.2,4.8,0.7,14.2,0.7,14.2c2.6-0.9,5.4-0.8,8.1-0.4c0,0-0.2-6.3-0.4-11.3c0-1-0.1-1.9-0.2-2.7c-0.3-5.1-2.3-6.1-4.4-6.1
							C315.3,420.6,315.2,420.6,315.1,420.6L315.1,420.6z"/>
					</g>
				</g>
				<g id="g17237" transform="matrix(0.8633888,0,0,0.8605942,614.5331,-247.65063)">
					<g id="g7543" transform="matrix(-0.9848365,-0.2864095,-0.1571908,1.0050486,831.60779,209.24552)">
						<path id="path7545" sodipodi:nodetypes="csccsssssssssssssccsc" class="st64" d="M562.6,510.6c-3.5-2.6-8.3-2.4-13,5.7
							c-4.6,8.2-11.5,21.1-11.5,21.1l2.5,2.1c0.7-1.3,6.6-12.3,10.4-18.9c1-1.8,1.8-3.2,2.7-4.3c0.5-0.5,0.9-1,1.3-1.3
							c0.4-0.4,0.7-0.7,1.1-0.9c0.4-0.2,0.7-0.4,1.1-0.5c0.4-0.1,0.7-0.2,1-0.1c0.7,0,1.8,0.3,2.4,0.7c0.5,0.4,1.1,1.3,1.4,2
							c0.2,0.3,0.2,0.6,0.3,1s0,0.7,0,1.2s0,1-0.1,1.6s-0.3,1.2-0.5,1.9c-0.4,1.4-1.3,2.9-2.3,4.8c-3.7,7.1-9.6,17.4-10.3,18.7
							l2.9,1.6c0,0,6.9-12,11.5-20.8C568.3,517.5,566.1,513.2,562.6,510.6z"/>
						<path id="path7547" sodipodi:nodetypes="czszcc" class="st65" d="M540.8,539.3c0,0,6.4-11.9,10.4-19c4-7.1,7.3-7.8,9.4-6.2
							c2.1,1.6,3.2,4.7-0.9,12.3c-4.1,7.6-10.4,18.8-10.4,18.8L540.8,539.3z"/>
					</g>
					<g id="g17231" transform="matrix(0.9848365,-0.2864095,0.1571908,1.0050486,-87.732953,209.24552)">
						<path id="path17233" sodipodi:nodetypes="csccsssssssssssssccsc" class="st64" d="M563.6,510.9c-3.5-2.6-8.3-2.4-13,5.7
							c-4.6,8.2-11.5,21.1-11.5,21.1l2.5,2.1c0.7-1.3,6.6-12.3,10.4-18.9c1-1.8,1.8-3.2,2.7-4.3c0.5-0.5,0.9-1,1.3-1.3
							c0.4-0.4,0.7-0.7,1.1-0.9c0.4-0.2,0.7-0.4,1.1-0.5c0.4-0.1,0.7-0.2,1-0.1c0.7,0,1.8,0.3,2.4,0.7c0.5,0.4,1.1,1.3,1.4,2
							c0.2,0.3,0.2,0.6,0.3,1c0.1,0.4,0,0.7,0,1.2c0,0.5,0,1-0.1,1.6s-0.3,1.2-0.5,1.9c-0.4,1.4-1.3,2.9-2.3,4.8
							c-3.7,7.1-9.6,17.4-10.3,18.7l2.9,1.6c0,0,6.9-12,11.5-20.8C569.3,517.8,567.1,513.5,563.6,510.9z"/>
						<path id="path17235" sodipodi:nodetypes="czszcc" class="st65" d="M541.8,539.6c0,0,6.4-11.9,10.4-19s7.3-7.8,9.4-6.2
							c2.1,1.6,3.2,4.7-0.9,12.3c-4.1,7.6-10.4,18.8-10.4,18.8L541.8,539.6z"/>
					</g>
				</g>
				<g id="g7777" transform="matrix(0.8257272,0,0,0.7630458,115.7172,-250.46913)">
					<path id="path7781" sodipodi:nodetypes="csssscssss" class="st66" d="M993.5,651.6c-103.2,0-187,18-187,40.2
						s83.8,40.2,187,40.2s187-18,187-40.2C1180.6,669.6,1096.8,651.6,993.5,651.6L993.5,651.6z M993.5,665.7
						c94.4,0,171,19.4,171,26.7c0,7.7-76.6,27.8-171,27.8s-171-20.1-171-27.8C822.6,685.2,899.1,665.7,993.5,665.7L993.5,665.7z"/>
					<path id="path7783" sodipodi:nodetypes="cc" class="st67" d="M1061.9,654.6c-15.1-1.9-33.5,1-27.7,12.7"/>
					<path id="path7785" sodipodi:nodetypes="cc" class="st67" d="M1093.7,657.7c-23-3-33.1,3.6-29.7,11.4"/>
					<path id="path7787" sodipodi:nodetypes="cc" class="st67" d="M1148.9,669.4c-22.6-6.5-34.6-1-29.3,7.7"/>
					<path id="path7789" sodipodi:nodetypes="cc" class="st67" d="M1175.3,682.4c-9.9-6.4-31.4-11.4-31,1.1"/>
					<path id="path7791" sodipodi:nodetypes="cc" class="st67" d="M1177.6,698.6c5.5-13.8-15.4-13.2-14.8-7.8"/>
					<path id="path7793" sodipodi:nodetypes="cc" class="st67" d="M963.3,652.1c-19.3,1.1-26.7,9.9-22.4,15.8"/>
					<path id="path7795" sodipodi:nodetypes="cc" class="st67" d="M933.9,653.8c-20.8,3.2-23.2,12.1-19.3,16.5"/>
					<path id="path7797" sodipodi:nodetypes="cc" class="st67" d="M837.1,669.7c-16.8,6.4-11.8,17.7-8.1,18.4"/>
					<path id="path7799" sodipodi:nodetypes="cc" class="st67" d="M994.4,651.5c-13.5-0.8-29.4,5.8-21.5,14.4"/>
					<path id="path7801" sodipodi:nodetypes="cc" class="st67" d="M1026.6,652.1c-21.2-0.6-27.3,6.8-24.1,13.9"/>
					<path id="path7803" sodipodi:nodetypes="cc" class="st67" d="M1122.4,662.9c-30-5.9-32.7,3.3-31.8,9.9"/>
					<path id="path7805" sodipodi:nodetypes="cc" class="st67" d="M809.2,684.7c-2.5,5.9,3.3,11.8,13.1,7.8"/>
					<path id="path7807" sodipodi:nodetypes="cc" class="st67" d="M858.3,664c-17.9,4.1-15.2,16.8-11.8,18.1"/>
					<path id="path7809" sodipodi:nodetypes="cc" class="st67" d="M878.9,660.2c-18.2,2.7-16.7,15.8-13.4,17.4"/>
					<path id="path7811" sodipodi:nodetypes="cc" class="st67" d="M903.8,656.7c-18.2,2.8-18.6,15-15.6,17.2"/>
				</g>
			</g>
		</g>
	</g>
</g>
<g id="layer1" transform="translate(-29.807234,-68.52332)" inkscape:groupmode="layer" inkscape:label="Escudo">
	<path id="path11797" inkscape:transform-center-x="-263.875" inkscape:transform-center-y="83.571209" class="st68" d="
		M525.9,474.1v61.6h59.6L525.9,474.1z"/>
	<path id="path11795" inkscape:transform-center-x="-196.84375" inkscape:transform-center-y="51.664959" class="st69" d="
		M471.8,418.2v117.5h54.1v-61.6L471.8,418.2z"/>
	<path id="path11793" inkscape:transform-center-x="-132.59375" inkscape:transform-center-y="19.321209" class="st68" d="
		M416.9,361.5v174.1h54.9V418.2L416.9,361.5z"/>
	<path id="path11791" inkscape:transform-center-x="-68.359375" inkscape:transform-center-y="-12.569416" class="st69" d="
		M362.8,305.6v230h54.1V361.5L362.8,305.6z"/>
	<path id="path11789" inkscape:transform-center-x="259.32813" inkscape:transform-center-y="79.024334" class="st68" d="
		M145.5,535.6v-69.5l-67.3,69.5H145.5z"/>
	<path id="path11787" inkscape:transform-center-x="187.75" inkscape:transform-center-y="47.118084" class="st69" d="M199.7,535.6
		V410.2l-54.1,55.9v69.5L199.7,535.6z"/>
	<path id="path11785" inkscape:transform-center-x="123.9375" inkscape:transform-center-y="15.211834" class="st68" d="
		M253.8,354.3l-54.1,55.9v125.4h54.1L253.8,354.3L253.8,354.3z"/>
	<path id="path11783" inkscape:transform-center-x="-4.1250005" inkscape:transform-center-y="-30.803791" class="st68" d="
		M307.9,535.6h54.9v-230l-30.9-32L308,298.3v237.3H307.9z"/>
	<path id="path8622" inkscape:transform-center-x="60.124999" inkscape:transform-center-y="-16.694416" class="st69" d="
		M307.9,535.6V298.4l-54.1,55.9v181.3H307.9z"/>
	<path id="path13304" class="st70" d="M331.9,799.3L586,536.9l-0.4-0.4H78.3l-0.4,0.4L331.9,799.3z"/>
	
		<path id="path27679_1_" inkscape:transform-center-x="-55.20663" inkscape:transform-center-y="55.862335" sodipodi:nodetypes="cccccccccccccc" class="st71" d="
		M164.6,624.6l54,55.9h87v89.7l26.2,26.9l32.8-33.9v-82.6h80l54.1-55.9h-134v-88h-59.1v88L164.6,624.6z"/>
</g>
<g id="layer4" transform="translate(26.621488,-145.16367)" inkscape:groupmode="layer" inkscape:label="Piezas">
</g>
<g id="layer5" transform="translate(26.621488,-145.16367)" inkscape:groupmode="layer" inkscape:label="Muebles">
</g>
<g id="layer6" transform="translate(26.621488,-145.16367)" inkscape:groupmode="layer" inkscape:label="Ornamentos">
</g>
<g id="layer2" transform="translate(26.621488,-145.16367)" inkscape:groupmode="layer" inkscape:label="Borde 3px">
	<polygon id="rect12296" class="st72" points="21.4,612.7 275.4,350.3 529.5,612.7 275.4,875.1 	"/>
</g>
</svg>
